<svg width="28" height="28" viewBox="0 0 28 28" fill="none" xmlns="http://www.w3.org/2000/svg">
<path d="M19.926 7.94315C18.3273 6.64392 16.2289 5.94434 14.2305 5.94434C12.1322 5.94434 10.1338 6.64392 8.53511 7.94315C6.93639 9.14243 6.03711 10.8414 6.03711 12.7403C6.03711 14.4393 6.83647 16.1383 8.13543 17.3376C9.53431 18.5368 11.2329 19.2364 13.0315 19.3364V22.1347C13.0315 22.3346 13.2313 22.4345 13.3313 22.4345C13.4312 22.4345 13.4312 22.4345 13.5311 22.3346L18.627 18.4369C19.6262 17.7373 20.5255 16.8379 21.2249 15.9384C21.9244 15.0389 22.3241 13.9396 22.3241 12.7403C22.3241 10.8414 21.4248 9.14243 19.926 7.94315Z" fill="white"/>
<path d="M16.4284 10.7414C16.4284 10.4416 16.2286 10.2417 16.0288 10.2417C15.8289 10.2417 15.6291 10.4416 15.6291 10.7414C15.6291 11.341 15.6291 11.8407 15.6291 12.4404C15.6291 12.5403 15.6291 12.6403 15.6291 12.7402C15.5292 12.6403 15.5292 12.5403 15.4292 12.5403C14.9296 11.8407 14.43 11.2411 13.9304 10.5415C13.8305 10.3416 13.6307 10.2417 13.4308 10.3416C13.231 10.3416 13.0311 10.5415 13.1311 10.7414C13.1311 11.8407 13.1311 12.8401 13.1311 13.9395C13.1311 14.1394 13.231 14.2393 13.3309 14.3393C13.6307 14.4392 13.9304 14.2393 13.9304 13.8396C13.9304 13.3399 13.9304 12.8401 13.9304 12.2405V12.0406C14.0304 12.0406 14.0304 12.1406 14.1303 12.2405C14.6299 12.9401 15.1295 13.5397 15.6291 14.2393C15.729 14.4392 15.9288 14.5391 16.1287 14.4392C16.3285 14.3393 16.4284 14.1394 16.4284 13.9395C16.4284 12.8401 16.4284 11.8407 16.4284 10.7414Z" fill="#BDBDBD"/>
<path d="M18.0274 11.1412C18.1273 11.1412 18.2272 11.1412 18.3272 11.1412C18.6269 11.1412 18.9267 11.1412 19.2264 11.1412C19.3264 11.1412 19.4263 11.1412 19.5262 11.0412C19.726 10.9413 19.826 10.7414 19.726 10.5415C19.726 10.3416 19.5262 10.2417 19.3264 10.2417C18.8268 10.2417 18.2272 10.2417 17.7276 10.2417C17.3279 10.2417 17.228 10.4416 17.228 10.7414C17.228 11.7408 17.228 12.7402 17.228 13.7396C17.228 14.1394 17.4279 14.2393 17.7276 14.2393C18.2272 14.2393 18.7268 14.2393 19.2264 14.2393C19.3264 14.2393 19.4263 14.2393 19.4263 14.2393C19.6261 14.1394 19.726 13.9395 19.726 13.7396C19.726 13.6397 19.6261 13.5397 19.5262 13.4398C19.4263 13.4398 19.3264 13.4398 19.2264 13.4398C18.8268 13.4398 18.4271 13.4398 18.1273 13.4398V12.8402C18.2272 12.8402 18.2272 12.8402 18.3272 12.8402C18.7268 12.8402 19.0266 12.8402 19.4263 12.8402C19.726 12.8402 19.9259 12.6403 19.9259 12.4404C19.9259 12.2405 19.726 12.0406 19.4263 12.0406C19.2264 12.0406 19.0266 12.0406 18.8268 12.0406C17.9275 11.9407 17.9275 11.9407 18.0274 11.1412C18.0274 11.1412 18.0274 11.2411 18.0274 11.1412Z" fill="#BDBDBD"/>
<path d="M10.7334 13.6398C10.6335 13.6398 10.5336 13.6398 10.5336 13.6398H9.43444V13.2401C9.43444 12.4405 9.43444 11.641 9.43444 10.8415C9.43444 10.5417 9.2346 10.3418 9.03476 10.3418C8.83492 10.3418 8.53516 10.5417 8.53516 10.8415C8.53516 11.8409 8.53516 12.9402 8.53516 13.9397C8.53516 14.1395 8.63508 14.4394 8.93484 14.4394H9.03476C9.33452 14.4394 10.4336 14.4394 10.7334 14.4394C10.9332 14.4394 11.1331 14.2395 11.1331 14.0396C11.1331 13.8397 10.9332 13.6398 10.7334 13.6398Z" fill="#BDBDBD"/>
<path d="M12.4328 10.7416C12.4328 10.4417 12.3328 10.3418 12.0328 10.3418C11.7328 10.3418 11.6328 10.4417 11.6328 10.7416C11.6328 11.8409 11.6328 12.9402 11.6328 14.0396C11.6328 14.3394 11.7328 14.4394 12.0328 14.4394C12.3328 14.4394 12.4328 14.3394 12.4328 14.0396C12.4328 13.5399 12.4328 12.9402 12.4328 12.4405C12.4328 11.9408 12.4328 11.2413 12.4328 10.7416Z" fill="#BDBDBD"/>
<path d="M13.9886 26.984C21.1626 26.984 26.9783 21.1672 26.9783 13.9918C26.9783 6.81635 21.1626 0.999512 13.9886 0.999512C6.81467 0.999512 0.999023 6.81635 0.999023 13.9918C0.999023 21.1672 6.81467 26.984 13.9886 26.984Z" stroke="white" stroke-width="2"/>
</svg>
