<svg width="169" height="39" viewBox="0 0 169 39" fill="none" xmlns="http://www.w3.org/2000/svg">
<path d="M12.9896 22.6869C12.49 20.9879 11.491 19.5879 10.192 18.3887L8.89278 17.4898L8.29365 17.0896L7.79405 16.79L7.69404 16.6904L7.19444 16.2903L6.89438 16.0902L6.4948 15.7906C4.79616 14.6912 3.29736 13.392 1.9984 11.793L0.4996 16.3898L0.300053 16.9901L0 17.7894C0 17.8893 0 17.9891 0 18.089C0.29976 19.0884 2.19834 20.7874 6.09522 23.5858L6.29525 23.7858L6.69484 24.0855L7.09442 24.3851C9.69234 26.284 11.4907 27.6837 12.39 28.9829C12.39 28.9829 12.3901 29.0825 12.49 29.0825C13.4892 26.9837 13.5891 24.7856 12.9896 22.6869Z" fill="white"/>
<path d="M12.1901 30.1822C11.9903 29.1828 10.2915 27.583 7.09408 25.3843L6.99406 25.5844C5.39534 30.4814 4.89574 33.0797 5.49526 33.8792C5.59518 33.9792 5.69539 33.9797 5.79531 33.9797C6.99435 33.8798 9.59217 32.0811 12.1901 30.1822Z" fill="white"/>
<path d="M7.99339 15.691C8.99259 15.2912 10.1916 11.6933 10.991 9.19482H10.1918C5.09591 9.19482 2.69782 9.59381 2.19822 10.3933C2.0983 11.4927 5.89507 14.2918 7.99339 15.691Z" fill="white"/>
<path d="M20.3838 7.29564C21.5828 8.99463 23.5815 9.99423 25.6798 9.99423C26.4792 9.99423 27.1784 9.89448 27.8778 9.6946C27.7779 9.29484 27.5781 8.89488 27.4782 8.49512L27.2787 7.89489C26.0796 4.29703 24.7805 0.499686 23.5814 0.299805C22.5822 0.399745 21.1831 4.59725 20.3838 7.29564Z" fill="white"/>
<path d="M27.2782 30.4819H27.1782C25.9792 30.4819 23.581 32.081 21.083 33.9798L21.283 34.1799C25.08 36.9783 27.2778 38.1775 28.377 38.1775C28.4769 38.1775 28.6771 38.177 28.777 38.077C29.5764 37.2775 28.1775 32.8805 27.2782 30.4819Z" fill="white"/>
<path d="M33.373 25.0845C32.074 21.3867 31.6746 20.2873 31.175 18.5883C31.0751 18.2885 31.0748 18.0892 30.875 17.6895C29.576 18.7888 28.4769 20.2877 27.8774 21.9867C27.3778 23.086 27.1782 24.2853 27.1782 25.4846C27.1782 25.5846 27.1782 25.5848 27.1782 25.6847V25.8838C27.1782 27.3829 27.5779 28.7823 28.1774 30.0815C28.2773 30.2814 28.2771 30.3813 28.377 30.5812C28.4769 30.7811 28.5771 31.0807 28.677 31.3805C29.3765 33.2794 29.876 35.2786 30.0758 37.2774L33.0734 35.0785L33.8726 34.4793L34.3722 34.0791L35.0718 33.5794C35.8712 32.58 34.6719 28.7823 33.373 25.0845Z" fill="white"/>
<path opacity="0.3" d="M14.189 29.7827C14.589 29.4827 14.9887 29.1823 15.3887 28.8823C14.9887 29.1823 14.589 29.4827 14.189 29.7827Z" fill="white"/>
<path d="M20.2841 27.4834C18.5855 27.4834 16.8865 27.9825 15.3877 28.882C14.988 29.1818 14.5886 29.482 14.1889 29.7818L13.6893 30.182L13.1897 30.5812L13.0897 30.6817L12.5901 31.0809L12.2905 31.2809L11.8905 31.5806C10.3917 32.8798 8.59348 33.8798 6.79492 34.6793L10.7917 37.4774L11.2913 37.8766L11.9905 38.3763C12.0904 38.3763 12.1906 38.3763 12.2905 38.3763C13.3896 38.3763 15.488 37.0773 19.2849 34.0791L19.4845 33.879L19.8841 33.5794L20.2841 33.2798C22.0827 31.7806 24.081 30.4812 26.1793 29.5818H26.2793C24.5807 28.1826 22.4824 27.4834 20.2841 27.4834Z" fill="white"/>
<path opacity="0.3" d="M13.0898 27.4844C13.1898 27.2844 13.29 27.0842 13.29 26.7842L13.0898 27.4844Z" fill="white"/>
<path opacity="0.3" d="M18.9849 8.79492C18.8849 8.99492 18.8852 9.29473 18.7852 9.59473C18.7852 9.29473 18.8849 9.09492 18.9849 8.79492Z" fill="white"/>
<path d="M17.3858 0.200076H15.887C14.9877 0.399957 13.8886 2.69781 12.3898 7.89472C12.3898 7.99466 12.3902 8.09538 12.2902 8.19532C12.2902 8.29526 12.1902 8.49514 12.1902 8.69502C12.1902 8.8949 12.0902 8.99484 12.0902 9.19472C11.1909 12.2929 10.3915 14.4916 9.49219 15.6909H10.2918C14.0888 15.5909 17.4861 13.0922 18.785 9.49435C18.885 9.29447 18.8847 8.99484 18.9846 8.69502L19.2846 7.79517L19.4842 7.19591L19.5842 6.99584C19.6841 6.79596 19.6843 6.59549 19.7842 6.39561L19.9838 5.79635C19.9838 5.69641 19.9839 5.69622 20.0838 5.59628C20.5834 3.59747 21.3826 1.79893 22.3818 0L17.3858 0.200076Z" fill="white"/>
<path opacity="0.5" d="M31.2759 15.5903C30.9759 15.6903 30.6755 15.6905 30.3755 15.7905C30.6755 15.6905 30.9759 15.6903 31.2759 15.5903Z" fill="white"/>
<path d="M36.6707 9.29437C36.1711 9.29437 35.6715 9.19482 35.1719 9.19482C33.3733 9.19482 31.5745 9.49445 29.8759 9.99415L29.2767 10.1942L28.8767 10.2938H28.7771L28.3771 10.3933C27.5777 10.5932 26.6784 10.7935 25.8791 10.7935C24.2803 10.7935 22.7816 10.2934 21.4827 9.39392L21.1831 9.19482V9.29437C21.7826 12.7923 24.6803 15.4907 28.1775 15.7905C28.4773 15.7905 28.6769 15.7905 28.9767 15.7905C29.4763 15.7905 29.9758 15.7909 30.3755 15.691C30.6752 15.591 30.9754 15.4909 31.2751 15.4909C32.1744 15.291 33.0734 15.1909 33.9727 15.2908C35.3716 15.3907 36.6705 15.6908 37.9695 15.9906L42.2663 10.4939C40.4678 9.89421 38.5692 9.49426 36.6707 9.29437Z" fill="white"/>
<path d="M47.1624 17.5893L46.0632 23.8854L44.6644 22.9865C44.6644 22.9865 45.6636 17.8895 45.6636 17.4898L47.1624 17.5893ZM52.1584 15.9906C51.8587 15.9906 51.6588 16.09 51.6588 16.3898V16.4903V25.5845C51.6588 26.0842 51.559 26.5843 51.2593 26.9841C50.8596 27.3839 50.2601 27.4838 49.7604 27.4838H48.6612L48.3612 25.6851L49.4604 25.7846C49.8601 25.7846 50.16 25.5851 50.16 25.1854V16.4903C50.16 16.4903 50.1601 16.0902 49.7604 16.0902C49.5606 16.0902 49.4604 16.1899 49.4604 16.3898V17.4898C49.5603 19.4886 49.3604 21.5869 48.8608 23.5857C48.3612 25.1848 47.5619 26.6843 46.4628 27.9835L45.064 26.8836C46.0632 25.7842 46.8624 24.4852 47.362 23.086C47.8616 20.9873 48.0615 18.8887 47.9616 16.79C47.9616 15.9904 47.362 16.0902 47.362 16.0902H45.064V14.391H48.3612C48.3612 14.391 48.8608 14.4909 48.8608 13.8913V13.3916C48.8608 13.0918 48.6609 12.8919 48.3612 12.8919H45.7636V11.1937H48.5612C48.861 11.1937 49.0608 10.9938 49.0608 10.694V9.39398H50.8592V10.7935C50.8592 10.9934 50.9594 11.1937 51.1592 11.1937H51.2593H52.8576C52.8576 11.1937 53.8568 11.0932 53.8568 12.0926C53.8568 13.092 52.8576 12.8919 52.8576 12.8919H51.4588C51.159 12.8919 50.9592 13.0918 50.9592 13.3916C50.9592 13.3916 50.9592 13.3922 50.9592 13.4921V14.1919C50.9592 14.3918 51.159 14.5911 51.4588 14.5911H53.0576C53.5572 14.5911 53.9568 14.8911 53.9568 15.2909V15.3904C53.9568 16.1899 53.0576 16.2903 53.0576 16.2903L52.1584 15.9906ZM53.8568 20.8871L52.358 21.2873L51.6588 17.7894L53.0576 17.4898L53.8568 20.8871ZM55.9552 17.8889L55.156 24.3851L53.6572 23.1866L54.4564 17.6898L55.9552 17.8889ZM61.0512 15.9906C60.8514 15.9906 60.6516 16.1899 60.6516 16.3898V16.4903V25.8842C60.6516 26.3839 60.5518 26.884 60.2521 27.2837C59.8524 27.6835 59.2529 27.7834 58.7533 27.7834H57.654L57.2545 25.9847L58.3532 26.0842C58.7529 26.0842 59.0528 25.8848 59.0528 25.485V16.4903C59.0528 16.4903 59.0529 16.1907 58.6532 16.1907C58.2536 16.1907 58.2537 16.4903 58.2537 16.4903V17.5893C58.3536 19.5881 58.1536 21.6874 57.654 23.6863C57.1544 25.2853 56.2552 26.8844 55.156 28.1836L53.7573 27.0836C54.7565 25.9843 55.5556 24.6853 56.0552 23.2861C56.4549 21.1874 56.6548 18.9887 56.6548 16.79C56.6548 16.1903 56.1552 16.2903 56.1552 16.2903H54.3564V14.5911H56.9544C57.2542 14.691 57.4541 14.4917 57.554 14.1919C57.554 14.1919 57.554 14.1913 57.554 14.0914V13.4921C57.554 13.1923 57.3542 12.8919 57.0544 12.8919H56.9544H54.6564V11.1937H57.1544C57.3543 11.1937 57.5541 11.0934 57.654 10.7935V10.694V9.29443H59.4524V10.694C59.4524 10.694 59.4523 11.0932 59.852 11.0932H62.2505C62.6501 11.0932 63.0496 11.4927 63.0496 11.8925C63.0496 12.2923 62.6501 12.6928 62.2505 12.6928H60.052C59.8522 12.6928 59.6524 12.7925 59.6524 12.9924V13.092V13.8913C59.6524 14.391 60.152 14.2915 60.152 14.2915H62.7501C63.1497 14.2915 63.5492 14.5915 63.5492 14.9912V15.0908C63.5492 15.5905 63.2497 15.8907 62.7501 15.9906H61.0512ZM61.6508 25.0848L61.0512 18.089L62.55 17.7894L63.2497 24.6857L61.6508 25.0848Z" fill="white"/>
<path d="M68.1459 22.8856L67.2467 27.8827H65.5479L66.447 22.6865L68.1459 22.8856Z" fill="white"/>
<path d="M71.8424 12.1931L73.3412 12.8919L69.2449 19.4886C69.2449 19.4886 68.8452 19.9883 69.2449 19.9883C70.0442 19.8883 71.7429 19.6886 71.7429 19.6886L71.1433 18.1895L72.442 17.7894L73.9408 21.4874L72.442 21.9871L72.1425 21.1877L67.0464 21.6874C67.0464 21.6874 65.7473 21.787 66.3468 20.7876L69.4444 16.1907L67.0464 16.4903C67.0464 16.4903 65.7475 16.5905 66.0472 15.691C66.0472 15.5911 68.9448 9.29443 68.9448 9.29443L70.6437 9.79414L68.3452 14.391C68.3452 14.391 68.1457 14.8911 68.6453 14.7912C69.1449 14.7912 70.2441 14.5911 70.2441 14.5911" fill="white"/>
<path d="M69.0448 27.4834L68.8447 22.786L70.3435 22.5859L70.7436 27.2833L69.0448 27.4834Z" fill="white"/>
<path d="M71.7428 26.084L71.2432 22.3861L72.6419 22.0864L73.2416 25.6849L71.7428 26.084Z" fill="white"/>
<path d="M73.3412 11.293V9.69434H83.4332C83.4332 9.69434 84.4324 9.69414 84.4324 10.4937C84.4324 11.4931 83.4332 11.3925 83.4332 11.3925L73.3412 11.293Z" fill="white"/>
<path d="M77.2386 20.5873H73.7414V18.8881H77.4381C77.6379 18.8881 77.8377 18.6889 77.8377 18.489V17.1899H79.6365V18.689C79.6365 18.689 79.6363 18.9887 79.9361 18.9887H83.4333C83.9329 18.9887 84.3325 19.2883 84.3325 19.788V19.8876C84.3325 20.3873 83.9329 20.7874 83.4333 20.7874H80.2362C79.7366 20.7874 80.0361 21.1876 80.0361 21.1876L84.3325 28.1834H81.9345L79.6365 23.8852V28.283H77.8377V23.8852L74.6405 28.1834H72.5421L77.4381 21.2871C77.538 20.7874 77.7382 20.5873 77.2386 20.5873Z" fill="white"/>
<path d="M74.8399 17.2895L73.6411 13.5915L75.3395 13.0918L76.6387 16.7898L74.8399 17.2895Z" fill="white"/>
<path d="M78.0378 16.3895L77.6382 12.9921L79.4366 12.792L79.9362 16.2899L78.0378 16.3895Z" fill="white"/>
<path d="M84.1329 13.092L82.334 17.4898L80.5356 16.6904L82.434 12.5923L84.1329 13.092Z" fill="white"/>
<path d="M89.229 11.5924C89.229 11.5924 90.1282 11.6925 89.6286 10.7931L89.029 9.49402L90.8274 9.29395L91.427 10.4934C91.427 10.4934 91.9269 11.5924 92.7262 11.5924H93.6254C93.6254 11.5924 94.6246 11.5928 94.6246 12.4922C94.6246 12.9919 94.225 13.3911 93.7254 13.3911H93.6254H86.8306V11.5924H89.229ZM87.3302 14.5906H92.8258C92.8258 14.5906 93.825 14.5904 93.825 15.3899C93.825 16.1895 92.8258 16.1902 92.8258 16.1902H87.3302V14.5906ZM87.3302 17.5888H92.8258C92.8258 17.5888 93.825 17.5892 93.825 18.4887C93.825 19.3881 92.7262 19.288 92.7262 19.288H87.2306L87.3302 17.5888ZM87.3302 20.7871H92.7262C92.7262 20.7871 93.825 20.6874 93.825 21.9866V27.8825H92.0266V26.9836H89.229V28.0826H87.4302L87.3302 20.7871ZM91.9266 22.4863H89.129V25.384H91.9266V22.4863ZM103.018 11.0927V14.291C103.018 14.5908 103.018 14.891 103.218 15.1908C103.418 15.3907 103.717 15.3899 104.017 15.3899H104.417C104.417 15.3899 105.316 15.3907 105.316 16.1902C105.316 16.9898 104.417 16.9896 104.417 16.9896H103.417C102.818 16.9896 102.219 16.8896 101.719 16.4899C101.319 15.9902 101.12 15.2902 101.219 14.5906V11.4928H98.4214V12.1926C98.4214 13.192 98.3215 14.0913 97.9218 14.9907C97.3223 15.9902 96.5231 16.9898 95.6238 17.6893L94.125 16.3893C94.9244 15.7897 95.6238 15.0909 96.1234 14.1914C96.5231 13.0921 96.6229 11.9919 96.523 10.8926V9.79365H102.019C101.919 9.79365 103.018 9.69351 103.018 11.0927ZM104.117 19.5876C104.217 20.9868 103.917 22.4861 103.317 23.7853C102.918 24.5848 102.218 25.284 101.519 25.8837C102.318 26.1835 103.218 26.2838 104.117 26.2838C104.117 26.2838 105.016 26.2842 105.016 27.1837C105.016 28.0832 104.017 28.0826 104.017 28.0826C102.518 28.0826 101.02 27.7833 99.6206 27.1837C98.2217 28.0832 94.3246 28.0826 94.3246 28.0826V26.1843C95.4237 26.2842 96.6231 26.1839 97.7222 25.7841C97.2226 25.1845 96.7228 24.4849 96.423 23.7853C96.0233 22.7859 95.7237 21.7869 95.6238 20.6876H97.4222C97.4222 21.2872 97.5224 21.9862 97.7222 22.5858C98.1219 23.6852 98.821 24.5846 99.8202 25.0844C100.62 24.5846 101.219 23.9856 101.619 23.1861C102.019 22.0867 102.119 20.9866 102.019 19.8872H94.8242V18.189H102.318C102.418 18.0891 104.117 17.8886 104.117 19.5876Z" fill="white"/>
<path d="M116.507 12.4927C116.507 13.2922 115.608 13.3915 115.608 13.3915H107.414V11.6933H110.312C110.312 11.6933 111.211 11.7933 110.911 11.1936L110.112 9.594L112.111 9.39392L113.01 11.1936C113.11 11.5934 113.509 11.7933 113.909 11.6933H115.708C116.107 11.5934 116.507 11.993 116.507 12.4927ZM108.114 14.6916H115.008C115.408 14.6916 115.807 14.9906 115.807 15.3904C115.807 15.4903 115.807 15.4905 115.807 15.5904C115.807 15.9902 115.608 16.2898 115.208 16.3898C115.108 16.3898 115.108 16.3898 115.008 16.3898H108.114V14.6916ZM108.114 17.6898H115.008C115.008 17.6898 115.907 17.6896 115.907 18.4891C115.907 19.2886 115.008 19.2884 115.008 19.2884H108.114V17.6898ZM108.214 20.8871H114.609C115.208 20.7871 115.707 21.2868 115.807 21.8865C115.807 21.9864 115.807 22.0871 115.807 22.1871V27.9834H113.809V27.0836H110.112V28.1835H108.114L108.214 20.8871ZM113.809 22.4867H110.112V25.3844H113.809V22.4867ZM122.602 9.29437V14.3909C122.602 14.7907 122.902 15.0907 123.202 15.0907C123.202 15.0907 123.201 15.0907 123.301 15.0907H125.5C125.999 14.9908 126.399 15.3907 126.399 15.7905C126.399 15.8904 126.399 15.8906 126.399 15.9906C126.499 16.4903 126.099 16.89 125.6 16.99H125.5H123.202C122.502 16.99 122.602 17.7893 122.602 17.7893V28.083H120.604V17.5892C120.604 17.2894 120.404 16.99 120.104 16.99C120.004 16.99 120.004 16.99 119.904 16.99H116.806V15.0907H120.004C120.304 15.0907 120.604 14.8912 120.604 14.4915V14.3909V9.19482L122.602 9.29437Z" fill="white"/>
<path d="M142.386 20.0873C142.386 20.0873 143.585 19.9872 143.585 20.8867C143.685 21.8861 142.386 22.1867 142.386 22.1867L139.089 23.2856H146.183C146.183 23.2856 147.282 23.1855 147.382 24.0849C147.382 24.9844 146.183 24.8843 146.183 24.8843H139.089V26.1843C139.089 27.2836 138.489 27.8825 137.29 27.8825H134.093V26.2838L136.591 26.3834C136.89 26.3834 137.19 26.1835 137.19 25.8837V25.7841V24.9848H128.497V23.3852H137.19C137.29 23.0853 137.39 22.8862 137.49 22.6864C137.69 22.4865 137.89 22.3865 138.689 22.1867L140.688 21.687H132.294V20.1879L142.386 20.0873ZM145.084 19.288H130.696V22.2862H128.897V18.5882C128.897 18.1885 129.197 17.7889 129.596 17.7889C129.696 17.7889 129.696 17.7889 129.796 17.7889V10.1938L134.093 9.59357L134.992 11.0927L131.595 11.5924V12.5918H134.692V13.9913H131.595V15.0903H134.692V16.4899H131.595V17.7889H144.284V16.4899H141.387V15.0903H144.284V13.9913H141.387V12.5918H144.284V11.4928H141.187V9.8932H144.884C144.884 9.8932 145.983 9.89398 145.983 11.1932V17.7889C145.983 17.7889 146.982 17.6889 146.982 18.7883V22.2862H145.184L145.084 19.288ZM138.19 12.0921L135.991 13.4916L134.992 12.1926L136.99 11.1932L135.891 10.1938L136.99 9.29395L138.289 10.593L139.688 9.6941L140.587 10.6935L139.388 11.4928L140.587 12.5918L139.388 13.3911L138.19 12.0921ZM138.19 16.1902L136.091 17.3887L135.291 16.0897L137.09 15.0903L135.991 14.0909L137.19 13.2916L138.289 14.3905L139.888 13.2916L140.787 14.3905L139.488 15.1908L140.487 16.2898L139.288 17.1896L138.19 16.1902Z" fill="white"/>
<path d="M155.275 11.2928C155.275 11.2928 154.377 15.0903 154.177 15.59C154.077 16.0897 154.176 16.4899 154.276 16.9896L155.476 20.7871C155.875 21.7865 155.376 22.8859 154.376 23.2856C154.276 23.2856 154.177 23.3852 154.077 23.3852L151.679 23.5852V21.687H153.078C153.877 21.687 153.677 20.7871 153.677 20.7871L152.378 17.2892C152.178 16.7895 152.078 16.1902 152.278 15.6905C152.478 15.1908 153.277 11.7925 153.277 11.7925H151.179V28.1831H149.28V10.0933H154.077C155.576 9.99333 155.275 11.2928 155.275 11.2928ZM157.874 20.2874H155.875V18.5882H166.567C166.567 18.5882 167.566 18.4887 167.566 19.4881C167.566 19.9878 167.066 20.387 166.567 20.387H164.468C164.468 20.387 163.669 20.3873 163.669 21.2868V25.4845C163.669 25.7843 163.869 26.1843 164.169 26.1843C164.269 26.1843 164.268 26.1843 164.368 26.1843H167.466C167.966 26.1843 168.265 26.5835 168.265 27.0832C168.265 27.4829 167.866 27.8825 167.466 27.8825H163.769C163.169 27.8825 162.67 27.7825 162.27 27.3828C161.87 26.8831 161.67 26.1841 161.77 25.4845V21.0867C161.77 20.687 161.471 20.3873 161.071 20.2874H160.971C160.272 20.2874 160.271 21.0867 160.271 21.0867C160.271 22.5858 159.872 23.9856 159.073 25.1849C158.074 26.4841 156.775 27.4829 155.176 28.0826L153.977 26.3834C155.276 25.9836 156.575 25.2848 157.474 24.1855C158.073 23.286 158.373 22.1861 158.473 21.0867C158.573 21.1867 158.673 20.2874 157.874 20.2874ZM165.668 16.5894H157.374V15.59H155.875V11.0927H160.072C160.572 11.0927 160.372 10.6935 160.372 10.6935L159.772 9.49402L161.671 9.29395L162.37 10.6935C162.47 10.9933 162.77 11.1932 163.17 11.1932H166.467C166.966 11.1932 167.366 11.5924 167.366 12.0921V12.1926V15.6905H165.867L165.668 16.5894ZM165.368 12.8914H157.773V14.8902H165.368V12.8914Z" fill="white"/>
<path d="M48.7611 34.1796H46.3627L45.7635 35.5781H44.9639L47.1623 30.6816H47.9615L50.1599 35.5781H49.3603L48.7611 34.1796ZM47.5619 31.481L46.6627 33.5793H48.4611L47.5619 31.481Z" fill="white"/>
<path d="M50.5597 32.0805H51.2593V32.5802C51.5591 32.1804 52.0586 31.981 52.6581 31.981C53.6573 31.981 54.5565 32.7803 54.5565 33.7797C54.5565 34.7791 53.7573 35.679 52.7581 35.679H52.6581C52.1585 35.679 51.659 35.4785 51.2593 35.0787V36.8775H50.5597V32.0805V32.0805ZM52.5581 32.5802C51.8586 32.5802 51.2593 33.1797 51.2593 33.8792C51.2593 34.5788 51.8586 35.1792 52.5581 35.1792C53.2575 35.1792 53.8568 34.5788 53.8568 33.8792C53.8568 33.1797 53.2575 32.5802 52.5581 32.5802Z" fill="white"/>
<path d="M55.2559 32.0805H55.955V32.5802C56.2548 32.1804 56.7543 31.981 57.3538 31.981C58.353 31.981 59.2527 32.7803 59.2527 33.7797C59.2527 34.7791 58.453 35.679 57.4538 35.679H57.3538C56.8542 35.679 56.3547 35.4785 55.955 35.0787V36.8775H55.2559V32.0805V32.0805ZM57.1542 32.5802C56.4548 32.5802 55.855 33.1797 55.855 33.8792C55.855 34.5788 56.4548 35.1792 57.1542 35.1792C57.8537 35.1792 58.453 34.5788 58.453 33.8792C58.453 33.1797 57.8537 32.5802 57.1542 32.5802Z" fill="white"/>
<path d="M60.4517 34.0789C60.5517 34.7785 61.0516 35.2788 61.751 35.1788C62.2506 35.1788 62.65 34.9784 62.9498 34.5786H63.6494C63.3496 35.2782 62.6499 35.7781 61.8505 35.7781C60.7514 35.7781 59.9521 34.8786 59.9521 33.7793C59.9521 32.7799 60.7514 31.98 61.8505 31.88C62.8497 31.7801 63.7494 32.5798 63.7494 33.5792C63.7494 33.6792 63.7494 33.7789 63.7494 33.8788V33.9794L60.4517 34.0789ZM63.0498 33.4797C62.9498 32.88 62.4501 32.4803 61.8505 32.4803C61.251 32.4803 60.6517 32.88 60.5518 33.4797H63.0498Z" fill="white"/>
<path d="M67.5461 35.1791C67.2463 35.5788 66.7468 35.7783 66.1473 35.7783C65.1481 35.7783 64.2485 34.8785 64.3484 33.8791C64.3484 32.8797 65.1481 32.0803 66.1473 32.0803C66.6469 32.0803 67.1464 32.2808 67.5461 32.6806V30.8809H68.2457V35.7783H67.5461V35.1791ZM66.2473 35.1791C66.9467 35.1791 67.5461 34.5787 67.5461 33.8791C67.5461 33.1795 66.9467 32.58 66.2473 32.58C65.5479 32.58 64.948 33.1795 64.948 33.8791C64.948 34.5787 65.5479 35.1791 66.2473 35.1791Z" fill="white"/>
<path d="M72.6422 35.679H71.9425V35.1793C71.6428 35.5791 71.0433 35.8781 70.5437 35.8781C69.6444 35.8781 69.0449 35.4785 69.0449 34.5791V32.1811H69.7446V34.4795C69.7446 34.9792 70.0439 35.2789 70.8433 35.2789C71.4428 35.3788 71.9426 34.8791 72.0425 34.2795V34.1799V32.0806H72.7422L72.6422 35.679Z" fill="white"/>
<path d="M79.836 32.5796C79.736 31.7801 78.937 31.2802 78.1376 31.3801C77.1384 31.2802 76.3392 31.9804 76.2392 32.9798C76.2392 33.0797 76.2392 33.279 76.2392 33.3789C76.1393 34.3783 76.8384 35.1783 77.8376 35.2782C77.9375 35.2782 78.0376 35.2782 78.0376 35.2782C78.837 35.3781 79.6365 34.7781 79.7364 33.8786H80.5356C80.3358 35.0779 79.2366 35.9774 78.0376 35.8774C76.6387 35.7775 75.5397 34.579 75.6396 33.1798C75.7395 31.8806 76.7386 30.7809 78.0376 30.7809C79.2366 30.6809 80.3357 31.4808 80.4356 32.6801H79.836V32.5796Z" fill="white"/>
<path d="M83.2336 31.981C84.3327 32.0809 85.0319 32.98 84.9319 34.0793C84.832 35.1787 83.9326 35.8784 82.8335 35.7785C81.8343 35.6786 81.0352 34.8786 81.0352 33.8792C81.0352 32.8798 81.8343 31.981 82.8335 31.981C83.0334 31.981 83.1337 31.981 83.2336 31.981ZM83.2336 32.4807C82.5342 32.4807 81.9343 33.0801 81.9343 33.7797C81.9343 34.4793 82.5342 35.0787 83.2336 35.0787C83.933 35.0787 84.5324 34.4793 84.5324 33.7797C84.5324 33.0801 84.0326 32.4807 83.3331 32.4807H83.2336Z" fill="white"/>
<path d="M91.3271 33.3797C91.427 32.98 91.1275 32.5808 90.6279 32.4809C90.528 32.4809 90.5278 32.4809 90.4279 32.4809C89.8284 32.4809 89.2291 32.7807 89.2291 33.4803V35.6791H88.5295V33.3797C88.6294 32.98 88.3295 32.5808 87.8299 32.4809C87.7299 32.4809 87.7302 32.4809 87.6303 32.4809C87.0308 32.3809 86.531 32.8806 86.4311 33.4803V33.5798V35.6791H85.7319V32.1812H86.4311V32.6809C86.7308 32.2812 87.3303 31.9811 87.8299 31.9811C88.3295 31.9811 88.8293 32.1812 89.0291 32.6809C89.3289 32.2812 89.9283 31.9811 90.4279 31.9811C91.1273 31.8812 91.7268 32.481 91.8267 33.1806V33.2802V35.6791H91.1275L91.3271 33.3797Z" fill="white"/>
<path d="M92.8257 32.0805H93.5253V32.5802C93.8251 32.1804 94.3246 31.981 94.9241 31.981C95.9233 31.981 96.8229 32.8798 96.723 33.8792C96.723 34.8786 95.9233 35.679 94.9241 35.679C94.4245 35.679 93.925 35.4785 93.5253 35.0787V36.8775H92.8257V32.0805ZM94.8241 32.5802C94.1246 32.5802 93.5253 33.1797 93.5253 33.8792C93.5253 34.5788 94.1246 35.1792 94.8241 35.1792C95.5235 35.1792 96.1233 34.5788 96.1233 33.8792C96.2233 33.1797 95.6236 32.5802 95.0241 32.5802C94.9242 32.5802 94.8241 32.5802 94.8241 32.5802Z" fill="white"/>
<path d="M101.119 35.6791H100.42V35.1794C100.12 35.5791 99.5204 35.8782 99.0208 35.8782C98.1215 35.8782 97.522 35.4786 97.522 34.5791V32.1812H98.2216V34.4796C98.2216 34.9793 98.521 35.2789 99.3203 35.2789C99.9198 35.3789 100.42 34.8788 100.52 34.3791V34.2795V32.1812H101.219L101.119 35.6791Z" fill="white"/>
<path d="M102.218 30.9814H102.917V32.0804H103.917V32.5801H102.917V34.779C102.917 35.0788 103.117 35.1791 103.517 35.1791C103.717 35.1791 103.817 35.1791 104.017 35.1791V35.7784C103.717 35.7784 103.517 35.8779 103.217 35.8779C102.518 35.8779 102.318 35.5783 102.318 35.0786V32.7802H101.519V32.2805H102.318L102.218 30.9814Z" fill="white"/>
<path d="M105.016 34.0789C105.116 34.7785 105.615 35.2788 106.315 35.1788C106.814 35.1788 107.214 34.9784 107.514 34.5786H108.214C107.914 35.2782 107.214 35.7781 106.415 35.7781C105.316 35.7781 104.516 34.9782 104.417 33.8788C104.417 32.7795 105.216 31.98 106.315 31.88H106.415C107.414 31.7801 108.313 32.5798 108.313 33.5792C108.313 33.6792 108.313 33.7789 108.313 33.8788V33.9794L105.016 34.0789ZM107.514 33.4797C107.414 32.88 106.914 32.4803 106.315 32.4803C105.715 32.4803 105.116 32.88 105.016 33.4797H107.514Z" fill="white"/>
<path d="M108.913 32.0805H109.613V32.7803C109.813 32.2806 110.312 31.981 110.811 31.981C110.911 31.981 111.112 31.981 111.212 31.981V32.7803C111.012 32.7803 110.912 32.6807 110.712 32.6807C110.112 32.6807 109.613 33.0805 109.613 33.6801C109.613 33.7801 109.613 33.7793 109.613 33.8792V35.6789H108.913V32.0805Z" fill="white"/>
<path d="M114.109 30.7812H116.607C118.106 30.7812 118.705 31.781 118.705 33.1802C118.705 34.5794 118.106 35.6787 116.607 35.6787H114.109V30.7812ZM116.507 34.9789C117.706 34.9789 117.906 33.9791 117.906 33.0797C117.906 32.1802 117.606 31.3805 116.407 31.3805H114.808V34.9789H116.507Z" fill="white"/>
<path d="M119.904 34.0789C120.004 34.7785 120.504 35.2788 121.204 35.1788C121.703 35.1788 122.103 34.9784 122.402 34.5786H123.102C122.802 35.2782 122.102 35.7781 121.303 35.7781C120.204 35.7781 119.405 34.9782 119.305 33.8788C119.305 32.7795 120.104 31.98 121.204 31.88H121.303C122.302 31.7801 123.202 32.5798 123.202 33.5792C123.202 33.6792 123.202 33.7789 123.202 33.8788V33.9794L119.904 34.0789ZM122.502 33.4797C122.402 32.88 121.903 32.4803 121.204 32.4803C120.604 32.4803 120.004 32.88 119.904 33.4797H122.502Z" fill="white"/>
<path d="M124.401 34.579C124.401 34.8788 124.701 35.2788 125.5 35.2788C126.399 35.2788 126.599 34.9794 126.599 34.6795C126.599 34.3797 126.499 34.2798 125.9 34.1798L124.8 33.9798C124.301 33.9798 123.901 33.5796 123.801 33.0799C123.801 32.2804 124.401 31.981 125.4 31.981C126.599 31.981 127.099 32.4809 127.099 33.1804H126.399C126.399 32.7807 125.999 32.4807 125.3 32.4807C124.9 32.4807 124.401 32.5806 124.401 32.9804C124.401 33.1802 124.501 33.3795 125 33.3795L126 33.4801C126.899 33.58 127.199 33.9792 127.199 34.3789C127.199 35.1785 126.499 35.5784 125.4 35.5784C124.601 35.5784 123.602 35.3783 123.602 34.3789L124.401 34.579Z" fill="white"/>
<path d="M127.897 30.6816H128.598V31.481H127.897V30.6816ZM127.897 32.0802H128.598V35.6787H127.897V32.0802Z" fill="white"/>
<path d="M132.594 32.0805H133.293V35.2788C133.293 36.578 132.694 37.0775 131.195 37.0775C130.396 37.0775 129.496 36.978 129.396 35.9786H130.096C130.196 36.4783 130.595 36.5778 131.295 36.5778C132.294 36.5778 132.594 36.0785 132.594 35.4789V34.9792C132.294 35.3789 131.795 35.6789 131.195 35.6789C130.196 35.6789 129.396 34.7791 129.396 33.7797C129.396 32.7803 130.196 31.981 131.195 31.981C131.695 31.981 132.294 32.1804 132.594 32.5802V32.0805ZM131.295 32.5802C130.595 32.5802 130.096 33.0801 129.996 33.7797V33.8792C129.996 34.5788 130.496 35.0793 131.095 35.1792C131.195 35.1792 131.195 35.1792 131.295 35.1792C131.994 35.2792 132.594 34.7789 132.594 34.0793C132.594 33.9794 132.594 33.9792 132.594 33.8792C132.594 33.1797 132.094 32.5802 131.395 32.5802C131.395 32.5802 131.395 32.5802 131.295 32.5802Z" fill="white"/>
<path d="M134.093 32.0804H134.792V32.5801C135.092 32.1804 135.692 31.8804 136.191 31.8804C137.09 31.8804 137.69 32.2809 137.69 33.1804V35.5784H136.99V33.2799C136.99 32.7802 136.69 32.4806 135.891 32.4806C135.292 32.3807 134.792 32.8804 134.692 33.48V33.5796V35.6789H133.993L134.093 32.0804Z" fill="white"/>
<path d="M140.987 30.7812H141.688V35.6787H140.987V30.7812Z" fill="white"/>
<path d="M142.686 32.0804H143.385V32.5801C143.685 32.1804 144.284 31.8804 144.784 31.8804C145.683 31.8804 146.283 32.2809 146.283 33.1804V35.5784H145.584V33.2799C145.584 32.7802 145.284 32.4806 144.484 32.4806C143.885 32.3807 143.385 32.8804 143.285 33.48V33.5796V35.6789H142.586L142.686 32.0804Z" fill="white"/>
<path d="M147.582 34.579C147.582 34.8788 147.882 35.2788 148.682 35.2788C149.581 35.2788 149.78 34.9794 149.78 34.6795C149.78 34.3797 149.681 34.2798 149.081 34.1798L147.982 33.9798C147.482 33.9798 147.083 33.5796 146.983 33.0799C146.983 32.2804 147.582 31.981 148.582 31.981C149.781 31.981 150.28 32.4809 150.28 33.1804H149.581C149.581 32.7807 149.181 32.4807 148.482 32.4807C148.082 32.4807 147.582 32.5806 147.582 32.9804C147.582 33.1802 147.682 33.3795 148.182 33.3795L149.181 33.4801C150.08 33.58 150.38 33.9792 150.38 34.3789C150.38 35.1785 149.681 35.5784 148.582 35.5784C147.782 35.5784 146.783 35.3783 146.783 34.3789L147.582 34.579Z" fill="white"/>
<path d="M151.379 30.9814H152.079V32.0804H153.078V32.5801H152.079V34.779C152.079 35.0788 152.279 35.1791 152.578 35.1791C152.778 35.1791 152.878 35.1791 153.078 35.1791V35.7784C152.778 35.7784 152.578 35.8779 152.278 35.8779C151.579 35.8779 151.379 35.5783 151.379 35.0786V32.7802H150.58V32.2805H151.379V30.9814Z" fill="white"/>
<path d="M153.577 30.6816H154.277V31.481H153.577V30.6816ZM153.577 32.0802H154.277V35.6787H153.577V32.0802Z" fill="white"/>
<path d="M155.376 30.9814H156.075V32.0804H157.075V32.5801H156.075V34.779C156.075 35.0788 156.275 35.1791 156.575 35.1791C156.775 35.1791 156.875 35.1791 157.075 35.1791V35.7784C156.775 35.7784 156.575 35.8779 156.275 35.8779C155.576 35.8779 155.376 35.5783 155.376 35.0786V32.7802H154.577V32.2805H155.376V30.9814Z" fill="white"/>
<path d="M161.171 35.6791H160.472V35.1794C160.172 35.5791 159.673 35.8782 159.073 35.8782C158.174 35.8782 157.574 35.4786 157.574 34.5791V32.1812H158.273V34.4796C158.273 34.9793 158.573 35.2789 159.373 35.2789C159.972 35.3789 160.472 34.8788 160.572 34.3791V34.2795V32.1812H161.271L161.171 35.6791Z" fill="white"/>
<path d="M162.37 30.9814H163.07V32.0804H164.069V32.5801H163.07V34.779C163.07 35.0788 163.27 35.1791 163.57 35.1791C163.77 35.1791 163.869 35.1791 164.069 35.1791V35.7784C163.77 35.7784 163.569 35.8779 163.27 35.8779C162.57 35.8779 162.37 35.5783 162.37 35.0786V32.7802H161.571V32.2805H162.37V30.9814Z" fill="white"/>
<path d="M165.068 34.0789C165.168 34.7785 165.668 35.2788 166.367 35.1788C166.867 35.1788 167.267 34.9784 167.466 34.5786H168.266C167.966 35.2782 167.267 35.7781 166.467 35.7781C165.368 35.7781 164.569 34.9782 164.469 33.8788C164.469 32.7795 165.268 31.98 166.367 31.88H166.467C167.466 31.7801 168.366 32.5798 168.366 33.5792C168.366 33.6792 168.366 33.7789 168.366 33.8788V33.9794L165.068 34.0789ZM167.666 33.4797C167.566 32.88 167.067 32.4803 166.467 32.4803C165.868 32.4803 165.368 32.88 165.168 33.4797H167.666Z" fill="white"/>
</svg>
