<svg width="231" height="38" viewBox="0 0 231 38" fill="none" xmlns="http://www.w3.org/2000/svg">
<path d="M2.39808 28.0082L4.4964 33.9046L6.5947 28.0082H8.79295V36.1033H7.0943V33.9046L7.19423 30.007L4.996 36.0034H3.79695L1.5987 30.007L1.69862 33.8047V36.0034H0V27.9082H2.39808V28.0082Z" fill="white"/>
<path d="M10.4916 33.0054C10.4916 32.4058 10.5915 31.906 10.7913 31.4063C10.9912 30.9066 11.3908 30.6068 11.7905 30.307C12.1902 30.0072 12.7897 29.9073 13.2893 30.0072C13.9888 29.9073 14.7881 30.2071 15.1878 30.8067C15.6874 31.4064 15.9872 32.1059 16.0871 32.9055V33.4052C16.187 34.2047 15.8872 35.1041 15.2877 35.7038C14.7881 36.2035 13.9888 36.5034 13.1894 36.5034C12.39 36.6033 11.6906 36.3034 11.0911 35.7038C10.6914 34.8043 10.4916 33.9049 10.4916 33.0054ZM12.0903 33.1053C12.0903 33.605 12.1902 34.1048 12.3901 34.5045C12.7897 35.0042 13.4892 35.1041 13.9888 34.7044C14.0887 34.6044 14.1886 34.6045 14.1886 34.5045C14.4884 34.1048 14.5883 33.5051 14.4884 33.0054C14.4884 32.6057 14.3884 32.1059 14.1886 31.7062C13.9888 31.4063 13.5891 31.3064 13.2893 31.2064C12.8896 31.2064 12.5899 31.4063 12.3901 31.7062C12.0903 32.1059 11.9904 32.6056 12.0903 33.1053Z" fill="white"/>
<path d="M19.2844 30.007V30.7066C19.6841 30.2069 20.2837 29.9071 20.9831 29.9071C21.4827 29.8071 21.9823 30.107 22.382 30.5067C22.6817 31.0064 22.8816 31.606 22.8816 32.2057V36.1034H21.2828V32.2057C21.2828 31.9059 21.1829 31.606 21.083 31.4062C20.8832 31.2063 20.6833 31.2063 20.3836 31.2063C19.9839 31.2063 19.5842 31.4062 19.3844 31.806V36.0035H17.7856V30.007H19.3844V30.007H19.2844Z" fill="white"/>
<path d="M27.7777 33.2057H24.6802V31.9058H27.7777V33.2057Z" fill="white"/>
<path d="M34.6724 32.8054H31.475V36.1035H29.7764V28.0083H34.9722V29.4074H31.475V31.5062H34.6724V32.8054Z" fill="white"/>
<path d="M39.768 31.5059H39.1685C38.6689 31.406 38.2692 31.7058 38.0694 32.1056V36.1032H36.4707V30.1068H37.9695V30.8063C38.2693 30.3066 38.7688 30.0068 39.3684 30.0068C39.5682 30.0068 39.6681 30.0068 39.868 30.1068V31.5059H39.768Z" fill="white"/>
<path d="M40.9673 28.4079C40.9673 28.208 41.0672 28.0082 41.1671 27.8083C41.3669 27.6084 41.5668 27.6084 41.8666 27.6084C42.0664 27.6084 42.3661 27.7084 42.566 27.8083C42.7658 27.9082 42.7658 28.1081 42.7658 28.4079C42.7658 28.6078 42.6659 28.8077 42.566 29.0076C42.3661 29.2075 42.1663 29.2074 41.8666 29.2074C41.6667 29.2074 41.3669 29.1075 41.1671 29.0076C40.9673 28.9077 40.9673 28.8077 40.9673 28.4079ZM42.7658 36.1033H41.1671V30.1069H42.7658V36.1033Z" fill="white"/>
<path d="M53.4574 32.8053C53.4574 33.7048 53.2576 34.6042 52.758 35.4038C52.2584 36.1033 51.459 36.4032 50.6597 36.3033C49.8603 36.3033 49.0609 36.0034 48.5613 35.4038C48.0617 34.7042 47.762 33.8047 47.8619 32.9052V31.3062C47.8619 30.4068 48.0617 29.5072 48.5613 28.7077C49.0609 28.0081 49.8603 27.7084 50.6597 27.8083C51.459 27.8083 52.2584 28.1081 52.758 28.7077C53.2576 29.4073 53.5574 30.3068 53.4574 31.2062V32.8053ZM51.8587 31.0064C51.8587 30.5067 51.7588 30.007 51.6589 29.5073C51.5589 29.2075 51.1593 29.0076 50.7596 29.0076C50.4598 29.0076 50.0602 29.1075 49.9602 29.5073C49.8603 29.9071 49.6605 30.4067 49.6605 30.9064V32.8053C49.6605 33.305 49.7604 33.8047 49.8603 34.3044C50.0602 34.6043 50.3599 34.8041 50.7596 34.8041C51.0593 34.8041 51.459 34.7042 51.5589 34.3044C51.7588 33.9047 51.7588 33.4049 51.7588 32.9052V31.0064H51.8587Z" fill="white"/>
<path d="M58.9526 32.8054C58.5529 33.2052 58.0533 33.405 57.4538 33.405C56.8542 33.405 56.1548 33.2052 55.7551 32.7055C55.2555 32.2057 55.0557 31.5062 55.0557 30.8066C55.0557 30.3069 55.1556 29.8072 55.3554 29.3075C55.5553 28.9078 55.955 28.508 56.3546 28.3081C56.7543 28.1082 57.2539 28.0083 57.7535 28.0083C58.2531 28.0083 58.7527 28.1082 59.1524 28.508C59.5521 28.8078 59.8518 29.2076 60.0517 29.6073C60.2515 30.107 60.4514 30.7067 60.3514 31.3063V31.9059C60.4514 33.1052 60.0517 34.2046 59.3522 35.104C58.6528 35.9036 57.5537 36.3033 56.4546 36.4033H56.1548V35.0041H56.4546C57.9534 34.7043 58.7527 34.0047 58.9526 32.8054ZM57.7535 32.2057C57.9534 32.2057 58.2531 32.1059 58.453 32.0059C58.6528 31.906 58.7527 31.7061 58.9526 31.5062V30.8066C58.9526 30.4069 58.8526 29.9072 58.6528 29.5074C58.353 29.1076 57.8534 28.9077 57.3538 29.2075C57.2539 29.3075 57.154 29.4075 57.0541 29.5074C56.5545 30.207 56.5545 31.1064 57.0541 31.806C57.154 32.1058 57.4538 32.2057 57.7535 32.2057Z" fill="white"/>
<path d="M62.3501 30.7067C62.3501 30.5069 62.45 30.307 62.5499 30.1071C62.7498 29.9072 62.9496 29.9072 63.2494 29.9072C63.4492 29.9072 63.749 30.0072 63.9488 30.1071C64.1487 30.2071 64.1487 30.4069 64.1487 30.7067C64.1487 30.9066 64.0487 31.1065 63.9488 31.3064C63.749 31.5063 63.5491 31.5063 63.2494 31.5063C63.0495 31.5063 62.7498 31.4064 62.5499 31.3064C62.45 31.1065 62.3501 30.9066 62.3501 30.7067ZM62.3501 35.304C62.3501 35.1042 62.45 34.9042 62.5499 34.7044C62.7498 34.5045 62.9496 34.5045 63.2494 34.5045C63.4492 34.5045 63.749 34.6044 63.9488 34.7044C64.1487 34.8043 64.1487 35.0042 64.1487 35.304C64.1487 35.5039 64.0487 35.7038 63.9488 35.9037C63.749 36.1035 63.5491 36.1035 63.2494 36.1035C63.0495 36.1035 62.7498 36.0036 62.5499 35.9037C62.45 35.7038 62.3501 35.5039 62.3501 35.304Z" fill="white"/>
<path d="M71.4428 32.8053C71.4428 33.7048 71.2429 34.6042 70.7433 35.4038C70.2437 36.1033 69.4444 36.4032 68.645 36.3033C67.8457 36.3033 67.0463 36.0034 66.5467 35.4038C66.0471 34.7042 65.7474 33.8047 65.8473 32.9052V31.3062C65.8473 30.4068 66.0471 29.5072 66.5467 28.7077C67.0463 28.0081 67.8457 27.7084 68.645 27.8083C69.4444 27.8083 70.2437 28.1081 70.7433 28.7077C71.2429 29.4073 71.5427 30.3068 71.4428 31.2062V32.8053ZM69.8441 31.0064C69.8441 30.5067 69.7441 30.007 69.6442 29.5073C69.5443 29.2075 69.1446 29.0076 68.7449 29.0076C68.4452 29.0076 68.0455 29.1075 67.9456 29.5073C67.8457 29.9071 67.6458 30.4067 67.6458 30.9064V32.8053C67.6458 33.305 67.7458 33.8047 67.8457 34.3044C68.0455 34.6043 68.3453 34.8041 68.7449 34.8041C69.0447 34.8041 69.4444 34.7042 69.5443 34.3044C69.7441 33.9047 69.7441 33.4049 69.7441 32.9052V31.0064H69.8441Z" fill="white"/>
<path d="M78.5375 32.8053C78.5375 33.7048 78.3377 34.6042 77.8381 35.4038C77.3385 36.1033 76.5391 36.4032 75.7397 36.3033C74.9404 36.3033 74.141 36.0034 73.6414 35.4038C73.1418 34.7042 72.8421 33.8047 72.942 32.9052V31.3062C72.942 30.4068 73.1418 29.5072 73.6414 28.7077C74.141 28.0081 74.9404 27.7084 75.7397 27.8083C76.5391 27.8083 77.3385 28.1081 77.8381 28.7077C78.3377 29.4073 78.6374 30.3068 78.5375 31.2062V32.8053ZM76.9388 31.0064C76.9388 30.5067 76.8389 30.007 76.7389 29.5073C76.639 29.2075 76.2394 29.0076 75.8397 29.0076C75.5399 29.0076 75.1402 29.1075 75.0403 29.5073C74.9404 29.9071 74.7405 30.4067 74.7405 30.9064V32.8053C74.7405 33.305 74.8405 33.8047 74.9404 34.3044C75.1402 34.6043 75.44 34.8041 75.8397 34.8041C76.1394 34.8041 76.5391 34.7042 76.639 34.3044C76.8389 33.9047 76.8389 33.4049 76.8389 32.9052V31.0064H76.9388Z" fill="white"/>
<path d="M83.4335 33.2057H80.3359V31.9058H83.4335V33.2057Z" fill="white"/>
<path d="M89.129 36.1033H87.5303V29.907L85.6318 30.5067V29.2074L88.9292 27.9082H89.129V36.1033Z" fill="white"/>
<path d="M97.5216 30.1072C97.5216 30.507 97.4217 30.8068 97.2218 31.1066C97.022 31.3065 96.7223 31.7063 96.4225 31.8062C96.8222 32.0061 97.1219 32.3059 97.3218 32.6057C97.5216 32.9055 97.7214 33.3053 97.6215 33.705C97.6215 34.3047 97.4217 35.0043 96.9221 35.404C96.3226 35.9037 95.6231 36.1037 94.8238 36.0037C94.1243 36.0037 93.325 35.8038 92.7254 35.3041C92.2258 34.9044 91.9261 34.2048 92.026 33.6051C92.026 33.2054 92.1259 32.8056 92.3258 32.5058C92.5256 32.206 92.9253 31.9061 93.225 31.7062C92.9253 31.5064 92.6255 31.3065 92.4257 31.0067C92.2258 30.7069 92.026 30.3071 92.1259 30.0073C92.1259 29.4077 92.3258 28.808 92.8254 28.4082C93.325 28.0085 94.0244 27.8086 94.6239 27.8086C95.3234 27.8086 95.9229 28.0085 96.4225 28.4082C97.2219 28.808 97.5216 29.4076 97.5216 30.1072ZM96.1227 33.705C96.1227 33.4052 96.0228 33.1054 95.823 32.9055C95.6231 32.7056 95.3234 32.6057 95.0236 32.6057C94.4241 32.6057 93.9245 33.1054 93.8246 33.705C93.8246 34.3047 94.3242 34.8044 94.9237 34.9043C95.2235 34.9043 95.5232 34.8044 95.723 34.6045C96.0228 34.3047 96.2226 34.0049 96.1227 33.705ZM95.9229 30.1072C95.9229 29.8074 95.823 29.5076 95.723 29.3077C95.5232 29.1078 95.3234 29.0079 95.0236 29.0079C94.8237 29.0079 94.524 29.1078 94.3242 29.2077C94.1243 29.4076 94.1243 29.7075 94.1243 30.0073C94.1243 30.3071 94.2242 30.6069 94.3242 30.8068C94.6239 31.2066 95.1235 31.3065 95.5232 31.0067C95.6231 31.0067 95.6231 30.9067 95.723 30.8068C95.823 30.6069 95.9229 30.407 95.9229 30.1072Z" fill="white"/>
<path d="M99.6201 30.7067C99.6201 30.5069 99.72 30.307 99.82 30.1071C100.02 29.9072 100.22 29.9072 100.519 29.9072C100.719 29.9072 101.019 30.0072 101.219 30.1071C101.419 30.2071 101.419 30.4069 101.419 30.7067C101.419 30.9066 101.319 31.1065 101.219 31.3064C101.019 31.5063 100.819 31.5063 100.519 31.5063C100.32 31.5063 100.02 31.4064 99.82 31.3064C99.6201 31.2065 99.6201 30.9066 99.6201 30.7067ZM99.6201 35.304C99.6201 35.1042 99.72 34.9042 99.82 34.7044C100.02 34.5045 100.22 34.5045 100.519 34.5045C100.719 34.5045 101.019 34.6044 101.219 34.7044C101.419 34.8043 101.419 35.0042 101.419 35.304C101.419 35.5039 101.319 35.7038 101.219 35.9037C101.019 36.1035 100.819 36.1035 100.519 36.1035C100.32 36.1035 100.02 36.0036 99.82 35.9037C99.6201 35.7038 99.6201 35.5039 99.6201 35.304Z" fill="white"/>
<path d="M108.613 32.8053C108.613 33.7048 108.413 34.6042 107.914 35.4038C107.414 36.1033 106.615 36.4032 105.815 36.3033C105.016 36.3033 104.217 36.0034 103.717 35.4038C103.218 34.7042 102.918 33.8047 103.018 32.9052V31.3062C103.018 30.4068 103.218 29.5072 103.717 28.7077C104.217 28.0081 105.016 27.7084 105.815 27.8083C106.615 27.8083 107.414 28.1081 107.914 28.7077C108.413 29.4073 108.713 30.3068 108.613 31.2062V32.8053ZM107.014 31.0064C107.014 30.5067 106.915 30.007 106.815 29.5073C106.715 29.2075 106.315 29.0076 105.915 29.0076C105.616 29.0076 105.216 29.1075 105.116 29.5073C105.016 29.9071 104.816 30.4067 104.816 30.9064V32.8053C104.816 33.305 104.916 33.8047 105.016 34.3044C105.216 34.6043 105.516 34.8041 105.915 34.8041C106.215 34.8041 106.615 34.7042 106.715 34.3044C106.915 33.9047 106.915 33.4049 106.915 32.9052V31.0064H107.014Z" fill="white"/>
<path d="M115.808 32.8053C115.808 33.7048 115.608 34.6042 115.108 35.4038C114.608 36.1033 113.809 36.4032 113.01 36.3033C112.21 36.3033 111.411 36.0034 110.911 35.4038C110.412 34.7042 110.112 33.8047 110.212 32.9052V31.3062C110.212 30.4068 110.412 29.5072 110.911 28.7077C111.411 28.0081 112.21 27.7084 113.01 27.8083C113.809 27.8083 114.608 28.1081 115.108 28.7077C115.608 29.4073 115.907 30.3068 115.808 31.2062V32.8053ZM114.209 31.0064C114.209 30.5067 114.109 30.007 114.009 29.5073C113.909 29.2075 113.509 29.0076 113.11 29.0076C112.81 29.0076 112.41 29.1075 112.31 29.5073C112.21 29.9071 112.011 30.4067 112.011 30.9064V32.8053C112.011 33.305 112.11 33.8047 112.21 34.3044C112.41 34.6043 112.71 34.8041 113.11 34.8041C113.409 34.8041 113.809 34.7042 113.909 34.3044C114.109 33.9047 114.109 33.4049 114.109 32.9052V31.0064H114.209Z" fill="white"/>
<path d="M122.402 36.3035H121.403L124.101 28.4082H125.1L122.402 36.3035Z" fill="white"/>
<path d="M134.492 30.0075V30.807C134.192 31.4066 133.793 31.9063 133.393 32.406H134.692V33.1056C134.592 33.9051 134.392 34.5048 134.192 35.0045L134.392 35.2043C134.692 35.5042 134.992 35.704 135.292 35.9039C135.691 36.1038 136.091 36.1038 136.59 36.1038H138.489C139.488 36.1038 140.387 36.1038 141.387 36.0039L141.187 36.9033H136.59C136.091 36.9033 135.491 36.8034 134.992 36.7034C134.592 36.5036 134.192 36.3037 133.893 35.9039C133.793 35.804 133.793 35.804 133.693 35.804C133.493 35.804 133.093 36.3037 132.694 37.2031L131.994 36.5036C132.494 35.6041 132.893 35.0045 133.393 34.9045C133.593 34.4048 133.793 33.9051 133.893 33.3055H132.394V32.406C132.893 31.9063 133.293 31.4066 133.693 30.807H132.294V29.9075H134.692L134.492 30.0075ZM134.492 29.0081L133.893 29.7076C133.393 29.2079 132.893 28.7082 132.294 28.2085L132.993 27.6089C133.493 28.0086 133.993 28.5084 134.492 29.0081ZM140.987 34.7046C140.987 35.3043 140.687 35.5042 139.988 35.5042H138.889L138.689 34.6047H139.788C139.988 34.6047 140.088 34.5048 140.088 34.3049V34.2049V28.6083H136.191V31.3067C136.191 32.7059 135.991 34.0051 135.491 35.3043L134.792 34.6047C135.192 33.5054 135.292 32.406 135.292 31.3067V27.8088H141.087V34.6047H140.987V34.7046ZM138.389 29.0081V29.5078H139.688V30.3073H138.389V30.9069H139.688V31.7064H138.389V32.3061H139.388V34.5048H136.391V32.3061H137.39V31.6065H136.091V30.807H137.39V30.2073H136.091V29.4078H137.39V28.9081H138.389V29.0081ZM138.689 32.8058H137.39V33.6053H138.789V32.8058H138.689Z" fill="white"/>
<path d="M147.881 37.103H146.882V32.4058C146.083 34.0049 144.684 35.4041 143.085 36.3035L142.486 35.404C143.885 34.7045 145.184 33.7051 145.983 32.3059H143.085V31.3065H146.682V29.8074H142.586V28.9079H146.682V27.5088H147.682V28.9079H151.678V29.8074H147.682V31.3065H151.279V32.2059H148.681C149.48 33.5052 150.679 34.5046 152.078 35.2042L151.379 36.1036C149.88 35.2042 148.681 33.905 147.881 32.3059V37.103Z" fill="white"/>
<path d="M154.976 34.7049C155.076 34.9049 155.176 35.1049 155.176 35.3049C155.176 35.5049 155.076 35.6049 154.976 35.9049C154.676 36.2049 154.176 36.2049 153.877 35.9049C153.577 35.6049 153.577 35.1049 153.877 34.8049C154.077 34.6049 154.276 34.6049 154.476 34.6049C154.576 34.5049 154.776 34.6049 154.976 34.7049Z" fill="white"/>
<path d="M156.874 32.6057L156.575 31.6063C157.474 30.3071 158.073 29.0079 158.473 27.5088L159.372 28.0085C159.173 28.808 158.873 29.5076 158.473 30.3071V37.3029H157.574V32.106C157.274 32.106 157.074 32.4058 156.874 32.6057ZM162.97 28.1084V29.0079H161.171C161.171 29.4077 161.071 29.8074 160.971 30.3071H162.77V31.1066C162.47 34.0049 161.371 35.9038 159.672 37.0031L159.173 36.1036C159.972 35.504 160.571 34.8044 160.971 33.9049C160.671 33.5052 160.272 33.2054 159.872 33.0055C159.672 33.3053 159.472 33.6051 159.273 33.9049L158.773 33.0055C159.672 31.8062 160.072 30.4071 160.172 29.0079H159.472V28.1084H162.97V28.1084ZM161.471 33.1054C161.671 32.5058 161.87 31.8062 161.97 31.2065H160.871C160.771 31.6063 160.671 32.0061 160.372 32.3059C160.771 32.5058 161.171 32.8056 161.471 33.1054ZM164.169 28.4082V34.8044H163.269V28.4082H164.169ZM163.669 37.0031L163.469 36.1036C163.769 36.1036 164.169 36.2036 164.468 36.2036C164.668 36.2036 164.768 36.1036 164.768 35.9037V35.8038V27.7086H165.767V36.0037C165.867 36.5034 165.468 37.0031 164.968 37.0031C164.868 37.0031 164.768 37.0031 164.768 37.0031H163.669Z" fill="white"/>
<path d="M167.765 32.6057L167.466 31.6063C168.265 30.3071 168.865 29.0079 169.164 27.5088L170.064 28.0085C169.864 28.7081 169.564 29.4076 169.364 29.9073V37.103H168.465V31.7062C168.165 32.0061 167.965 32.3059 167.765 32.6057ZM171.163 34.1048H172.961V35.0043H171.163V36.9031H170.263V27.8086H173.261V31.0067H171.163V32.0061H172.961V32.9055H171.163V34.1048ZM172.262 30.1072V28.708H171.163V30.1072H172.262ZM176.658 31.8062V32.6057C176.459 33.5052 176.159 34.3047 175.659 35.0043C176.059 35.4041 176.558 35.8038 177.158 36.1036L176.658 36.9031C176.059 36.6033 175.559 36.2036 175.06 35.8038C174.56 36.3035 173.861 36.7033 173.261 37.103L172.662 36.3035C173.261 36.0037 173.861 35.6039 174.36 35.2042C173.961 34.5046 173.661 33.7051 173.561 32.9055H173.261V32.0061H176.658V31.8062V31.8062ZM173.661 31.0067V30.1072H175.559V28.708H173.661V27.8086H176.558V31.0067H173.661V31.0067ZM175.06 34.3047C175.359 33.805 175.659 33.3053 175.759 32.7056H174.46C174.46 33.3053 174.66 33.905 175.06 34.3047Z" fill="white"/>
<path d="M186.251 37.0028H185.252V36.3032H180.655V37.0028H179.656V27.9082H186.251V37.0028ZM185.352 31.5061V28.9076H180.655V31.5061H185.352ZM185.352 35.3038V32.4055H180.655V35.3038H185.352Z" fill="white"/>
<path d="M191.047 29.1078V28.808H189.249V28.1084H191.047V27.5088H191.946V28.1084H193.745V28.808H191.946V29.1078H193.545V31.4064H191.946V31.7062H193.845V32.4058C194.145 31.8062 194.344 31.1066 194.344 30.507V28.3083C195.444 28.3083 196.543 28.1084 197.542 27.7086L198.041 28.5082C197.142 28.808 196.243 28.908 195.344 29.0079V29.8074H198.341V30.7068H197.342V33.1054H196.443V30.7068H195.344C195.444 31.6063 195.144 32.5058 194.644 33.2053L193.845 32.9055C193.845 32.8056 193.945 32.8056 193.945 32.7056H192.046V33.3053H191.147V32.6057H189.249V31.9061H191.147V31.2065H189.548V28.9079H191.247V29.1078H191.047ZM191.147 29.9073V29.6075H190.248V29.9073H191.147ZM191.147 30.407H190.248V30.7068H191.147V30.407ZM197.242 37.0031H196.343V36.6033H191.347V36.9032H190.448V33.0055H197.242V37.0031ZM196.243 34.5046V33.9049H191.247V34.5046H196.243ZM196.243 35.8038V35.2042H191.247V35.8038H196.243ZM191.846 29.9073H192.746V29.6075H191.846V29.9073ZM192.746 30.407H191.846V30.7068H192.746V30.407Z" fill="white"/>
<path d="M202.637 27.8086C202.438 28.5082 202.138 29.3077 201.838 30.0073V37.0031H200.839V31.6063C200.639 31.9061 200.239 32.3059 200.039 32.6057L199.74 31.6063C200.739 30.407 201.338 29.0079 201.838 27.5088L202.637 27.8086ZM208.932 34.0049H208.333V34.6045H206.135V36.1036C206.135 36.8032 205.835 37.0031 205.135 37.0031H204.036L203.836 36.1036H204.836C205.036 36.1036 205.135 36.0037 205.135 35.8038V35.7039V34.4046H202.937V33.805H202.238V32.0061H208.833L208.932 34.0049ZM206.035 28.3083H208.932V29.2077H202.538V28.3083H205.036C204.936 28.1084 204.836 27.9085 204.836 27.6087L205.835 27.5088C205.835 27.8086 205.935 28.0085 206.035 28.3083ZM208.133 29.6075V31.7062H203.137V29.6075H208.133ZM208.033 33.705V32.9055H203.337V33.705H208.033ZM207.134 30.407H204.036V31.0067H207.134V30.407Z" fill="white"/>
<path d="M211.331 37.0033L210.631 36.3037C211.031 35.2044 211.231 34.005 211.231 32.9057V27.9087H214.428V35.9039C214.428 36.6035 214.128 36.9033 213.529 36.9033H212.63L212.43 36.0039H213.229C213.429 36.0039 213.529 35.804 213.529 35.4042V33.6053H212.03C212.03 34.7046 211.83 35.904 211.331 37.0033ZM213.529 28.8082H212.03V30.3073H213.529V28.8082ZM212.03 32.6059H213.529V31.1068H212.03V32.6059ZM216.027 37.0033H215.128V27.9087H219.424C219.424 28.8082 219.424 29.7077 219.224 30.5072C219.024 31.0069 218.625 31.3066 218.125 31.2067H217.226L217.026 30.4072H218.125C218.225 30.4072 218.325 30.3072 218.325 30.2073C218.425 29.8075 218.525 29.4078 218.425 28.9081H216.027V31.8064H219.424V32.6059C219.224 33.5054 218.925 34.4048 218.525 35.2043C218.925 35.6041 219.424 36.0039 220.024 36.3037L219.524 37.1032C218.925 36.8034 218.425 36.4037 218.025 36.0039C217.626 36.5036 217.126 36.9033 216.527 37.1032L216.027 36.3037V37.0033V37.0033ZM216.027 36.2037C216.527 35.9039 217.026 35.5042 217.426 35.1044C216.826 34.3049 216.427 33.4054 216.127 32.506H216.027V36.2037V36.2037ZM217.925 34.3049C218.225 33.7053 218.525 33.1056 218.625 32.506H217.026C217.226 33.2056 217.526 33.8052 217.925 34.3049Z" fill="white"/>
<path d="M223.421 29.8076C223.721 29.5078 224.021 29.108 224.32 28.8082H221.623V27.9087H225.419V28.7082C225.02 29.3078 224.52 29.9075 224.021 30.4072C224.121 30.5071 224.32 30.6071 224.52 30.9069L224.32 31.1068H225.819V31.9063C225.619 32.6059 225.32 33.2055 224.92 33.7052L224.32 33.1056C224.52 32.7058 224.72 32.3061 224.92 31.8064H224.12V35.9039C224.12 36.4036 223.821 36.8034 223.321 36.8034C223.221 36.8034 223.221 36.8034 223.121 36.8034H222.222L222.022 36.0039C222.322 36.0039 222.622 36.1038 222.822 36.1038C223.021 36.1038 223.121 36.0039 223.121 35.804V35.704V32.2061C222.722 33.4054 222.222 34.5048 221.623 35.5042L221.323 34.6047C221.922 33.8052 222.422 32.8058 222.722 31.9063H221.423V31.0069H223.521C223.021 30.5072 222.522 30.0075 221.922 29.6077L222.522 29.0081C222.822 29.3079 223.121 29.5078 223.421 29.8076ZM230.216 35.804C230.116 36.5036 229.616 36.8034 228.717 36.8034H227.818L227.618 36.0039H228.617C229.017 36.0039 229.316 35.804 229.416 35.4042C229.416 35.2043 229.516 34.6047 229.516 33.6053H228.117C228.017 34.105 227.818 34.6047 227.618 35.1044C227.118 35.9039 226.319 36.5036 225.419 36.9033L224.82 36.1038C225.619 35.804 226.219 35.3043 226.718 34.6047C226.918 34.3049 227.018 33.9051 227.218 33.6053H225.719V32.7058H227.418C227.418 32.406 227.418 32.2061 227.518 31.9063H228.417L228.317 32.7058H230.415C230.316 34.5048 230.216 35.5042 230.216 35.804ZM227.618 27.6089C227.518 27.8088 227.518 28.1086 227.418 28.3085H230.415V29.2079H229.716C229.516 29.8076 229.216 30.3073 228.817 30.807C229.416 31.0069 229.916 31.3067 230.615 31.5066L230.016 32.3061C229.316 32.1062 228.717 31.8064 228.117 31.4066C227.518 31.7064 226.918 32.1062 226.319 32.3061L225.719 31.6065C226.219 31.4066 226.818 31.2067 227.318 30.9069C227.018 30.707 226.718 30.3073 226.519 30.0075L227.218 29.7076C227.418 29.9075 227.718 30.3073 228.017 30.4072C228.317 30.1074 228.617 29.7076 228.817 29.3079H227.018C226.718 29.8076 226.319 30.2073 225.919 30.6071L225.32 29.9075C226.019 29.3079 226.519 28.5084 226.818 27.6089H227.618Z" fill="white"/>
<path d="M1.59478 1.02439L5.99125 0.0249869C6.49085 -0.0749536 6.99046 0.124903 7.09038 0.624606L9.18867 5.52172C9.38851 5.92148 9.2886 6.52111 8.88892 6.82093L6.291 9.01963C7.88972 12.3177 10.5876 15.016 13.8849 16.6151L16.0832 14.0167C16.3829 13.7168 16.8825 13.5169 17.3821 13.7168L22.2782 15.8156C22.6779 16.0155 22.9776 16.5151 22.8777 16.9149L21.8785 21.3123C21.7786 21.812 21.3789 22.1118 20.8793 22.1118C9.7882 22.1118 0.795397 13.1172 0.795397 2.0238C0.695477 1.52409 1.09518 1.12433 1.59478 1.02439Z" fill="white"/>
<path d="M42.3663 13.5172C42.5661 15.8159 41.9666 18.1145 40.6676 20.0134C39.4686 21.5125 37.4702 22.4119 35.5717 22.312C33.5733 22.5119 31.6748 21.6124 30.4758 20.1133C29.1768 18.2144 28.5773 16.0157 28.6772 13.7171V9.91933C28.6772 7.02105 29.2767 4.9223 30.4758 3.42319C31.7747 1.92409 33.6732 1.02463 35.5717 1.12457C37.5701 1.02463 39.4686 1.82417 40.6676 3.32328C41.9666 5.22215 42.5661 7.4208 42.4662 9.71943V13.5172H42.3663ZM38.3695 9.41962C38.4694 8.1204 38.1696 6.82118 37.67 5.6219C37.2703 4.82237 36.3711 4.42263 35.4718 4.52258C34.5725 4.42263 33.7731 4.92231 33.2735 5.6219C32.7739 6.72124 32.4742 7.82061 32.5741 9.0199V14.0169C32.4742 15.3161 32.7739 16.6154 33.2735 17.8146C33.6732 18.6142 34.5725 19.1139 35.4718 19.1139C36.3711 19.2138 37.1704 18.7141 37.67 18.0145C38.1696 16.9152 38.4694 15.6159 38.3695 14.4166V9.41962Z" fill="white"/>
<path d="M59.6522 6.92109C59.7522 7.82055 59.4524 8.82 58.8529 9.51958C58.3533 10.2192 57.6538 10.9187 56.7546 11.3185C57.7538 11.7183 58.5531 12.4178 59.1526 13.2173C59.7522 14.1168 60.0519 15.1162 60.0519 16.2155C60.1518 17.9145 59.4524 19.5136 58.2534 20.513C55.1558 22.6118 51.0591 22.6118 47.9616 20.513C46.6627 19.4137 46.0631 17.8146 46.163 16.2155C46.163 15.1162 46.4628 14.1168 47.0623 13.2173C47.6618 12.4178 48.4612 11.7183 49.4604 11.3185C48.5611 10.9187 47.8617 10.3191 47.3621 9.51958C46.8625 8.72005 46.5627 7.82055 46.5627 6.92109C46.4628 5.32204 47.1623 3.82292 48.2614 2.72358C49.5603 1.62423 51.259 1.02461 53.0575 1.12455C54.7562 1.02461 56.4548 1.62423 57.8537 2.72358C59.1527 3.82292 59.7522 5.32204 59.6522 6.92109ZM56.0551 16.1156C56.155 15.3161 55.8553 14.5166 55.2558 13.9169C54.7562 13.4172 53.9568 13.1174 53.1574 13.1174C52.3581 13.0175 51.6586 13.3173 51.0591 13.9169C50.5595 14.5166 50.2598 15.3161 50.2598 16.1156C50.1599 16.9152 50.4596 17.7147 51.0591 18.3143C51.6586 18.914 52.458 19.2138 53.2574 19.1138C54.0567 19.2138 54.7562 18.914 55.3557 18.3143C55.8553 17.7147 56.0551 16.9152 56.0551 16.1156ZM55.7554 7.12098C55.7554 6.4214 55.5555 5.72179 55.0559 5.22209C54.0567 4.32262 52.458 4.32262 51.4588 5.22209C50.5595 6.32143 50.5595 7.92051 51.4588 9.11979C51.9584 9.61949 52.5579 9.9193 53.2574 9.9193C53.9568 10.0192 54.6562 9.71944 55.0559 9.11979C55.4556 8.52015 55.7554 7.82057 55.7554 7.12098Z" fill="white"/>
<path d="M77.9381 13.5172C78.1379 15.8159 77.5384 18.1145 76.2394 20.0134C75.0404 21.5125 73.042 22.4119 71.1435 22.312C69.1451 22.5119 67.2466 21.6124 66.0475 20.1133C64.7486 18.2144 64.1491 16.0157 64.249 13.7171V9.91933C64.249 7.02105 64.8485 4.9223 66.0475 3.42319C67.3465 1.92409 69.245 1.02463 71.1435 1.12457C73.1419 1.02463 75.0404 1.82417 76.2394 3.32328C77.5384 5.22215 78.1379 7.4208 78.038 9.71943V13.5172H77.9381ZM73.8413 9.41962C73.9412 8.1204 73.6415 6.82118 73.1419 5.6219C72.7422 4.82237 71.8429 4.42263 70.9436 4.52258C70.0444 4.42263 69.245 4.92231 68.7454 5.6219C68.2458 6.72124 67.946 7.82061 68.0459 9.0199V14.0169C67.946 15.3161 68.2458 16.6154 68.7454 17.8146C69.1451 18.6142 70.0444 19.1139 70.9436 19.1139C71.8429 19.2138 72.6423 18.7141 73.1419 18.0145C73.6415 16.9152 73.9412 15.6159 73.8413 14.4166V9.41962Z" fill="white"/>
<path d="M95.7237 13.5172C95.9235 15.8159 95.324 18.1145 94.025 20.0134C92.826 21.5125 90.8276 22.4119 88.9291 22.312C86.9307 22.5119 85.0323 21.6124 83.8332 20.1133C82.5342 18.2144 81.9347 16.0157 82.0346 13.7171V9.91933C82.0346 7.02105 82.6342 4.9223 83.8332 3.42319C85.1322 1.92409 87.0307 1.02463 88.9291 1.12457C90.9275 1.02463 92.826 1.82417 94.025 3.32328C95.324 5.22215 95.9235 7.4208 95.8236 9.71943V13.5172H95.7237ZM91.627 9.41962C91.7269 8.1204 91.4271 6.82118 90.9275 5.6219C90.5279 4.82237 89.6286 4.42263 88.7293 4.52258C87.83 4.42263 87.0306 4.92231 86.531 5.6219C86.0314 6.72124 85.7317 7.82061 85.8316 9.0199V14.0169C85.7317 15.3161 86.0314 16.6154 86.531 17.8146C86.9307 18.6142 87.83 19.1139 88.7293 19.1139C89.6286 19.2138 90.4279 18.7141 90.9275 18.0145C91.4271 16.9152 91.7269 15.6159 91.627 14.4166V9.41962Z" fill="white"/>
<path d="M107.814 14.8166H99.8203V11.5186H107.814V14.8166Z" fill="white"/>
<path d="M125.4 6.92109C125.5 7.82055 125.2 8.82 124.6 9.51958C124.101 10.3191 123.401 10.9187 122.502 11.3185C123.501 11.7183 124.301 12.4178 124.9 13.2173C125.5 14.1168 125.799 15.1162 125.799 16.2155C125.899 17.9145 125.2 19.5136 124.001 20.513C120.903 22.6118 116.807 22.6118 113.709 20.513C112.41 19.4137 111.811 17.8146 111.911 16.2155C111.911 15.1162 112.21 14.1168 112.81 13.2173C113.409 12.4178 114.209 11.7183 115.208 11.3185C114.309 10.9187 113.609 10.3191 113.11 9.51958C112.61 8.72005 112.31 7.82055 112.31 6.92109C112.21 5.32204 112.91 3.82292 114.009 2.72358C115.308 1.62423 117.007 1.02461 118.805 1.12455C120.504 1.02461 122.202 1.62423 123.601 2.72358C124.9 3.82292 125.5 5.32204 125.4 6.92109ZM121.803 16.1156C121.903 15.3161 121.603 14.5166 121.003 13.9169C120.504 13.4172 119.704 13.1174 118.905 13.1174C118.106 13.0175 117.406 13.3173 116.807 13.9169C116.307 14.5166 116.007 15.3161 116.007 16.1156C115.907 16.9152 116.207 17.7147 116.807 18.3143C117.406 18.914 118.206 19.2138 119.005 19.1138C119.804 19.2138 120.504 18.914 121.103 18.3143C121.503 17.6147 121.803 16.9152 121.803 16.1156ZM121.303 7.12098C121.303 6.4214 121.103 5.72179 120.604 5.22209C119.604 4.32262 118.006 4.32262 117.007 5.22209C116.107 6.32143 116.107 7.92051 117.007 9.11979C117.506 9.61949 118.106 9.9193 118.805 9.9193C119.505 10.0192 120.204 9.71944 120.604 9.11979C121.103 8.52015 121.403 7.82057 121.303 7.12098Z" fill="white"/>
<path d="M143.086 6.92109C143.186 7.82055 142.886 8.82 142.287 9.51958C141.787 10.3191 141.087 10.9187 140.188 11.3185C141.187 11.7183 141.987 12.4178 142.586 13.2173C143.186 14.1168 143.486 15.1162 143.486 16.2155C143.585 17.9145 142.886 19.5136 141.687 20.513C138.589 22.6118 134.493 22.6118 131.395 20.513C130.096 19.4137 129.497 17.8146 129.597 16.2155C129.597 15.1162 129.896 14.1168 130.496 13.2173C131.095 12.4178 131.895 11.7183 132.894 11.3185C131.995 10.9187 131.295 10.3191 130.796 9.51958C130.296 8.72005 129.996 7.82055 129.996 6.92109C129.896 5.32204 130.596 3.82292 131.695 2.72358C132.994 1.62423 134.693 1.02461 136.491 1.12455C138.19 1.02461 139.888 1.62423 141.287 2.72358C142.486 3.82292 143.186 5.32204 143.086 6.92109ZM139.489 16.1156C139.589 15.3161 139.289 14.5166 138.689 13.9169C138.19 13.4172 137.39 13.1174 136.591 13.1174C135.792 13.0175 135.092 13.3173 134.493 13.9169C133.394 15.1162 133.394 17.0151 134.493 18.2144C135.092 18.814 135.892 19.1139 136.691 19.0139C137.49 19.1139 138.19 18.814 138.789 18.2144C139.289 17.7147 139.489 16.9152 139.489 16.1156ZM139.089 7.12098C139.089 6.4214 138.889 5.72179 138.39 5.22209C137.39 4.32262 135.792 4.32262 134.793 5.22209C133.893 6.32143 133.893 7.92051 134.793 9.11979C135.292 9.61949 135.892 9.9193 136.591 9.9193C137.29 10.0192 137.99 9.71944 138.39 9.11979C138.889 8.52015 139.189 7.82057 139.089 7.12098Z" fill="white"/>
<path d="M148.082 11.9181L149.181 1.42432H160.672V4.82232H152.478L151.979 9.21966C152.878 8.71996 153.977 8.42015 155.076 8.42015C156.775 8.32021 158.473 8.91984 159.673 10.2191C160.872 11.6182 161.471 13.5171 161.371 15.3161C161.371 16.5154 161.171 17.7146 160.572 18.814C159.972 19.8134 159.173 20.6129 158.174 21.2125C157.075 21.8122 155.776 22.112 154.577 22.112C153.378 22.112 152.179 21.9121 151.179 21.3125C150.18 20.8128 149.281 20.1132 148.681 19.1138C148.082 18.2143 147.782 17.115 147.682 16.0157H151.679C151.679 16.8152 152.079 17.5148 152.578 18.1144C153.178 18.6141 153.877 18.814 154.677 18.814C155.476 18.814 156.275 18.4142 156.875 17.8146C157.374 17.0151 157.674 16.0156 157.674 14.9163C157.674 13.9169 157.374 12.9175 156.775 12.2179C156.175 11.6182 155.276 11.3185 154.377 11.3185C153.477 11.2185 152.678 11.5183 151.979 12.118L151.679 12.4178L148.082 11.9181Z" fill="white"/>
<path d="M173.461 14.8166H165.468V11.5186H173.461V14.8166Z" fill="white"/>
<path d="M191.747 22.0121H177.658V19.1138L184.253 12.018C185.052 11.2185 185.752 10.319 186.351 9.41954C186.751 8.8199 187.051 8.02037 187.051 7.22084C187.051 6.42132 186.851 5.72178 186.351 5.0222C185.852 4.42256 185.152 4.12269 184.453 4.22263C183.653 4.22263 182.854 4.52247 182.254 5.12212C181.655 5.8217 181.355 6.72116 181.455 7.62063H177.358C177.358 6.42134 177.658 5.22203 178.258 4.22263C178.857 3.22322 179.756 2.42373 180.756 1.82409C181.955 1.22445 183.254 0.924602 184.553 0.924602C186.351 0.824661 188.05 1.32436 189.449 2.42371C190.648 3.52306 191.247 5.12209 191.147 6.72114C191.147 7.82048 190.848 8.81993 190.348 9.81933C189.549 11.1186 188.649 12.3178 187.65 13.4172L182.954 18.3143H191.847L191.747 22.0121Z" fill="white"/>
<path d="M209.533 22.0121H195.444V19.1138L202.039 12.018C202.838 11.2185 203.537 10.319 204.137 9.41954C204.537 8.8199 204.836 8.02037 204.836 7.22084C204.836 6.42132 204.636 5.72178 204.137 5.0222C203.637 4.42256 202.938 4.12269 202.238 4.22263C201.439 4.22263 200.64 4.52247 200.04 5.12212C199.441 5.8217 199.141 6.72116 199.241 7.62063H195.144C195.144 6.42134 195.444 5.22203 196.043 4.22263C196.643 3.22322 197.542 2.42373 198.541 1.82409C199.74 1.22445 201.039 0.924602 202.338 0.924602C204.137 0.824661 205.835 1.32436 207.234 2.42371C208.433 3.52306 209.033 5.12209 208.933 6.72114C208.933 7.82048 208.633 8.81993 208.134 9.81933C207.334 11.1186 206.435 12.3178 205.436 13.4172L200.74 18.3143H209.632L209.533 22.0121Z" fill="white"/>
<path d="M228.117 22.0121H214.029V19.1138L220.623 12.018C221.423 11.2185 222.122 10.319 222.722 9.41954C223.121 8.8199 223.421 8.02037 223.421 7.22084C223.421 6.42132 223.221 5.72178 222.722 5.0222C222.222 4.42256 221.523 4.12269 220.823 4.22263C220.024 4.22263 219.224 4.52247 218.625 5.12212C218.025 5.8217 217.726 6.72116 217.826 7.62063H213.629C213.629 6.42134 213.929 5.22203 214.528 4.22263C215.128 3.22322 216.027 2.42373 217.026 1.82409C218.225 1.22445 219.524 0.924602 220.823 0.924602C222.622 0.824661 224.32 1.32436 225.719 2.42371C226.918 3.52306 227.518 5.12209 227.418 6.72114C227.418 7.82048 227.118 8.81993 226.618 9.81933C225.819 11.1186 224.92 12.3178 223.921 13.4172L219.224 18.3143H228.117V22.0121Z" fill="white"/>
</svg>
