<svg width="66" height="32" viewBox="0 0 66 32" fill="none" xmlns="http://www.w3.org/2000/svg">
<path d="M64.648 23.148C64.648 23.8471 64.369 24.5176 63.8724 25.012C63.3758 25.5063 62.7023 25.7841 62 25.7841H7.18647C6.61613 25.7841 6.069 26.01 5.6648 26.4123L1.91962 30.1408C1.57959 30.4793 1 30.2384 1 29.7586L1 4.6361C1 3.93696 1.27898 3.26646 1.77557 2.7721C2.27216 2.27773 2.94568 2 3.64796 2L62 2C62.7023 2 63.3758 2.27773 63.8724 2.7721C64.369 3.26646 64.648 3.93696 64.648 4.6361V23.148Z" fill="white" stroke="#FF9262" stroke-width="1.5" stroke-linecap="round" stroke-linejoin="round"/>
<path d="M13.301 15.996C14.687 15.59 16.059 15.072 17.305 14.4C18.481 15.072 19.783 15.59 21.169 15.996H13.301ZM14.687 19.258V17.508H19.755V19.258H14.687ZM19.447 10.914C18.859 11.53 18.131 12.062 17.305 12.566C16.493 12.062 15.751 11.516 15.163 10.914H19.447ZM21.001 9.402L20.721 9.486H16.283C16.507 9.178 16.703 8.856 16.899 8.548L15.317 8.002C14.351 9.696 12.643 11.236 10.865 12.16C11.215 12.44 11.831 13.07 12.097 13.406C12.755 12.986 13.427 12.496 14.057 11.922C14.575 12.454 15.135 12.944 15.737 13.392C14.127 14.12 12.321 14.666 10.585 14.988C10.879 15.366 11.229 16.038 11.397 16.486C11.929 16.374 12.461 16.234 12.993 16.08V21.246H14.687V20.728H19.755V21.19H21.547V16.094C21.981 16.206 22.401 16.318 22.849 16.402C23.087 15.94 23.563 15.226 23.927 14.848C22.149 14.568 20.455 14.078 18.971 13.42C20.287 12.524 21.407 11.446 22.205 10.172L21.001 9.402ZM34.4189 20H31.8789V10.209L28.8467 11.1494V9.08398L34.1465 7.18555H34.4189V20ZM46.819 19.104V16.458H52.069V19.104H46.819ZM51.257 11.026C50.571 11.922 49.675 12.72 48.639 13.392C48.023 12.804 47.057 12.048 46.245 11.46C46.427 11.32 46.595 11.18 46.777 11.026H51.257ZM53.791 14.946H49.269C51.201 13.728 52.797 12.132 53.763 10.116L52.615 9.43L52.335 9.514H48.247C48.527 9.164 48.779 8.814 49.031 8.464L47.169 8.072C46.315 9.388 44.775 10.788 42.493 11.782C42.871 12.076 43.389 12.706 43.641 13.112C44.089 12.902 44.509 12.65 44.901 12.398C45.657 12.986 46.497 13.7 47.099 14.288C45.601 15.03 43.921 15.59 42.227 15.926C42.535 16.304 42.927 17.018 43.081 17.466C43.781 17.298 44.467 17.116 45.153 16.878V21.218H46.819V20.602H52.069V21.218H53.791V14.946Z" fill="#ED6D34"/>
</svg>
