<svg width="49" height="32" viewBox="0 0 49 32" fill="none" xmlns="http://www.w3.org/2000/svg">
<path d="M47.648 23.148C47.648 23.8471 47.369 24.5176 46.8724 25.012C46.3758 25.5063 45.7023 25.7841 45 25.7841H7.18647C6.61613 25.7841 6.069 26.01 5.6648 26.4123L1.91962 30.1408C1.57959 30.4793 1 30.2384 1 29.7586L1 4.6361C1 3.93696 1.27898 3.26646 1.77557 2.7721C2.27216 2.27773 2.94568 2 3.64796 2L45 2C45.7023 2 46.3758 2.27773 46.8724 2.7721C47.369 3.26646 47.648 3.93696 47.648 4.6361V23.148Z" fill="white" stroke="#FF9262" stroke-width="1.5" stroke-linecap="round" stroke-linejoin="round"/>
<path d="M17.0537 7.07129V9.16309H16.8076C15.6592 9.18066 14.7334 9.47949 14.0303 10.0596C13.333 10.6396 12.9141 11.4453 12.7734 12.4766C13.4531 11.7852 14.3115 11.4395 15.3486 11.4395C16.4619 11.4395 17.3467 11.8379 18.0029 12.6348C18.6592 13.4316 18.9873 14.4805 18.9873 15.7812C18.9873 16.6133 18.8057 17.3662 18.4424 18.04C18.085 18.7139 17.5752 19.2383 16.9131 19.6133C16.2568 19.9883 15.5127 20.1758 14.6807 20.1758C13.333 20.1758 12.2432 19.707 11.4111 18.7695C10.585 17.832 10.1719 16.5811 10.1719 15.0166V14.1025C10.1719 12.7139 10.4326 11.4893 10.9541 10.4287C11.4814 9.3623 12.2344 8.53906 13.2129 7.95898C14.1973 7.37305 15.3369 7.07715 16.6318 7.07129H17.0537ZM14.5752 13.4785C14.165 13.4785 13.793 13.5869 13.459 13.8037C13.125 14.0146 12.8789 14.2959 12.7207 14.6475V15.4209C12.7207 16.2705 12.8877 16.9355 13.2217 17.416C13.5557 17.8906 14.0244 18.1279 14.6279 18.1279C15.1729 18.1279 15.6123 17.9141 15.9463 17.4863C16.2861 17.0527 16.4561 16.4932 16.4561 15.8076C16.4561 15.1104 16.2861 14.5479 15.9463 14.1201C15.6064 13.6924 15.1494 13.4785 14.5752 13.4785ZM28.733 19.104V16.458H33.983V19.104H28.733ZM33.171 11.026C32.485 11.922 31.589 12.72 30.553 13.392C29.937 12.804 28.971 12.048 28.159 11.46C28.341 11.32 28.509 11.18 28.691 11.026H33.171ZM35.705 14.946H31.183C33.115 13.728 34.711 12.132 35.677 10.116L34.529 9.43L34.249 9.514H30.161C30.441 9.164 30.693 8.814 30.945 8.464L29.083 8.072C28.229 9.388 26.689 10.788 24.407 11.782C24.785 12.076 25.303 12.706 25.555 13.112C26.003 12.902 26.423 12.65 26.815 12.398C27.571 12.986 28.411 13.7 29.013 14.288C27.515 15.03 25.835 15.59 24.141 15.926C24.449 16.304 24.841 17.018 24.995 17.466C25.695 17.298 26.381 17.116 27.067 16.878V21.218H28.733V20.602H33.983V21.218H35.705V14.946Z" fill="#ED6D34"/>
</svg>
