<svg width="806" height="104" viewBox="0 0 806 104" fill="none" xmlns="http://www.w3.org/2000/svg">
<path d="M301.336 31.3C300.686 33.15 299.736 35.35 298.636 37.65C296.586 36 294.036 34.45 290.936 33.15L290.536 33.55C293.386 35.8 295.436 38.25 296.936 40.85C294.936 44.4 292.486 47.95 289.886 50.7L290.286 51.15C293.436 49.55 296.336 47.5 298.936 45.3C299.036 45.7 299.186 46.1 299.286 46.55C297.686 53.1 294.386 59.8 289.586 65L289.936 65.4C294.136 63.35 297.886 60.75 300.536 58.05C300.536 63.6 300.186 68.3 298.586 70.45C298.186 71 297.736 71.15 296.886 71.15C295.036 71.15 291.486 70.9 291.486 70.9V71.5C293.286 72 294.436 72.85 295.086 73.65C295.786 74.55 296.086 76.3 296.086 78.75C299.586 78.75 302.336 77.95 303.836 75.95C306.936 71.9 307.636 65.05 307.336 58.05C307.036 52.1 306.036 46.55 302.636 41.85C304.486 39.9 306.086 37.95 307.436 36.15C308.636 36.3 309.136 35.95 309.386 35.45L301.336 31.3ZM327.836 75H325.236V55.65H335.136C335.886 55.65 336.386 55.4 336.536 54.85C334.336 52.8 330.586 49.8 330.586 49.8L327.286 54.25H325.236V38.35H335.786C336.536 38.35 337.086 38.1 337.236 37.55C334.836 35.4 330.736 32.25 330.736 32.25L327.136 36.95H308.336L308.736 38.35H317.586V54.25H308.686L309.086 55.65H317.586V75H305.736L306.136 76.4H336.886C337.586 76.4 338.186 76.15 338.336 75.6C335.836 73.35 331.586 70.05 331.586 70.05L327.836 75ZM371.486 52V56.6H365.836V52H371.486ZM377.786 35.65V39.35H360.386V35.65H377.786ZM360.386 44.05V40.75H377.786V44.05H360.386ZM390.086 58C390.836 58 391.386 57.75 391.486 57.2C389.136 55.2 385.236 52.35 385.236 52.35L381.786 56.6H378.586V52H386.136C386.836 52 387.386 51.75 387.536 51.2C385.236 49.25 381.536 46.55 381.536 46.55L378.586 50.15V47.9C379.636 47.7 379.886 47.3 379.986 46.75L371.486 46.05V50.6H365.836V47.9C366.886 47.7 367.136 47.3 367.236 46.75L360.036 46.15C360.286 46 360.386 45.85 360.386 45.7V45.45H377.786V46.45H379.036C381.286 46.45 384.986 45.35 385.036 45.05V36.8C386.086 36.6 386.686 36.1 386.986 35.7L380.386 30.8L377.286 34.25H360.786L353.286 31.4V47.85H354.286C355.886 47.85 357.536 47.4 358.736 46.9V50.6H350.086L350.486 52H358.736V56.6H346.586L346.986 58H356.836C354.136 62 349.886 65.95 344.686 68.55L345.036 69.15C349.936 67.9 354.486 66.15 358.286 63.9C358.686 64.85 358.986 65.95 358.936 66.95C362.886 69.95 367.136 63.95 361.186 61.95C362.786 60.75 364.186 59.45 365.336 58H376.236C377.236 59.95 378.386 61.75 379.736 63.3L374.936 60.55C374.586 61.95 373.686 64.6 372.836 66.6L372.186 66.55V60.65C373.236 60.5 373.736 60.15 373.836 59.4L365.436 58.7V67.05C359.386 68.85 353.836 70.35 351.236 70.95L355.036 76.95C355.586 76.75 355.986 76.25 356.186 75.55C359.986 73.1 363.036 71 365.436 69.25V72.2C365.436 72.65 365.286 72.8 364.786 72.8C364.136 72.8 361.386 72.6 361.386 72.6V73.2C363.186 73.55 363.736 74.25 364.136 74.95C364.636 75.75 364.686 77.05 364.786 78.8C371.286 78.3 372.186 76.35 372.186 72.15V68.4C375.936 71.05 378.886 74.1 380.136 75.85C385.286 78.25 389.086 69.1 375.286 66.9C377.186 66.3 379.086 65.65 380.186 65.15C380.736 65.3 381.186 65.3 381.536 65.15C383.436 66.9 385.686 68.35 388.286 69.5C389.036 66.15 390.736 63.95 393.186 63.25L393.286 62.65C388.036 62.1 381.936 60.45 378.036 58H390.086ZM432.386 42.85C432.186 48.15 431.036 53.3 429.186 57.2C428.436 56.1 427.736 54.9 427.186 53.65V41.25H445.486C446.236 41.25 446.836 41 446.986 40.45C444.286 38.25 439.886 35 439.886 35L435.936 39.85H427.186V33.85C428.586 33.65 428.936 33.15 429.036 32.45L419.836 31.55V39.85H400.786L401.186 41.25H419.836V52.1C416.486 61.6 408.736 70.9 400.086 75.6L400.436 76.2C408.036 73.85 414.886 69.75 419.836 65.2V78.8H421.236C423.986 78.8 427.186 77 427.186 76.25V55.9C429.786 65.75 434.136 72.1 441.836 76.05C442.636 72.6 444.736 70.3 447.386 69.65L447.486 69.05C440.786 67.45 434.236 63.75 429.986 58.3C432.586 56.7 434.736 54.55 436.486 51.75C437.636 53.7 438.636 55.95 439.036 58.1C444.636 62.05 449.686 52.25 437.736 49.35C438.286 48.3 438.736 47.15 439.136 45.95C440.286 45.9 440.886 45.45 441.036 44.8L432.386 42.85ZM408.686 42.9C407.836 49.9 405.286 56.4 402.186 60.7L402.736 61.1C406.286 59.2 409.286 56.55 411.736 52.9C412.036 54.05 412.236 55.25 412.236 56.4C416.736 60.5 422.586 53 413.586 49.85C414.136 48.75 414.636 47.6 415.136 46.35C416.236 46.35 416.886 45.9 417.086 45.25L408.686 42.9ZM491.886 63.05C491.086 64.35 489.786 66.2 488.386 67.75C485.786 66.55 483.536 65.05 481.886 63.05H491.886ZM464.886 47.05H471.786V51.15C469.286 51.75 466.586 52.25 464.586 52.5C464.736 51.65 464.836 50.85 464.886 50.05C466.636 50.45 468.186 51.1 468.986 51.55C472.286 51.6 472.086 45.65 464.886 48.55V47.05ZM480.336 43.25H480.436V54.45C480.436 55.4 480.436 56.2 480.536 56.85C479.786 56.55 478.786 56.3 477.536 56.25C477.536 56 477.536 55.7 477.536 55.4V48.05C478.586 47.85 479.286 47.4 479.586 47L474.536 43.25H480.336ZM469.786 37.35C469.686 38.75 469.486 40.5 469.336 41.85H464.786C466.686 41.1 467.336 38.65 462.836 37.35H469.786ZM493.186 44V44.75L492.086 45.95H486.836V44H493.186ZM486.736 38.75V36.25H495.186L492.786 38.75H486.736ZM492.086 49.3H486.836V47.35H493.886L492.086 49.3ZM493.036 52.7H486.836V50.7H494.836L493.036 52.7ZM493.736 59.95L492.486 61.65H481.436C482.136 61.1 482.536 60.35 482.586 59.55C483.686 59.9 485.336 59.95 487.786 59.95H493.736ZM492.486 63.05H500.686C501.436 63.05 501.986 62.8 502.136 62.25C501.286 61.45 500.236 60.55 499.236 59.65C501.286 59.3 501.836 58.55 501.836 57.25C501.836 56.45 501.386 56.2 499.436 55.6L499.236 54.1H498.786C497.986 55.15 497.236 55.6 496.836 55.75C496.386 55.85 495.836 55.85 495.136 55.85H488.536C486.936 55.85 486.836 55.85 486.836 54.45V54.1H498.386C499.086 54.1 499.586 53.85 499.686 53.3C498.586 52.4 497.086 51.35 496.136 50.7H497.086C497.736 50.7 498.236 50.45 498.336 49.9C497.236 49 495.786 47.95 494.936 47.35H497.136C497.786 47.35 498.286 47.1 498.386 46.55C497.736 46 496.936 45.4 496.186 44.85C497.886 44.5 499.536 43.75 499.586 43.4V40.75C500.286 40.6 500.736 40.3 500.936 40L495.786 36.25H500.136C500.836 36.25 501.386 36 501.486 35.45C499.436 33.75 496.186 31.45 496.186 31.45L493.286 34.85H486.736V33.25C487.936 33.05 488.386 32.65 488.486 32.1L480.336 31.15V38.35C479.986 38.75 479.686 39.2 479.486 39.55L485.586 41.75L486.886 40.15H493.186V42.6H486.286L480.436 40.45V41.4C478.786 40.05 476.936 38.65 476.936 38.65L474.336 41.85H471.036C472.336 41 473.686 40.1 474.636 39.3C475.686 39.35 476.286 38.85 476.436 38.25L472.486 37.35H477.386C478.086 37.35 478.586 37.1 478.686 36.55C476.936 35 474.136 32.9 474.136 32.9L471.686 35.95H468.436C471.386 35.3 472.636 31.05 464.586 31.3L464.186 31.55C464.736 32.3 465.336 33.8 465.286 35.2C465.786 35.6 466.336 35.85 466.836 35.95H456.836L457.236 37.35H460.686C460.986 38.2 461.136 39.6 460.836 40.85C461.286 41.35 461.736 41.65 462.236 41.85H455.536L455.936 43.25H473.386L471.286 45.65H465.836L459.136 43.3V49.55C459.136 53.15 458.736 57.55 455.836 60.55L456.236 61C460.786 59.35 463.036 56.8 464.086 54.1L465.586 57.45C466.086 57.3 466.536 56.9 466.736 56.25C468.786 54.9 470.436 53.65 471.786 52.55V55C471.786 55.5 471.636 55.8 471.086 55.8C470.386 55.8 468.536 55.65 468.536 55.65V56.3C469.986 56.6 470.486 57.1 470.836 57.7C471.186 58.35 471.286 59.4 471.286 60.8C473.736 60.6 475.236 60.15 476.186 59.4C476.586 60.15 476.936 60.9 477.136 61.65H455.436L455.836 63.05H471.436C467.586 66.2 461.686 69.1 454.886 70.9L455.086 71.5C459.586 71.05 463.886 70.35 467.786 69.35V69.9C467.786 70.9 467.386 71.45 464.886 72.9L469.186 79.4C469.636 79.1 470.136 78.65 470.536 78C475.936 74.4 480.236 70.9 482.386 69L482.286 68.5C479.736 69.15 477.186 69.75 474.836 70.3V67.05C477.186 66.1 479.286 65 481.036 63.7C484.086 71.4 489.636 75.4 497.236 78.15C497.936 74.75 499.636 72.45 502.336 71.7L502.386 71.1C498.986 70.75 495.486 70.15 492.236 69.15C493.986 68.85 495.686 68.5 497.036 68.05C498.186 68.3 498.686 68.05 498.936 67.55L492.486 63.05ZM540.286 31.55C541.736 33.95 543.036 37.4 543.036 40.55C548.586 45.45 555.086 34.45 540.686 31.3L540.286 31.55ZM516.536 62.45V39.65H518.586V62.45H516.536ZM538.286 51.45C536.936 51.85 535.536 52.25 534.186 52.65V44.15H538.486C538.986 44.15 539.386 44 539.586 43.7H556.686C557.386 43.7 557.936 43.45 558.036 42.9C556.036 40.8 552.436 37.65 552.436 37.65L549.236 42.3H538.936C537.586 40.7 535.936 38.9 535.936 38.9L534.186 41.9V33.55C535.436 33.35 535.936 32.85 536.036 32.1L528.036 31.35V42.75H524.486L524.886 44.15H528.036V54.4C526.436 54.8 525.086 55.15 524.036 55.45V40.3C524.786 40.1 525.386 39.8 525.636 39.45L520.636 35.6L518.136 38.25H516.736L511.336 35.95V71.3H512.186C514.536 71.3 516.536 70.05 516.536 69.4V63.85H518.586V68.1H519.486C521.386 68.1 523.986 66.95 524.036 66.55V58.95L525.486 63.05C526.136 62.85 526.636 62.25 526.836 61.6L528.036 60.7V70.55C528.036 71.1 527.836 71.3 527.136 71.3C526.236 71.3 522.486 71.05 522.486 71.05V71.75C524.486 72.2 525.336 72.85 525.986 73.9C526.586 74.95 526.786 76.55 526.886 78.75C533.386 78.1 534.186 75.6 534.186 71.15V55.7C535.936 54.2 537.336 52.9 538.386 51.9L538.286 51.45ZM537.736 47.05C539.136 53.8 540.186 61.9 539.486 68.95C545.536 75.55 550.486 60.6 538.486 46.9L537.736 47.05ZM549.286 75.4H547.936C551.386 66.9 554.386 56.2 555.886 49.4C557.136 49.3 557.636 48.75 557.836 48.1L548.736 46.2C548.536 54.5 547.936 66.65 547.186 75.4H535.636L536.036 76.8H557.086C557.786 76.8 558.336 76.55 558.486 76C556.336 73.85 552.586 70.6 552.586 70.6L549.286 75.4ZM588.786 74.7C591.336 74.7 593.336 72.75 593.336 70.3C593.336 67.9 591.336 65.85 588.786 65.85C586.236 65.85 584.286 67.9 584.286 70.3C584.286 72.75 586.236 74.7 588.786 74.7ZM588.836 35.55C586.336 35.55 584.386 37.2 584.386 40.6C584.386 43 584.836 46.85 586.836 55.85L588.086 61.85H589.586L590.836 55.85C592.836 46.9 593.286 43 593.286 40.6C593.286 37.2 591.336 35.55 588.836 35.55Z" fill="#424242"/>
<g filter="url(#filter0_d_664_1821)">
<path fill-rule="evenodd" clip-rule="evenodd" d="M82.9727 77.9918C75.5473 87.1479 64.2071 93 51.5 93C29.1325 93 11 74.8675 11 52.5C11 30.1325 29.1325 12 51.5 12C64.2071 12 75.5473 17.8521 82.9727 27.0082C90.398 17.8521 101.738 12 114.445 12C127.152 12 138.493 17.8521 145.918 27.0082C153.343 17.8521 164.684 12 177.391 12C190.098 12 201.438 17.8521 208.863 27.0082C216.289 17.8521 227.629 12 240.336 12C262.703 12 280.836 30.1325 280.836 52.5C280.836 74.8675 262.703 93 240.336 93C227.629 93 216.289 87.1479 208.863 77.9918C201.438 87.1479 190.098 93 177.391 93C164.684 93 153.343 87.1479 145.918 77.9918C138.493 87.1479 127.152 93 114.445 93C101.738 93 90.398 87.1479 82.9727 77.9918Z" fill="#ED6D34"/>
<path d="M82.9727 77.9918L83.7494 77.3619C83.5595 77.1277 83.2741 76.9918 82.9727 76.9918C82.6712 76.9918 82.3858 77.1277 82.196 77.3619L82.9727 77.9918ZM82.9727 27.0082L82.196 27.6381C82.3858 27.8723 82.6712 28.0082 82.9727 28.0082C83.2741 28.0082 83.5595 27.8723 83.7494 27.6381L82.9727 27.0082ZM145.918 27.0082L145.141 27.6381C145.331 27.8723 145.617 28.0082 145.918 28.0082C146.219 28.0082 146.505 27.8723 146.695 27.6381L145.918 27.0082ZM208.863 27.0082L208.087 27.6381C208.276 27.8723 208.562 28.0082 208.863 28.0082C209.165 28.0082 209.45 27.8723 209.64 27.6381L208.863 27.0082ZM208.863 77.9918L209.64 77.3619C209.45 77.1277 209.165 76.9918 208.863 76.9918C208.562 76.9918 208.276 77.1277 208.087 77.3619L208.863 77.9918ZM145.918 77.9918L146.695 77.3619C146.505 77.1277 146.219 76.9918 145.918 76.9918C145.617 76.9918 145.331 77.1277 145.141 77.3619L145.918 77.9918ZM51.5 94C64.5213 94 76.1423 88.0018 83.7494 78.6216L82.196 77.3619C74.9524 86.2939 63.8929 92 51.5 92V94ZM10 52.5C10 75.4198 28.5802 94 51.5 94V92C29.6848 92 12 74.3153 12 52.5H10ZM51.5 11C28.5802 11 10 29.5802 10 52.5H12C12 30.6848 29.6848 13 51.5 13V11ZM83.7494 26.3784C76.1423 16.9982 64.5213 11 51.5 11V13C63.8929 13 74.9524 18.7061 82.196 27.6381L83.7494 26.3784ZM114.445 11C101.424 11 89.803 16.9982 82.196 26.3784L83.7494 27.6381C90.993 18.7061 102.052 13 114.445 13V11ZM146.695 26.3784C139.088 16.9982 127.467 11 114.445 11V13C126.838 13 137.898 18.7061 145.141 27.6381L146.695 26.3784ZM177.391 11C164.369 11 152.748 16.9982 145.141 26.3784L146.695 27.6381C153.938 18.7061 164.998 13 177.391 13V11ZM209.64 26.3784C202.033 16.9982 190.412 11 177.391 11V13C189.784 13 200.843 18.7061 208.087 27.6381L209.64 26.3784ZM209.64 27.6381C216.884 18.7061 227.943 13 240.336 13V11C227.315 11 215.694 16.9982 208.087 26.3784L209.64 27.6381ZM240.336 13C262.151 13 279.836 30.6848 279.836 52.5H281.836C281.836 29.5802 263.256 11 240.336 11V13ZM279.836 52.5C279.836 74.3153 262.151 92 240.336 92V94C263.256 94 281.836 75.4198 281.836 52.5H279.836ZM240.336 92C227.943 92 216.884 86.2939 209.64 77.3619L208.087 78.6216C215.694 88.0018 227.315 94 240.336 94V92ZM177.391 94C190.412 94 202.033 88.0018 209.64 78.6216L208.087 77.3619C200.843 86.2939 189.784 92 177.391 92V94ZM145.141 78.6216C152.748 88.0018 164.369 94 177.391 94V92C164.998 92 153.938 86.2939 146.695 77.3619L145.141 78.6216ZM114.445 94C127.467 94 139.088 88.0018 146.695 78.6216L145.141 77.3619C137.898 86.2939 126.838 92 114.445 92V94ZM82.196 78.6216C89.803 88.0018 101.424 94 114.445 94V92C102.052 92 90.993 86.2939 83.7494 77.3619L82.196 78.6216Z" fill="white"/>
</g>
<path d="M27.6 31.0335C28.95 33.0835 30.45 36.0335 30.85 38.8835C36.9 43.2835 42.95 31.9835 27.95 30.7835L27.6 31.0335ZM23.95 42.7335C25.25 44.5335 26.65 47.2835 26.95 49.8835C32.65 53.9835 38.4 43.3335 24.3 42.4835L23.95 42.7335ZM38.45 37.7835C29.85 59.1335 29.85 59.1335 28.8 61.0835C28.25 62.1335 28.05 62.1335 27.25 62.1335H25V63.0335C26.1 63.1335 26.95 63.3835 27.65 63.8835C28.85 64.6835 29.05 69.8335 28 75.1335C28.5 77.1835 29.9 77.7835 31.15 77.7835C33.9 77.7835 35.8 75.9335 35.85 73.2835C36 68.5835 33.7 66.9335 33.6 64.0335C33.55 62.6835 33.9 60.7835 34.25 58.9835C34.8 56.0335 37.55 44.3335 39.2 37.9835L38.45 37.7835ZM49.7 46.7335C50.9 48.4335 52.25 51.0835 52.6 53.3835C57.2 56.7335 61.8 48.1835 50.15 46.4835L49.7 46.7335ZM49.25 57.7335C50.55 59.4835 51.75 62.2835 51.8 64.7335C56.45 68.5335 61.75 59.5335 49.7 57.4835L49.25 57.7335ZM45.45 66.4835C45.95 63.7835 46.45 60.2335 47 56.6835H59.7C59.45 60.9835 59.15 64.1835 58.75 66.4835H45.45ZM60.15 44.6835C60.05 48.7335 59.95 52.2835 59.8 55.2835H47.2C47.75 51.3335 48.25 47.4835 48.55 44.6835H60.15ZM71.1 56.6835C71.8 56.6835 72.3 56.4335 72.4 55.8835C70.95 53.9335 68.05 50.8835 68.05 50.8835L66.3 53.8835C66.4 51.4835 66.5 48.7835 66.55 45.8335C67.7 45.6335 68.4 45.2835 68.8 44.8335L63.05 39.7835L59.6 43.2835H50.05L45.95 41.2835C46.75 40.2835 47.5 39.2335 48.2 38.1835H69.95C70.65 38.1835 71.2 37.9335 71.35 37.3835C69.1 35.2335 65.25 32.0835 65.25 32.0835L61.85 36.7835H49.05C49.75 35.6835 50.35 34.5835 50.9 33.4835C52.2 33.6335 52.6 33.3835 52.8 32.8335L43.6 30.3335C42.55 36.7335 39.85 44.6335 36.6 49.0835L37 49.4335C38.7 48.3835 40.25 47.1835 41.75 45.8335C41.45 48.7835 41.05 52.0835 40.6 55.2835H35.7L36.1 56.6835H40.45C39.95 60.3335 39.4 63.7335 38.85 66.2335C38.25 66.5835 37.65 67.0335 37.25 67.4335L43.35 70.7835L45.6 67.8835H58.45C58.1 69.3835 57.7 70.2835 57.2 70.7335C56.75 71.1835 56.25 71.3335 55.5 71.3335C54.5 71.3335 52.45 71.2835 51.05 71.1335V71.7835C52.85 72.2335 53.85 72.8335 54.55 73.8335C55.15 74.6835 55.3 75.9335 55.25 77.7335C58.15 77.6835 60.5 77.2835 62.3 75.5335C63.7 74.1835 64.65 72.0835 65.3 67.8835H70.35C71 67.8835 71.5 67.6335 71.65 67.0835C70.2 65.2835 67.45 62.4335 67.45 62.4335L65.55 65.6835C65.8 63.2835 66.05 60.3335 66.2 56.6835H71.1ZM128.3 52.6835C128 56.1835 127.5 59.7335 126.6 63.0835C124.25 60.3835 122.4 56.9835 121.3 52.6835H128.3ZM131.05 47.9335L127.85 51.2835H119.45V35.0835H127.9C127.8 39.5835 127.65 41.7335 127.15 42.1835C126.95 42.4335 126.65 42.4835 126 42.4835C125.2 42.4835 122.95 42.3835 121.6 42.2835V42.8835C123.25 43.2835 124.35 43.7835 125.05 44.5335C125.75 45.3835 125.85 46.2835 125.85 47.8835C128.65 47.8335 130.3 47.6335 131.7 46.6835C133.6 45.3835 134 42.9335 134.1 36.0835C135.1 35.8835 135.65 35.5835 136 35.1835L130.55 30.8335L127.45 33.6835H120.15L113.05 31.0335V44.2835C111.15 42.5335 108.25 40.3335 108.25 40.3335L105.4 44.0335H103.7V37.2835H110.2C110.9 37.2835 111.4 37.0335 111.55 36.4835C109.7 34.7835 106.55 32.3335 106.55 32.3335L103.85 35.8835H103.7V32.0335C104.9 31.8335 105.25 31.3835 105.35 30.7335L97.55 30.0835V35.8835H91.1L91.5 37.2835H97.55V44.0335H89.4L89.8 45.4335H112.05C112.45 45.4335 112.8 45.3335 113.05 45.1835V62.6335C110.85 60.7835 108 58.6335 108 58.6335L104.75 62.8335H104.3V56.4335H110.8C111.5 56.4335 112 56.1835 112.15 55.6335C110.25 53.8835 107.05 51.4835 107.05 51.4835L104.25 55.0335H102.55C105 52.9835 107.3 50.5335 108.75 48.5835C109.85 48.6335 110.4 48.2335 110.6 47.6335L102.55 45.4835C102.35 48.2835 101.8 52.0835 101.05 55.0335H97.05C100.75 54.9335 102.85 48.3335 92.65 45.6835L92.2 45.8835C93.2 48.0335 94.2 51.0835 94.2 53.8335C95.05 54.6335 96 54.9835 96.85 55.0335H90.6L91 56.4335H97.55V62.8335H89.2L89.6 64.2335H97.55V77.0835H98.8C102.25 77.0835 104.25 75.9835 104.3 75.6835V64.2335H112.55C112.75 64.2335 112.9 64.2335 113.05 64.1835V77.3335H114.25C117.5 77.3335 119.45 75.8835 119.45 75.4835V52.6835H120.45C121.25 59.4335 122.65 64.4335 124.75 68.4335C123.3 71.7835 121.3 74.7835 118.6 77.2335L119 77.7835C122.2 76.1335 124.8 74.1835 126.9 71.9335C128.25 73.7835 129.85 75.3835 131.65 76.8835C132.75 73.7335 134.8 71.7335 137.45 71.2835L137.6 70.7335C135.15 69.6835 132.8 68.3835 130.65 66.8335C132.95 62.7335 134.2 58.1835 134.95 53.5835C136.05 53.4335 136.5 53.2835 136.8 52.7335L131.05 47.9335ZM159.1 31.4335C160.55 33.0335 162.05 35.7335 162.4 38.2835C168.7 42.3835 174.35 30.6835 159.4 31.1835L159.1 31.4335ZM168.95 40.1835H154.35L154.75 41.5835H175.25C175.95 41.5835 176.5 41.3335 176.6 40.7835C174.75 39.0835 171.7 36.5835 171.7 36.5835L168.95 40.1835ZM156.4 46.5835L156.8 47.9835H173.35C174.05 47.9835 174.55 47.7335 174.7 47.1835C172.9 45.4835 169.9 43.1335 169.9 43.1335L167.25 46.5835H156.4ZM183.4 35.3835H187.8V44.6335C187.8 48.4835 188.25 49.7335 192.5 49.7335H194.85C199.75 49.7335 201.85 48.3835 201.85 45.9835C201.85 44.8335 201.4 44.1835 200 43.4835L199.75 43.3835H199.3C198.9 43.4835 198.35 43.5835 198 43.6335C197.7 43.6335 197.1 43.6835 196.8 43.6835H195.8H194.8C194.25 43.6835 194.1 43.4835 194.1 42.9835V35.8335C195 35.6835 195.6 35.4335 195.9 35.0835L190.35 30.6335L187.25 33.9835H184.4L177 31.4335V37.8335C177 42.1335 176.6 47.5835 172.8 52.0335C171.35 50.7835 169.9 49.6835 169.9 49.6835L167.25 53.1335H156.4L156.8 54.5335H173.35C174.05 54.5335 174.55 54.2835 174.7 53.7335C174.4 53.4335 174.05 53.1335 173.65 52.7835C182.4 48.8335 183.4 41.9335 183.4 37.8335V35.3835ZM163.2 70.8335V61.1335H167.4V70.8335H163.2ZM168.5 75.0835C170.6 75.0835 173.6 73.7835 173.65 73.3835V61.9835C174.55 61.7835 175.15 61.4335 175.4 61.0835L169.7 56.7835L166.95 59.7335H163.4L157.05 57.2335V77.1835H157.95C160.55 77.1835 163.2 75.8335 163.2 75.2335V72.2335H167.4V75.0835H168.5ZM189.4 54.7835C188.4 58.0835 186.95 61.1835 185 63.9835C182.1 61.6835 179.8 58.7335 178.35 54.7835H189.4ZM192.9 49.7835L189.15 53.3835H175.1L175.55 54.7835H177.55C178.6 60.0335 180.25 64.0835 182.4 67.2835C178.8 71.3335 174 74.6835 168.1 77.0335L168.4 77.6335C175.35 76.2335 180.9 73.8835 185.35 70.7835C188.15 73.5835 191.65 75.5835 195.8 77.2835C196.7 73.9835 198.7 71.7835 201.55 71.1335L201.6 70.5335C197.4 69.7335 193.4 68.6335 189.85 66.9335C192.95 63.8335 195.25 60.1335 196.9 56.0335C198.1 55.9335 198.6 55.7335 198.95 55.1835L192.9 49.7835ZM226.05 30.9835C227.6 32.6835 229.15 35.4835 229.55 38.1835C236 42.4335 241.8 30.2835 226.35 30.7335L226.05 30.9835ZM237.35 40.0335H219.25L219.65 41.4335H244.75C245.45 41.4335 246 41.1835 246.1 40.6335C244 38.7335 240.5 35.9835 240.5 35.9835L237.35 40.0335ZM221.85 46.5335L222.25 47.9335H242.1C242.8 47.9335 243.3 47.6835 243.45 47.1335C241.4 45.2335 237.9 42.5335 237.9 42.5335L234.8 46.5335H221.85ZM234.8 53.0835H221.85L222.25 54.4835H242.1C242.8 54.4835 243.3 54.2335 243.45 53.6835C241.4 51.7835 237.9 49.0835 237.9 49.0835L234.8 53.0835ZM229.15 70.7835V61.3835H235.55V70.7835H229.15ZM235.05 59.9835H229.35L222.8 57.4335V77.0335H223.7C226.35 77.0335 229.15 75.6335 229.15 75.0335V72.1835H235.55V75.1335H236.65C238.85 75.1335 242 73.8335 242.05 73.4335V62.3835C243.05 62.1835 243.65 61.7335 243.95 61.3835L237.95 56.8335L235.05 59.9835ZM258.35 48.9335H257.65V32.8335C259.05 32.6335 259.4 32.0835 259.5 31.3835L250.55 30.5335V48.9335H242.8L243.2 50.3335H250.55V77.5335H251.9C254.6 77.5335 257.65 75.7835 257.65 75.0835V50.3335H266.05C266.75 50.3335 267.3 50.0835 267.45 49.5335C265.3 47.5335 261.6 44.5335 261.6 44.5335L258.35 48.9335Z" fill="white"/>
<defs>
<filter id="filter0_d_664_1821" x="0" y="1" width="291.836" height="103" filterUnits="userSpaceOnUse" color-interpolation-filters="sRGB">
<feFlood flood-opacity="0" result="BackgroundImageFix"/>
<feColorMatrix in="SourceAlpha" type="matrix" values="0 0 0 0 0 0 0 0 0 0 0 0 0 0 0 0 0 0 127 0" result="hardAlpha"/>
<feOffset/>
<feGaussianBlur stdDeviation="5"/>
<feComposite in2="hardAlpha" operator="out"/>
<feColorMatrix type="matrix" values="0 0 0 0 0 0 0 0 0 0 0 0 0 0 0 0 0 0 0.3 0"/>
<feBlend mode="normal" in2="BackgroundImageFix" result="effect1_dropShadow_664_1821"/>
<feBlend mode="normal" in="SourceGraphic" in2="effect1_dropShadow_664_1821" result="shape"/>
</filter>
</defs>
</svg>
