<svg width="800" height="104" viewBox="0 0 800 104" fill="none" xmlns="http://www.w3.org/2000/svg">
<path d="M18.45 62.3C17.2 61.8 15.8 61.3 14.25 60.85C15.2 57.55 16.2 53.5 17.15 49.5C18.55 49.2 19.85 48.9 21.1 48.55C20.8 53.25 20 57.9 18.45 62.3ZM28.25 43.45C29.45 43.35 30.05 42.9 30.2 42.1L21.25 40.6C21.3 42.2 21.3 43.8 21.25 45.4H18.05C19 40.95 19.8 36.85 20.3 34.1C21.9 33.85 22.15 33.3 22.3 32.7L13.6 31.7C13.35 34.6 12.5 39.9 11.45 45.4C9 45.4 6.95 45.35 5.6 45.3L7.25 52.45C7.9 52.4 8.5 52 8.9 51.35L10.3 51.05C9.55 54.6 8.75 57.95 8.05 60.3C10.9 61.95 13.9 64.2 16.55 66.7C14.3 71 11.15 74.95 6.6 78.2L7.05 78.65C12.6 76.4 16.65 73.4 19.65 69.95C20.95 71.4 22.05 72.9 22.85 74.4C27.5 77.45 34.75 71.1 23.3 64.6C26.15 59.3 27.4 53.25 28 46.8C29.05 46.55 30 46.25 30.9 46V45.3L28.1 45.35L28.25 43.45ZM38.1 68.4V40.6H44.25V68.4H38.1ZM47.1 35.55L43.75 39.2H38.3L31.1 36.25V76.05H32.2C35.35 76.05 38.1 74.4 38.1 73.55V69.8H44.25V74.5H45.45C48.2 74.5 51.5 72.65 51.6 72.1V41.75C52.6 41.5 53.2 41.1 53.55 40.65L47.1 35.55ZM69.95 31.2C68.2 40.95 64.25 51 60.3 57.4L60.85 57.75C62.95 56.25 64.95 54.55 66.8 52.65V78.75H68.15C71 78.75 73.95 77.25 74.05 76.7V48.1C75.05 47.9 75.45 47.6 75.6 47.1L72.15 45.85C74.15 42.7 75.95 39.1 77.5 35.1C78.65 35.15 79.3 34.7 79.55 34.05L69.95 31.2ZM83.65 60.65V47.7H87V60.65H83.65ZM88.1 65.65C90.35 65.65 93.5 64.3 93.55 63.9V48.9C94.7 48.65 95.4 48.15 95.7 47.75L89.5 42.95L86.45 46.3H83.85L77.25 43.7V66.6H78.2C80.9 66.6 83.65 65.15 83.65 64.55V62.05H87V65.65H88.1ZM98.3 38.2H76.45L76.85 39.6H96.75V69.8C96.75 70.35 96.45 70.75 95.65 70.75C94.25 70.75 87.75 70.4 87.75 70.4V71C91 71.55 92.2 72.35 93.15 73.45C94.15 74.55 94.55 76.3 94.65 78.75C102.9 78.2 104.15 74.8 104.15 70.05V39.6H107.85C108.6 39.6 109.15 39.35 109.3 38.8C106.75 36.4 102.25 32.7 102.25 32.7L98.3 38.2ZM147.8 43.9C149.15 43.9 150.35 43.9 151.45 43.9L149.4 46H131L124.65 43.6C126.3 43.85 128.6 43.9 131.8 43.9H147.8ZM130.6 50.6V47.4H149.8V50.6H130.6ZM120.6 37.6V39.2C120.65 41.8 121.3 43 124.1 43.5V53.75H124.95C127.4 53.75 130.1 52.6 130.55 52H149.8V53.2H151C153.05 53.2 156.4 52.1 156.45 51.7V48.05C157.15 47.9 157.6 47.55 157.8 47.3L153 43.85C159.1 43.65 159.85 43.05 159.85 41.45C159.85 40.65 159.15 40.5 156.25 39.9L156.05 39.85H155.65C154.05 40.2 152.5 40.25 151.8 40.25C151.05 40.25 149.65 40.3 148.25 40.3H131.35C127.3 40.3 127.1 40.25 127.1 38.8V37.6H161.6C162.35 37.6 162.9 37.35 163 36.8C160.75 34.85 157 32.15 157 32.15L153.75 36.2H141.75C144.55 34.35 144.4 29.6 135.05 31.5L134.8 31.75C135.75 32.6 136.8 34.4 136.9 36.15L137 36.2H117.15L117.55 37.6H120.6ZM139.75 72.1C140.6 73.05 141.45 74.75 141.6 76.2C144.85 78.6 148.4 72.65 140.25 71.8L139.75 72.1ZM154.15 56.75V66.75C153.85 66.15 153.35 65.55 152.6 64.9C152.9 62.45 153 59.75 153.05 56.75H154.15ZM138.2 69V65.75H140.95V69H138.2ZM140.95 61.2V64.35H138.2V61.2H140.95ZM140.95 56.85V59.8H138.2V56.85H140.95ZM124.5 61.8C125 62.25 125.4 62.7 125.65 63.05C126.2 63.3 126.75 63.3 127.2 63.15V65.55C126.2 65.75 125.2 65.95 124.35 66.05C124.45 64.75 124.5 63.5 124.5 62.35V61.8ZM127.2 56.9V59.5C126.55 59.3 125.65 59.25 124.5 59.4V56.9H127.2ZM162.2 68.85H161.7C161.25 70.25 160.7 71.8 160.4 72.2C160.2 72.45 159.95 72.5 159.75 72.5H159.35H159.05C158.75 72.5 158.65 72.35 158.65 71.8V57.3C159.6 57.15 160.1 56.9 160.45 56.55L156 52.8L153.65 55.35H146.7L147.05 56.4L142.75 53.1L140.5 55.45H138.4L133.55 53.45V56.6L128.85 53.1L126.75 55.5H125.3L119.75 53.4V62.4C119.75 67.6 119.55 73.5 116.15 78.2L116.65 78.7C121.4 75.85 123.3 71.8 124.05 67.95L125.25 70.9C125.75 70.75 126.2 70.35 126.4 69.7C126.7 69.4 126.95 69.15 127.2 68.85V71.9C127.2 72.5 127.05 72.75 126.45 72.75C125.75 72.75 123.2 72.6 123.2 72.6V73.3C124.65 73.6 125.35 74.1 125.8 74.85C126.25 75.6 126.4 76.85 126.45 78.35C131.35 77.9 132 75.95 132 72.45V57.5C132.75 57.3 133.3 57 133.55 56.7V72.3H134.25C134.5 72.3 134.75 72.3 135 72.25C134.35 74.1 133.15 76.45 131.65 77.85L132.2 78.5C134.75 77.75 137.15 76.35 138.65 74.8C139.8 75 140.2 74.75 140.5 74.25L136.2 72C137.35 71.65 138.2 71.1 138.2 70.8V70.4H140.95V71.65H141.75C143.3 71.65 145.65 70.7 145.7 70.35V57.45C146.35 57.3 146.85 57 147.15 56.75H148.6C148.6 58.9 148.6 60.9 148.55 62.75C148 62.55 147.35 62.35 146.7 62.2L146.15 62.6C146.9 63.25 147.7 64.05 148.45 64.95C148.15 70.1 147.25 74.2 144.15 77.6L144.8 78.3C148.5 76.05 150.5 73.25 151.65 69.8V69.85C152.7 70.45 153.65 70.3 154.15 69.65V73.45C154.15 76.3 154.5 77.35 157.45 77.35H158.85C162.25 77.35 163.8 76 163.8 74.3C163.8 73.35 163.5 72.8 162.4 72.3L162.2 68.85ZM180.2 31.2C178.4 35.1 174.45 41.5 170.8 45.65L171.2 46.1C176.9 43.6 182.9 39.55 186.5 36.35C187.75 36.45 188.2 36.15 188.4 35.65L180.2 31.2ZM180.8 41.15C179.1 46.55 175.05 55 170.6 60.5L171 60.95C173.2 59.7 175.3 58.25 177.25 56.7V78.8H178.55C181.45 78.8 184.2 77.15 184.25 76.6V52.8C185.2 52.6 185.65 52.25 185.8 51.8L183.45 50.9C184.9 49.35 186.2 47.8 187.3 46.35C188.55 46.45 189 46.1 189.25 45.6L180.8 41.15ZM190.55 63.45C191.95 65.3 193.5 68.15 193.95 70.85C199.9 74.9 205.5 63.8 190.9 63.2L190.55 63.45ZM197.05 48.3V43H206.25V48.3H197.05ZM206.25 36.35V41.6H197.05V36.35H206.25ZM210.65 60.95V55.8H215.85C216.6 55.8 217.15 55.55 217.3 55C215.75 53.6 213.5 51.75 212.2 50.65C213 50.4 213.4 50.1 213.4 50V36.8C214.55 36.6 215 36.3 215.3 35.85L209.3 31.3L206.05 34.95H197.55L190.25 32.25V52.45H191.5C195 52.45 197.05 51.35 197.05 50.95V49.7H206.25V51.4H207.5C208.5 51.4 209.35 51.3 210.1 51.2L207.75 54.4H188.25L188.65 55.8H203.3V61.15H185.85L186.25 62.55H203.3V71.05C203.3 71.55 203.1 71.9 202.4 71.9C201.45 71.9 197.5 71.65 197.5 71.65V72.2C199.85 72.65 200.65 73.4 201.25 74.3C201.9 75.25 202.05 76.75 202.15 78.85C209.6 78.35 210.65 75.65 210.65 71.2V62.55H217.7C218.45 62.55 218.95 62.3 219.1 61.75C217.1 59.75 213.6 56.85 213.6 56.85L210.65 60.95Z" fill="#424242"/>
<g filter="url(#filter0_d_664_1820)">
<path fill-rule="evenodd" clip-rule="evenodd" d="M300.722 76.4505C293.323 86.1516 281.643 92.4117 268.5 92.4117C246.132 92.4117 228 74.2792 228 51.9117C228 29.5441 246.132 11.4117 268.5 11.4117C281.643 11.4117 293.323 17.6718 300.722 27.3728C308.121 17.6718 319.802 11.4117 332.944 11.4117C346.087 11.4117 357.767 17.6715 365.166 27.3722C372.565 17.6715 384.245 11.4117 397.388 11.4117C410.53 11.4117 422.211 17.6718 429.61 27.3728C437.009 17.6718 448.689 11.4117 461.832 11.4117C474.974 11.4117 486.655 17.6715 494.054 27.3722C501.453 17.6715 513.133 11.4117 526.275 11.4117C539.418 11.4117 551.098 17.6718 558.498 27.3728C565.897 17.6718 577.577 11.4117 590.72 11.4117C613.087 11.4117 631.22 29.5441 631.22 51.9117C631.22 74.2792 613.087 92.4117 590.72 92.4117C577.577 92.4117 565.897 86.1516 558.498 76.4505C551.098 86.1516 539.418 92.4117 526.275 92.4117C513.133 92.4117 501.453 86.1519 494.054 76.4512C486.655 86.1519 474.974 92.4117 461.832 92.4117C448.689 92.4117 437.009 86.1516 429.61 76.4505C422.211 86.1516 410.53 92.4117 397.388 92.4117C384.245 92.4117 372.565 86.1519 365.166 76.4512C357.767 86.1519 346.087 92.4117 332.944 92.4117C319.802 92.4117 308.121 86.1516 300.722 76.4505Z" fill="#ED6D34"/>
<path d="M300.722 76.4505L301.517 75.8441C301.328 75.5961 301.034 75.4505 300.722 75.4505C300.41 75.4505 300.116 75.5961 299.927 75.8441L300.722 76.4505ZM300.722 27.3728L299.927 27.9793C300.116 28.2273 300.41 28.3728 300.722 28.3728C301.034 28.3728 301.328 28.2273 301.517 27.9793L300.722 27.3728ZM365.166 27.3722L364.371 27.9786C364.56 28.2266 364.854 28.3722 365.166 28.3722C365.478 28.3722 365.772 28.2266 365.961 27.9786L365.166 27.3722ZM429.61 27.3728L428.815 27.9793C429.004 28.2273 429.298 28.3728 429.61 28.3728C429.922 28.3728 430.216 28.2273 430.405 27.9793L429.61 27.3728ZM494.054 27.3722L493.259 27.9787C493.448 28.2266 493.742 28.3722 494.054 28.3722C494.366 28.3722 494.66 28.2266 494.849 27.9787L494.054 27.3722ZM558.498 27.3728L557.702 27.9793C557.892 28.2273 558.186 28.3728 558.498 28.3728C558.809 28.3728 559.104 28.2273 559.293 27.9793L558.498 27.3728ZM558.498 76.4505L559.293 75.8441C559.104 75.5961 558.809 75.4505 558.498 75.4505C558.186 75.4505 557.892 75.5961 557.702 75.8441L558.498 76.4505ZM494.054 76.4512L494.849 75.8447C494.66 75.5967 494.366 75.4512 494.054 75.4512C493.742 75.4512 493.448 75.5967 493.259 75.8447L494.054 76.4512ZM429.61 76.4505L430.405 75.8441C430.216 75.5961 429.922 75.4505 429.61 75.4505C429.298 75.4505 429.004 75.5961 428.815 75.8441L429.61 76.4505ZM365.166 76.4512L365.961 75.8447C365.772 75.5967 365.478 75.4512 365.166 75.4512C364.854 75.4512 364.56 75.5967 364.371 75.8447L365.166 76.4512ZM268.5 93.4117C281.968 93.4117 293.937 86.9954 301.517 77.057L299.927 75.8441C292.709 85.3078 281.317 91.4117 268.5 91.4117V93.4117ZM227 51.9117C227 74.8315 245.58 93.4117 268.5 93.4117V91.4117C246.685 91.4117 229 73.7269 229 51.9117H227ZM268.5 10.4117C245.58 10.4117 227 28.9919 227 51.9117H229C229 30.0964 246.685 12.4117 268.5 12.4117V10.4117ZM301.517 26.7664C293.937 16.828 281.968 10.4117 268.5 10.4117V12.4117C281.317 12.4117 292.709 18.5156 299.927 27.9793L301.517 26.7664ZM332.944 10.4117C319.477 10.4117 307.507 16.828 299.927 26.7664L301.517 27.9793C308.735 18.5156 320.127 12.4117 332.944 12.4117V10.4117ZM365.961 26.7657C358.381 16.8277 346.412 10.4117 332.944 10.4117V12.4117C345.762 12.4117 357.153 18.5153 364.371 27.9786L365.961 26.7657ZM397.388 10.4117C383.92 10.4117 371.951 16.8277 364.371 26.7657L365.961 27.9786C373.179 18.5153 384.571 12.4117 397.388 12.4117V10.4117ZM430.405 26.7664C422.825 16.828 410.855 10.4117 397.388 10.4117V12.4117C410.205 12.4117 421.597 18.5156 428.815 27.9793L430.405 26.7664ZM461.832 10.4117C448.364 10.4117 436.395 16.828 428.815 26.7664L430.405 27.9793C437.623 18.5156 449.015 12.4117 461.832 12.4117V10.4117ZM494.849 26.7657C487.269 16.8277 475.299 10.4117 461.832 10.4117V12.4117C474.649 12.4117 486.04 18.5153 493.259 27.9787L494.849 26.7657ZM526.275 10.4117C512.808 10.4117 500.839 16.8277 493.259 26.7657L494.849 27.9787C502.067 18.5153 513.458 12.4117 526.275 12.4117V10.4117ZM559.293 26.7664C551.712 16.828 539.743 10.4117 526.275 10.4117V12.4117C539.093 12.4117 550.484 18.5156 557.702 27.9793L559.293 26.7664ZM559.293 27.9793C566.511 18.5156 577.902 12.4117 590.72 12.4117V10.4117C577.252 10.4117 565.283 16.828 557.702 26.7664L559.293 27.9793ZM590.72 12.4117C612.535 12.4117 630.22 30.0964 630.22 51.9117H632.22C632.22 28.9919 613.64 10.4117 590.72 10.4117V12.4117ZM630.22 51.9117C630.22 73.7269 612.535 91.4117 590.72 91.4117V93.4117C613.64 93.4117 632.22 74.8315 632.22 51.9117H630.22ZM590.72 91.4117C577.902 91.4117 566.511 85.3078 559.293 75.8441L557.702 77.057C565.283 86.9954 577.252 93.4117 590.72 93.4117V91.4117ZM526.275 93.4117C539.743 93.4117 551.712 86.9954 559.293 77.057L557.702 75.8441C550.484 85.3078 539.093 91.4117 526.275 91.4117V93.4117ZM493.259 77.0576C500.839 86.9956 512.808 93.4117 526.275 93.4117V91.4117C513.458 91.4117 502.067 85.3081 494.849 75.8447L493.259 77.0576ZM461.832 93.4117C475.299 93.4117 487.269 86.9956 494.849 77.0576L493.259 75.8447C486.04 85.3081 474.649 91.4117 461.832 91.4117V93.4117ZM428.815 77.057C436.395 86.9954 448.364 93.4117 461.832 93.4117V91.4117C449.015 91.4117 437.623 85.3078 430.405 75.8441L428.815 77.057ZM397.388 93.4117C410.855 93.4117 422.825 86.9954 430.405 77.057L428.815 75.8441C421.597 85.3078 410.205 91.4117 397.388 91.4117V93.4117ZM364.371 77.0577C371.951 86.9956 383.92 93.4117 397.388 93.4117V91.4117C384.571 91.4117 373.179 85.3081 365.961 75.8447L364.371 77.0577ZM332.944 93.4117C346.412 93.4117 358.381 86.9956 365.961 77.0577L364.371 75.8447C357.153 85.3081 345.762 91.4117 332.944 91.4117V93.4117ZM299.927 77.057C307.507 86.9954 319.477 93.4117 332.944 93.4117V91.4117C320.127 91.4117 308.735 85.3078 301.517 75.8441L299.927 77.057Z" fill="white"/>
</g>
<path d="M266.95 57.6C260.95 58.65 254.95 59.55 252.3 59.8L255.15 65.55C255.7 65.4 256.15 64.95 256.4 64.35C261.3 61.75 264.8 59.65 267.05 58.2L266.95 57.6ZM258.3 53.45V47.3H261.35V53.45H258.3ZM275.55 44C274.85 47.1 273.8 49.95 272.55 52.6C271.75 49.45 271.35 45.9 271.2 42.3H280.3C281 42.3 281.5 42.05 281.65 41.5C280.9 40.75 279.85 39.9 279 39.2C280.5 37.8 279.95 34.5 273.3 34.2L272.85 34.55C274.05 35.65 275.45 37.6 275.95 39.3L276.15 39.4L275.05 40.85H271.1C271.05 39.45 271.05 38 271.05 36.6C272.2 36.5 272.65 35.95 272.8 35.35L266.15 34.2C266.2 36.45 266.25 38.7 266.35 40.85H252.5L252.9 42.3H266.45C266.55 43.85 266.65 45.4 266.85 46.9L262.9 43.95L261 45.9H258.5L254.3 44.15V57.3H254.9C256.5 57.3 258.3 56.35 258.3 56.05V54.85H261.35V56.4H262C263.45 56.4 265.4 55.4 265.45 55.05V47.65C266.1 47.55 266.65 47.25 266.85 47C267.35 50.95 268.15 54.65 269.45 58C266.55 62.2 263 65.5 259.15 67.9L259.6 68.5C263.95 66.8 267.8 64.55 271.05 61.4C272 63.1 273.1 64.65 274.4 66.05C276 67.75 279.25 69.4 281 67.6C281.7 66.85 281.45 65.65 280.1 63.4L280.9 56.55L280.35 56.45C279.75 58.2 278.9 60.35 278.3 61.4C277.9 62.15 277.65 62.2 277.1 61.55C276 60.45 275.15 59.1 274.4 57.65C276.55 54.8 278.35 51.45 279.8 47.45C280.95 47.6 281.6 47.25 281.85 46.65L275.55 44ZM251.35 70.1V33.4H282.55V70.1H251.35ZM284.75 28.95L282.05 31.95H251.8L245.95 29.5V75.45H246.85C249.15 75.45 251.35 74.1 251.35 73.4V71.55H282.55V75.15H283.4C285.5 75.15 288 73.8 288.1 73.35V34.35C289.1 34.1 289.8 33.7 290.15 33.25L284.75 28.95ZM315.75 60.5V33.5H319.7C319.1 37.5 318 43.4 317.1 46.7C319.45 50.05 320.3 53.85 320.3 57.35C320.3 58.95 319.9 59.85 319.3 60.25C319 60.45 318.7 60.5 318.2 60.5H315.75ZM322.2 29.25L319.3 32.1H316.4L310.5 29.85V75.45H311.4C314.1 75.45 315.75 74.15 315.75 73.75V61.2C316.7 61.45 317.4 61.9 317.75 62.4C318.15 63.05 318.3 65.15 318.3 66.7C323.7 66.6 325.45 63.8 325.4 58.85C325.4 54.75 323.25 49.95 318.35 46.55C320.8 43.4 323.75 38.1 325.45 35C326.6 34.95 327.25 34.8 327.65 34.35L322.2 29.25ZM325 73.35C328.85 71.15 332.9 67.4 334.8 64.45C335.7 64.55 336.2 64.45 336.45 64L330.15 61.05C329.25 64.5 327 69.5 324.6 72.75L325 73.35ZM343.65 62.3C345.9 64.7 348.55 68.5 349.3 71.8C354.45 75.25 358.35 65 344.1 61.95L343.65 62.3ZM346.25 58.15H326.35L326.75 59.6H336.95V75.45H337.9C340.7 75.45 342.35 74.55 342.4 74.3V59.6H353C353.7 59.6 354.25 59.35 354.35 58.8C352.4 56.9 349.1 54.35 349.1 54.35L346.25 58.15ZM341.2 50.7H331.55L331.95 52.1H347.2C347.9 52.1 348.45 51.85 348.55 51.3C346.8 49.6 343.85 47.15 343.85 47.15L341.2 50.7ZM336 35.75C335.65 37.15 335.25 38.5 334.8 39.85C334.25 38.95 332.95 38.1 330.55 37.7C331 37.05 331.45 36.4 331.85 35.75H336ZM350.45 30.85L347.8 33.55H341.95L342.4 35H348C347.45 37 346.6 39.5 345.75 41.4C344.35 39.9 343.2 38 342.45 35.85C342.55 35.8 342.6 35.7 342.7 35.6L338.3 31.85L335.75 34.3H332.7C333.35 33.2 333.9 32.1 334.35 31C335.55 31.2 335.95 31 336.2 30.5L329.75 28.6C328.8 33.9 326.35 40.15 323.2 43.75L323.8 44.15C326.1 42.7 328.15 40.8 329.85 38.65C330.7 39.6 331.5 41 331.75 42.15C332.4 42.6 333.05 42.75 333.65 42.65C331.6 47.05 328.6 51 324.45 53.9L324.9 54.55C333.65 50.55 338.45 43.7 340.75 36.3C341.1 36.25 341.4 36.25 341.65 36.15C343.15 44.05 346.35 49.05 351.7 52.6C352.35 50.15 353.7 48.55 355.6 48.1L355.65 47.55C352.2 46.4 348.95 44.65 346.45 42.15C348.85 40.5 351.65 37.95 353.25 35.95C354.3 35.9 354.8 35.8 355.2 35.35L350.45 30.85ZM331.6 42.9C329.1 43.85 326.25 44.75 324.45 45.05L326.85 48.95C327.3 48.8 327.65 48.35 327.8 47.75C329.55 46.1 330.95 44.6 331.8 43.55L331.6 42.9ZM387.1 75.6C393.45 74.5 401 71.5 404.7 68.55C405.55 68.8 406.05 68.7 406.3 68.3L399.85 64.3C397.3 67.85 391.7 72.5 386.75 74.95L387.1 75.6ZM405.5 65.35C408.7 67.65 412.7 71.55 414.5 74.9C420.85 77.6 423.3 65.6 405.9 64.95L405.5 65.35ZM411.15 41.25V46.9H399.7V41.25H411.15ZM399.7 61.45V55.5H411.15V61.45H399.7ZM399.7 48.35H411.15V54.1H399.7V48.35ZM411.75 32.85H391.45C389.85 31.45 388.45 30.3 388.45 30.3L385.25 34.7H373.5L373.9 36.15H380.7V66.65C380.7 67.25 380.45 67.6 379.65 67.6C378.6 67.6 374 67.3 374 67.3V67.95C376.5 68.35 377.5 69.05 378.2 69.95C378.8 70.9 379.05 72.35 379.1 74.3C385.7 73.75 386.7 70.85 386.7 66.85V36.15H392.85C393.6 36.15 394.1 35.9 394.25 35.35C393.9 35 393.5 34.65 393.1 34.3H402.55C402.5 36.15 402.35 38.3 402.2 39.8H399.95L393.95 37.4V66H394.8C397.3 66 399.7 64.65 399.7 64.1V62.9H411.15V65.15H412.15C414.15 65.15 416.95 64 417 63.6V41.95C417.85 41.8 418.45 41.45 418.7 41.1L413.35 37L410.7 39.8H403.75C405.4 38.35 407.3 36.25 408.9 34.3H419.35C420.05 34.3 420.6 34.05 420.75 33.5C418.55 31.55 414.95 28.8 414.95 28.8L411.75 32.85ZM468.6 34.45C473 37.7 477.75 43.25 479.35 48.25C485.9 52.3 489.55 38.3 469.05 34.05L468.6 34.45ZM465.15 30.7C466.55 30.5 466.9 30 467 29.35L459.1 28.6V50.05H460.15C462.55 50.05 465.15 49.05 465.15 48.6V30.7ZM449.75 32.55C447.85 37.8 443.65 45.1 438.65 49.75L439.1 50.25C446 47.05 451.6 41.5 454.9 36.8C456.1 36.95 456.55 36.65 456.8 36.15L449.75 32.55ZM464.1 57.75H484.1C484.8 57.75 485.35 57.5 485.45 56.95C483.3 54.95 479.65 52.1 479.65 52.1L476.35 56.3H464.4C464.6 55.1 464.75 53.9 464.9 52.65C466.05 52.55 466.6 52 466.7 51.25L458.4 50.6C458.3 52.55 458.2 54.5 457.9 56.3H438.55L438.95 57.75H457.6C456.15 64.45 451.9 69.9 438.45 74.8L438.8 75.55C456.05 71.95 461.5 66.65 463.55 59.8C466.75 68.65 472.55 72.75 481.25 75.55C481.95 72.65 483.55 70.75 485.85 70.1L485.95 69.55C476.4 68.25 468 65.4 464.05 58L464.1 57.75ZM528.95 49.55C534.95 46 535.6 40.05 535.6 36.3V33.75H540.1V43.5C540.1 46.5 540.45 47.55 543.65 47.55H545.3C549.1 47.55 550.6 46.4 550.6 44.55C550.6 43.55 550.2 43.1 549.15 42.6L548.9 42.5H548.45C548.15 42.6 547.7 42.65 547.5 42.7C547.25 42.7 546.85 42.75 546.65 42.75H546H545.45C545.05 42.75 544.95 42.55 544.95 42.05V34.25C545.85 34.15 546.45 33.85 546.75 33.5L542.1 29.75L539.6 32.35H536.4L530.85 30.25V36.3C530.85 40.25 530.85 45.1 528.5 49.1L528.95 49.55ZM522.4 33.55V40.05H511.7V33.55H522.4ZM520.3 51.75V60.4H518.05V51.75H520.3ZM514.05 51.75V60.4H510.75L511.15 61.8H529.85C530.55 61.8 530.95 61.55 531.1 61C529.8 59.45 527.35 57.2 527.35 57.2L525.25 60.4H524.35V51.75H528.15C528.85 51.75 529.3 51.5 529.4 50.95C528.15 49.5 525.9 47.4 525.9 47.4L524.35 49.75V45.1C525.1 45 525.4 44.6 525.5 44.1L520.3 43.6V50.3H518.05V45.1C518.8 45 519.1 44.6 519.15 44.1L514.05 43.6V50.3H511.65C511.7 48.45 511.7 46.7 511.7 45.05V41.45H522.4V43.25H523.25C525.05 43.25 527.6 42.15 527.65 41.8V34.3C528.6 34.1 529.25 33.7 529.55 33.35L524.35 29.5L521.9 32.1H512.55L506.55 29.9V45.05C506.55 54.6 506.5 65.85 503.25 74.75L503.85 75.1C509.75 68.65 511.2 59.6 511.6 51.75H514.05ZM508.5 75.05C512.7 72.95 516.1 69.45 518.25 66.5C519.45 66.6 519.9 66.35 520.15 65.8L514 62.8C513.05 66.25 510.85 71.3 508.05 74.45L508.5 75.05ZM520.7 63.3C522.2 65.3 523.6 68.45 523.7 71.1C528 74.8 532.95 66.1 521.2 63L520.7 63.3ZM541.35 52.85C540.65 56.3 539.5 59.45 537.9 62.35C535.6 59.85 533.8 56.75 532.65 52.85H541.35ZM544.05 48.5L541.05 51.45H529.25L529.7 52.85H531.7C532.6 58.05 534 62.15 535.9 65.55C533.1 69.4 529.2 72.5 524.05 74.85L524.4 75.5C530.15 73.9 534.6 71.55 538 68.65C540.2 71.45 543 73.6 546.4 75.45C547.25 72.85 548.9 71.2 551.15 70.8L551.2 70.3C547.55 69.1 544.1 67.55 541.2 65.35C543.95 61.95 545.85 58.1 547.15 53.7C548.25 53.6 548.75 53.45 549.1 52.9L544.05 48.5ZM576.45 29.85C578.15 31.85 580 34.95 580.35 37.8C585.45 41.5 590.2 31.6 576.9 29.55L576.45 29.85ZM583.8 54.3V46.7H600.2V54.3H583.8ZM610.05 35.65L606.85 38.85H599.15C602.15 36.95 605.4 34.4 607.45 32.6C608.55 32.65 609.15 32.25 609.4 31.65L601.1 29.4C600.4 32.15 599.1 36.05 597.9 38.85H594.95V30.4C596.2 30.15 596.55 29.7 596.65 29.1L588.9 28.45V38.85H576.15C575.9 37.8 575.5 36.7 574.95 35.5L574.25 35.55C574.65 38.3 573.1 40.7 571.45 41.65C569.8 42.35 568.6 43.7 569.1 45.6C569.7 47.55 571.95 48.1 573.65 47.2C575.5 46.25 576.85 43.75 576.4 40.2H607.05C606.65 41.7 606.1 43.6 605.6 45L602.25 42.5L599.7 45.25H584.1L578.25 42.95V58.5H579.05C581.3 58.5 583.8 57.3 583.8 56.8V55.75H589.05V62.7H574.65L575.05 64.1H589.05V72.15H569.85L570.25 73.6H613.6C614.3 73.6 614.8 73.35 614.95 72.8C612.85 70.85 609.35 68 609.35 68L606.25 72.15H594.85V64.1H609C609.7 64.1 610.2 63.85 610.35 63.3C608.3 61.4 604.8 58.65 604.8 58.65L601.75 62.7H594.85V55.75H600.2V57.65H601.2C603 57.65 605.85 56.65 605.9 56.3V47.5C606.8 47.35 607.45 46.9 607.7 46.55L606.4 45.6C608.85 44.5 611.75 42.8 613.6 41.45C614.65 41.4 615.15 41.3 615.55 40.85L610.05 35.65Z" fill="white"/>
<path d="M647.47 68.15V58.75H649.67V68.15H647.47ZM649.67 48.3V57.35H647.47V48.3H649.67ZM649.67 38V46.9H647.47V38H649.67ZM655.67 38.8C656.52 38.6 657.12 38.25 657.37 37.9L651.97 33.6L649.22 36.6H647.62L641.77 34.1V75.9H642.72C645.32 75.9 647.47 74.5 647.47 73.8V69.55H649.67V73.6H650.67C652.77 73.6 655.57 72.25 655.67 71.8V38.8ZM670.92 59.8L671.27 59.35C672.57 59.35 672.92 59.1 673.07 58.55L668.02 57.75C668.32 57.6 668.62 57.45 668.82 57.35H681.72V58.1H682.47L680.77 59.8H670.92ZM670.27 65.1V67.6H668.57V65.1H670.27ZM675.67 65.1V67.6H674.22V65.1H675.67ZM675.52 69.55L674.97 69.85C675.22 70.15 675.47 70.6 675.67 71.05L674.22 71.1V69H675.67V69.6L675.52 69.55ZM673.32 50.3C675.02 50.3 677.32 49.65 677.32 49.35V46.65C679.17 47.35 681.37 48.4 682.87 49.25L681.42 50.7H669.57L666.87 49.6C669.02 48.45 670.82 47.35 672.27 46.5V50.3H673.32ZM679.77 52.1H681.72V55.95H679.77V52.1ZM674.62 52.1H676.37V55.95H674.62V52.1ZM669.32 55.95V52.1H671.17V55.95H669.32ZM663.27 39.5V35.55H680.17V39.5H663.27ZM684.32 57.8C685.32 57.5 686.17 57.05 686.22 56.85V52.35C686.77 52.2 687.17 51.95 687.37 51.75L684.87 49.85C686.97 49.45 687.72 45.65 680.77 45.25C682.17 44.85 683.52 44.5 684.22 44.25C684.77 44.6 685.17 44.65 685.52 44.4L683.62 41.65C685.07 41.3 686.37 40.85 686.42 40.6V36.35C687.27 36.15 687.82 35.8 688.07 35.45L682.42 31.3L679.72 34.15H664.17L657.47 31.75V51.15C657.47 60.65 657.37 70.55 653.32 78.3L653.92 78.65C662.97 71.2 663.27 60.35 663.27 51.15V40.9H680.17V41.95H681.27H681.32C680.22 43.05 678.77 44.4 677.77 45.25L677.32 45.3V42.75C678.12 42.6 678.37 42.25 678.42 41.8L672.27 41.25V45.1L671.02 45.3C672.97 43.85 671.57 39.6 664.27 42.15L663.92 42.7C665.62 43.3 667.87 44.55 669.12 45.6C666.72 46 664.57 46.3 663.37 46.4L664.77 50.4V58.25H665.42H665.82C665.02 60.95 663.62 64.1 662.07 66L662.57 66.4C663.27 66.1 663.97 65.7 664.67 65.3V70.25H665.32C667.32 70.25 668.57 69.45 668.57 69.2V69H670.27V71.3C667.02 71.45 664.22 71.55 662.57 71.6L665.32 76.4C665.82 76.25 666.27 75.95 666.57 75.3C670.82 74 673.92 73 676.12 72.2C676.32 72.7 676.42 73.25 676.47 73.75C679.32 76.1 682.92 70.95 675.82 69.6H676.32C677.47 69.6 679.52 69 679.57 68.7V65.2C680.07 65.1 680.47 64.85 680.62 64.65L677.07 62.05L675.37 63.7H674.22V62.6C674.82 62.5 675.02 62.2 675.07 61.85L670.27 61.35V63.7H669.22L667.72 63.1C668.42 62.5 669.07 61.85 669.72 61.2H681.27C681.22 69.7 681.17 73.55 680.47 74.3C680.22 74.6 679.87 74.7 679.17 74.7C678.37 74.7 676.02 74.6 674.57 74.45L674.52 75.15C676.17 75.5 677.42 75.85 678.12 76.55C678.77 77.25 678.92 77.8 678.92 79C681.47 79 683.17 78.95 684.52 77.85C686.27 76.25 686.47 72.9 686.52 62.05C687.52 61.85 688.07 61.6 688.42 61.2L684.32 57.8ZM710.12 72.25V61.15H728.47V72.25H710.12ZM728.47 48.95V59.75H710.12V48.95H728.47ZM728.47 36.95V47.55H710.12V36.95H728.47ZM731.57 31.5L727.92 35.55H710.57L702.47 32.35V78.65H703.72C707.07 78.65 710.12 76.8 710.12 75.85V73.65H728.47V78H729.67C732.62 78 736.27 76.25 736.37 75.7V38.3C737.47 38.05 738.12 37.6 738.52 37.1L731.57 31.5ZM774.17 74.7C776.72 74.7 778.72 72.75 778.72 70.3C778.72 67.9 776.72 65.85 774.17 65.85C771.62 65.85 769.67 67.9 769.67 70.3C769.67 72.75 771.62 74.7 774.17 74.7ZM774.22 35.55C771.72 35.55 769.77 37.2 769.77 40.6C769.77 43 770.22 46.85 772.22 55.85L773.47 61.85H774.97L776.22 55.85C778.22 46.9 778.67 43 778.67 40.6C778.67 37.2 776.72 35.55 774.22 35.55Z" fill="#424242"/>
<defs>
<filter id="filter0_d_664_1820" x="217.776" y="1.18721" width="423.669" height="101.449" filterUnits="userSpaceOnUse" color-interpolation-filters="sRGB">
<feFlood flood-opacity="0" result="BackgroundImageFix"/>
<feColorMatrix in="SourceAlpha" type="matrix" values="0 0 0 0 0 0 0 0 0 0 0 0 0 0 0 0 0 0 127 0" result="hardAlpha"/>
<feOffset/>
<feGaussianBlur stdDeviation="4.61223"/>
<feComposite in2="hardAlpha" operator="out"/>
<feColorMatrix type="matrix" values="0 0 0 0 0 0 0 0 0 0 0 0 0 0 0 0 0 0 0.3 0"/>
<feBlend mode="normal" in2="BackgroundImageFix" result="effect1_dropShadow_664_1820"/>
<feBlend mode="normal" in="SourceGraphic" in2="effect1_dropShadow_664_1820" result="shape"/>
</filter>
</defs>
</svg>
