<svg width="28" height="28" viewBox="0 0 28 28" fill="none" xmlns="http://www.w3.org/2000/svg">
<path d="M13.9891 26.984C21.1631 26.984 26.9787 21.1672 26.9787 13.9918C26.9787 6.81635 21.1631 0.999512 13.9891 0.999512C6.81515 0.999512 0.999512 6.81635 0.999512 13.9918C0.999512 21.1672 6.81515 26.984 13.9891 26.984Z" stroke="white" stroke-width="2"/>
<path fill-rule="evenodd" clip-rule="evenodd" d="M14.2028 8.93604C16.1013 8.93604 18.0997 9.03598 19.9982 9.23586C20.4978 9.43574 20.8975 9.8355 21.0973 10.3352C21.2971 11.5345 21.3971 12.8337 21.3971 14.033C21.3971 15.2323 21.2971 16.4316 21.0973 17.6309C20.9974 18.1306 20.5977 18.5303 19.9982 18.7302C18.0997 18.9301 16.2012 19.03 14.2028 19.03C12.1045 19.03 10.0062 18.9301 7.90785 18.7302C7.40825 18.6303 7.00857 18.2305 6.80873 17.7308C6.70881 16.4316 6.60889 15.2323 6.60889 14.033C6.60889 12.8337 6.70881 11.5345 6.90865 10.3352C7.10849 9.8355 7.50817 9.3358 8.00777 9.23586C8.90705 9.03598 9.70641 9.03598 10.6057 9.03598H11.2052C12.3043 9.03598 13.3035 9.03598 13.8031 9.03598H14.2028V8.93604Z" fill="white"/>
<path d="M12.4043 16.3315L16.501 14.0329L12.4043 11.6343V16.3315Z" fill="#BDBDBD"/>
</svg>
