<svg width="28" height="28" viewBox="0 0 28 28" fill="none" xmlns="http://www.w3.org/2000/svg">
<path d="M13.9891 26.984C21.1631 26.984 26.9787 21.1672 26.9787 13.9918C26.9787 6.81635 21.1631 0.999512 13.9891 0.999512C6.81515 0.999512 0.999512 6.81635 0.999512 13.9918C0.999512 21.1672 6.81515 26.984 13.9891 26.984Z" stroke="white" stroke-width="2"/>
<path d="M11.2616 7.26709H16.7572C18.9554 7.26709 20.754 9.06602 20.754 11.2647V16.7614C20.754 18.9601 18.9554 20.7591 16.7572 20.7591H11.2616C9.06333 20.7591 7.26477 18.9601 7.26477 16.7614V11.2647C7.26477 9.06602 9.06333 7.26709 11.2616 7.26709Z" fill="white"/>
<path d="M14.0596 17.3614C13.3601 17.3614 12.6607 17.1615 12.0612 16.6618C11.2618 16.1621 10.7622 15.3626 10.6623 14.4631C10.3625 12.6642 11.6615 10.8653 13.56 10.5654C13.8597 10.5654 14.2594 10.5654 14.5592 10.5654C16.058 10.7653 17.1571 11.9646 17.4568 13.4637C17.5568 14.3632 17.3569 15.2626 16.8573 15.9622C16.3577 16.6618 15.5584 17.1615 14.6591 17.2615C14.3593 17.3614 14.1595 17.3614 14.0596 17.3614ZM14.0596 11.5648C13.9596 11.5648 13.8597 11.5648 13.7598 11.5648C13.0604 11.7647 12.4608 12.0645 12.1611 12.5642C11.7614 13.0639 11.5616 13.6636 11.6615 14.2632C11.7614 14.9628 12.1611 15.4625 12.6607 15.8623C13.1603 16.1621 13.7598 16.362 14.3593 16.2621C14.9588 16.1621 15.5584 15.8623 15.8581 15.3626C16.2578 14.8629 16.3577 14.2632 16.2578 13.6636C16.058 12.6642 15.3585 11.8647 14.2594 11.6648C14.2594 11.5648 14.1595 11.5648 14.0596 11.5648Z" fill="#BDBDBD"/>
<path d="M17.9562 10.8661C17.5565 10.8661 17.1569 10.4661 17.1569 10.0661C17.1569 9.66611 17.5565 9.26611 17.9562 9.26611C18.3559 9.26611 18.7556 9.66611 18.7556 10.0661C18.7556 10.4661 18.3559 10.8661 17.9562 10.8661Z" fill="#BDBDBD"/>
</svg>
