<svg width="49" height="32" viewBox="0 0 49 32" fill="none" xmlns="http://www.w3.org/2000/svg">
<path d="M47.648 23.148C47.648 23.8471 47.369 24.5176 46.8724 25.012C46.3758 25.5063 45.7023 25.7841 45 25.7841H7.18647C6.61613 25.7841 6.069 26.01 5.6648 26.4123L1.91962 30.1408C1.57959 30.4793 1 30.2384 1 29.7586L1 4.6361C1 3.93696 1.27898 3.26646 1.77557 2.7721C2.27216 2.27773 2.94568 2 3.64796 2L45 2C45.7023 2 46.3758 2.27773 46.8724 2.7721C47.369 3.26646 47.648 3.93696 47.648 4.6361V23.148Z" fill="white" stroke="#FF9262" stroke-width="1.5" stroke-linecap="round" stroke-linejoin="round"/>
<path d="M11.562 20H18.682V18.096H16.458V8.16H14.714C13.962 8.624 13.146 8.928 11.962 9.152V10.608H14.106V18.096H11.562V20ZM28.058 19.232V16.964H32.558V19.232H28.058ZM31.862 12.308C31.274 13.076 30.506 13.76 29.618 14.336C29.09 13.832 28.262 13.184 27.566 12.68C27.722 12.56 27.866 12.44 28.022 12.308H31.862ZM34.034 15.668H30.158C31.814 14.624 33.182 13.256 34.01 11.528L33.026 10.94L32.786 11.012H29.282C29.522 10.712 29.738 10.412 29.954 10.112L28.358 9.776C27.626 10.904 26.306 12.104 24.35 12.956C24.674 13.208 25.118 13.748 25.334 14.096C25.718 13.916 26.078 13.7 26.414 13.484C27.062 13.988 27.782 14.6 28.298 15.104C27.014 15.74 25.574 16.22 24.122 16.508C24.386 16.832 24.722 17.444 24.854 17.828C25.454 17.684 26.042 17.528 26.63 17.324V21.044H28.058V20.516H32.558V21.044H34.034V15.668Z" fill="#ED6D34"/>
</svg>
