<svg width="49" height="32" viewBox="0 0 49 32" fill="none" xmlns="http://www.w3.org/2000/svg">
<path d="M47.648 23.148C47.648 23.8471 47.369 24.5176 46.8724 25.012C46.3758 25.5063 45.7023 25.7841 45 25.7841H7.18647C6.61613 25.7841 6.069 26.01 5.6648 26.4123L1.91962 30.1408C1.57959 30.4793 1 30.2384 1 29.7586L1 4.6361C1 3.93696 1.27898 3.26646 1.77557 2.7721C2.27216 2.27773 2.94568 2 3.64796 2L45 2C45.7023 2 46.3758 2.27773 46.8724 2.7721C47.369 3.26646 47.648 3.93696 47.648 4.6361V23.148Z" fill="white" stroke="#FF9262" stroke-width="1.5" stroke-linecap="round" stroke-linejoin="round"/>
<path d="M18.2656 8.50781V10.3672H18.0469C17.026 10.3828 16.2031 10.6484 15.5781 11.1641C14.9583 11.6797 14.5859 12.3958 14.4609 13.3125C15.0651 12.6979 15.8281 12.3906 16.75 12.3906C17.7396 12.3906 18.526 12.7448 19.1094 13.4531C19.6927 14.1615 19.9844 15.0938 19.9844 16.25C19.9844 16.9896 19.8229 17.6589 19.5 18.2578C19.1823 18.8568 18.7292 19.3229 18.1406 19.6562C17.5573 19.9896 16.8958 20.1562 16.1562 20.1562C14.9583 20.1562 13.9896 19.7396 13.25 18.9062C12.5156 18.0729 12.1484 16.9609 12.1484 15.5703V14.7578C12.1484 13.5234 12.3802 12.4349 12.8438 11.4922C13.3125 10.5443 13.9818 9.8125 14.8516 9.29688C15.7266 8.77604 16.7396 8.51302 17.8906 8.50781H18.2656ZM16.0625 14.2031C15.6979 14.2031 15.3672 14.2995 15.0703 14.4922C14.7734 14.6797 14.5547 14.9297 14.4141 15.2422V15.9297C14.4141 16.6849 14.5625 17.276 14.8594 17.7031C15.1562 18.125 15.5729 18.3359 16.1094 18.3359C16.5938 18.3359 16.9844 18.1458 17.2812 17.7656C17.5833 17.3802 17.7344 16.8828 17.7344 16.2734C17.7344 15.6536 17.5833 15.1536 17.2812 14.7734C16.9792 14.3932 16.5729 14.2031 16.0625 14.2031ZM28.9408 19.232V16.964H33.4408V19.232H28.9408ZM32.7448 12.308C32.1568 13.076 31.3888 13.76 30.5008 14.336C29.9728 13.832 29.1448 13.184 28.4488 12.68C28.6048 12.56 28.7488 12.44 28.9048 12.308H32.7448ZM34.9168 15.668H31.0408C32.6968 14.624 34.0648 13.256 34.8928 11.528L33.9088 10.94L33.6688 11.012H30.1648C30.4048 10.712 30.6208 10.412 30.8368 10.112L29.2408 9.776C28.5088 10.904 27.1888 12.104 25.2328 12.956C25.5568 13.208 26.0008 13.748 26.2168 14.096C26.6008 13.916 26.9608 13.7 27.2968 13.484C27.9448 13.988 28.6648 14.6 29.1808 15.104C27.8968 15.74 26.4568 16.22 25.0048 16.508C25.2688 16.832 25.6048 17.444 25.7368 17.828C26.3368 17.684 26.9248 17.528 27.5128 17.324V21.044H28.9408V20.516H33.4408V21.044H34.9168V15.668Z" fill="#ED6D34"/>
</svg>
