<svg width="99" height="99" viewBox="0 0 99 99" fill="none" xmlns="http://www.w3.org/2000/svg">
<path d="M99 98.4251V72.3821H7.39732V98.4251H99Z" fill="#EBEBEB"/>
<path d="M96.084 95.1799V75.6218H83.4105V95.1799H96.084Z" fill="#00A496"/>
<path opacity="0.8" d="M80.7256 95.1828V75.6248H68.0521V95.1828H80.7256Z" fill="#00A496"/>
<path opacity="0.6" d="M65.3672 95.1856V75.6276H52.6937V95.1856H65.3672Z" fill="#00A496"/>
<path opacity="0.4" d="M50.0098 95.1738V75.6157H37.3363V95.1738H50.0098Z" fill="#00A496"/>
<path opacity="0.2" d="M34.6494 95.1767V75.6187H21.9759V95.1767H34.6494Z" fill="#00A496"/>
<g opacity="0.2">
<path opacity="0.2" d="M96.084 95.1799V75.6218H83.4105V95.1799H96.084Z" fill="black"/>
<path opacity="0.8" d="M80.7256 95.1828V75.6248H68.0521V95.1828H80.7256Z" fill="black"/>
<path opacity="0.6" d="M65.3672 95.1856V75.6276H52.6937V95.1856H65.3672Z" fill="black"/>
<path opacity="0.4" d="M50.0098 95.1738V75.6157H37.3363V95.1738H50.0098Z" fill="black"/>
<path opacity="0.2" d="M34.6494 95.1767V75.6187H21.9759V95.1767H34.6494Z" fill="black"/>
</g>
<path d="M13.6009 87.0607C12.6871 87.0607 11.9502 86.3238 11.9502 85.41C11.9502 84.4962 12.6871 83.7593 13.6009 83.7593C14.5147 83.7593 15.2516 84.4962 15.2516 85.41C15.2516 86.3238 14.5147 87.0607 13.6009 87.0607Z" fill="#263238"/>
<path d="M83.185 34.2191L64.7725 15.8041L0.000216824 80.5849L18.4128 98.9999L83.185 34.2191Z" fill="#EBEBEB"/>
<path d="M78.8335 33.9776L65.0059 20.1481L56.0444 29.1107L69.8721 42.9402L78.8335 33.9776Z" fill="#FED757"/>
<path opacity="0.8" d="M67.9917 44.839L54.1641 31.0095L45.2027 39.9721L59.0303 53.8016L67.9917 44.839Z" fill="#FED757"/>
<path opacity="0.6" d="M57.1314 55.7006L43.3037 41.8711L34.3423 50.8337L48.17 64.6632L57.1314 55.7006Z" fill="#FED757"/>
<path opacity="0.4" d="M46.271 66.5625L32.4434 52.733L23.482 61.6956L37.3096 75.5251L46.271 66.5625Z" fill="#FED757"/>
<path opacity="0.2" d="M35.4087 77.4234L21.5811 63.5939L12.6196 72.5565L26.4473 86.386L35.4087 77.4234Z" fill="#FED757"/>
<g opacity="0.1">
<path opacity="0.1" d="M78.8335 33.9776L65.0059 20.1481L56.0444 29.1107L69.8721 42.9402L78.8335 33.9776Z" fill="black"/>
<path opacity="0.8" d="M67.9917 44.839L54.1641 31.0095L45.2027 39.9721L59.0303 53.8016L67.9917 44.839Z" fill="black"/>
<path opacity="0.6" d="M57.1314 55.7006L43.3037 41.8711L34.3423 50.8337L48.17 64.6632L57.1314 55.7006Z" fill="black"/>
<path opacity="0.4" d="M46.271 66.5625L32.4434 52.733L23.482 61.6956L37.3096 75.5251L46.271 66.5625Z" fill="black"/>
<path opacity="0.2" d="M35.4087 77.4234L21.5811 63.5939L12.6196 72.5565L26.4473 86.386L35.4087 77.4234Z" fill="black"/>
</g>
<path d="M14.7653 86.5739C14.1169 87.2224 13.0704 87.2224 12.4219 86.5739C11.7734 85.9254 11.7734 84.879 12.4219 84.2305C13.0704 83.582 14.1169 83.582 14.7653 84.2305C15.4138 84.879 15.4138 85.9254 14.7653 86.5739Z" fill="#263238"/>
<path d="M26.6275 0H0.587891V91.6147H26.6275V0Z" fill="#EBEBEB"/>
<path d="M23.3709 2.90344H3.81543V15.5786H23.3709V2.90344Z" fill="#ED6D34"/>
<path opacity="0.8" d="M23.3709 18.2611H3.81543V30.9362H23.3709V18.2611Z" fill="#ED6D34"/>
<path opacity="0.6" d="M23.3709 33.6185H3.81543V46.2937H23.3709V33.6185Z" fill="#ED6D34"/>
<path opacity="0.4" d="M23.3709 48.9908H3.81543V61.666H23.3709V48.9908Z" fill="#ED6D34"/>
<path opacity="0.2" d="M23.3709 64.3483H3.81543V77.0234H23.3709V64.3483Z" fill="#ED6D34"/>
<path d="M16.2828 85.4098C16.2828 86.8837 15.089 88.0922 13.6004 88.0922C12.1265 88.0922 10.918 86.8984 10.918 85.4098C10.918 83.936 12.1118 82.7274 13.6004 82.7274C15.0742 82.7274 16.2828 83.9212 16.2828 85.4098Z" fill="#263238"/>
</svg>
