<svg width="99" height="99" viewBox="0 0 99 99" fill="none" xmlns="http://www.w3.org/2000/svg">
<path d="M88 98.5612H12V1.00002H88V98.5612Z" fill="white"/>
<path opacity="0.4" fill-rule="evenodd" clip-rule="evenodd" d="M59.3067 98.5612C74.2494 87.5235 83.94 69.7837 83.94 49.7806C83.94 29.7775 74.2494 12.0377 59.3066 1H12V98.5612H59.3067Z" fill="#ED6D34"/>
<path opacity="0.4" fill-rule="evenodd" clip-rule="evenodd" d="M12 49.8288V1H88V73.7997C80.5707 77.0491 72.3641 78.8519 63.7366 78.8519C41.8362 78.8519 22.649 67.2358 12 49.8288Z" fill="#E8E1C8"/>
<line x1="28.753" y1="70.9681" x2="74.0845" y2="70.9681" stroke="#FAFAFA" stroke-width="1.97093" stroke-linecap="round"/>
<line x1="28.753" y1="77.8665" x2="59.3025" y2="77.8665" stroke="#FAFAFA" stroke-width="1.97093" stroke-linecap="round"/>
<line x1="28.753" y1="84.7647" x2="59.3025" y2="84.7647" stroke="#FAFAFA" stroke-width="1.97093" stroke-linecap="round"/>
<path d="M68.1711 56.6788C68.1711 54.7741 69.7155 53.2297 71.6202 53.2297C73.5249 53.2297 75.0693 54.7741 75.0693 56.6788C75.0693 58.5835 73.5249 60.1279 71.6202 60.1279C69.7155 60.1279 68.1711 58.5835 68.1711 56.6788Z" fill="#FF9262"/>
<path d="M48.1105 15.5056C49.4946 14.4959 51.3724 14.4959 52.7566 15.5056L55.8633 17.7718C56.5399 18.2654 57.3562 18.5306 58.1938 18.529L62.0392 18.5217C63.7524 18.5184 65.2716 19.6222 65.798 21.2526L66.9793 24.912C67.2366 25.7091 67.7411 26.4035 68.4196 26.8945L71.5349 29.1489C72.9229 30.1532 73.5032 31.9391 72.9706 33.5675L71.7754 37.2225C71.515 38.0185 71.515 38.8769 71.7754 39.6729L72.9706 43.3279C73.5032 44.9562 72.9229 46.7422 71.5349 47.7465L68.4196 50.0009C67.7411 50.4919 67.2366 51.1863 66.9793 51.9834L65.798 55.6428C65.2716 57.2732 63.7524 58.377 62.0392 58.3737L58.1938 58.3664C57.3562 58.3648 56.5399 58.63 55.8633 59.1236L52.7566 61.3898C51.3724 62.3995 49.4946 62.3995 48.1105 61.3898L45.0038 59.1236C44.3271 58.63 43.5108 58.3648 42.6733 58.3664L38.8279 58.3737C37.1146 58.377 35.5954 57.2732 35.0691 55.6428L33.8878 51.9834C33.6305 51.1863 33.126 50.4919 32.4474 50.0009L29.3322 47.7465C27.9442 46.7422 27.3639 44.9562 27.8964 43.3279L29.0917 39.6729C29.352 38.8769 29.352 38.0185 29.0917 37.2225L27.8964 33.5675C27.3639 31.9391 27.9442 30.1532 29.3322 29.1489L32.4474 26.8945C33.126 26.4035 33.6305 25.7091 33.8878 24.912L35.0691 21.2526C35.5954 19.6222 37.1146 18.5184 38.8279 18.5217L42.6733 18.529C43.5108 18.5306 44.3271 18.2654 45.0038 17.7718L48.1105 15.5056Z" fill="#FF9262"/>
<path d="M59.585 39.427C59.2986 39.3112 59.0062 39.3054 58.7079 39.4097C58.4095 39.5139 58.2007 39.7051 58.0813 39.9831L57.9202 40.296L57.4727 40.9911L56.6851 41.9991L55.5395 43.0591L54.0359 44.0497L52.1563 44.7622L49.883 45.0577C49.8591 45.0577 49.8352 45.0635 49.8114 45.0751L49.7756 45.0924C49.1073 45.0924 48.4629 45.0229 47.8423 44.8839C47.2218 44.7449 46.6728 44.5537 46.1955 44.3104C45.7181 44.0671 45.2706 43.8064 44.8529 43.5284C44.4353 43.2503 44.0653 42.9433 43.7431 42.6073C43.4209 42.2713 43.1405 41.9643 42.9018 41.6862C42.6631 41.4082 42.4602 41.1301 42.2932 40.8521C42.1261 40.574 42.0068 40.3771 41.9352 40.2612C41.8636 40.1453 41.8158 40.0527 41.792 39.9831C41.6488 39.7051 41.434 39.5139 41.1476 39.4097C40.8611 39.3054 40.5688 39.317 40.2704 39.4444C39.9721 39.5719 39.7692 39.7746 39.6618 40.0527C39.5544 40.3307 39.5723 40.6204 39.7155 40.9216C39.7394 40.9911 39.7812 41.0838 39.8408 41.1996C39.9005 41.3155 40.0258 41.5183 40.2167 41.8079C40.4077 42.0975 40.6046 42.3872 40.8074 42.6768C41.0103 42.9665 41.2848 43.2967 41.6309 43.6674C41.9769 44.0381 42.3409 44.3857 42.7228 44.7101C43.1047 45.0345 43.5522 45.3589 44.0653 45.6833C44.5785 46.0077 45.1155 46.2858 45.6764 46.5175C46.2372 46.7492 46.8697 46.9404 47.5738 47.091C48.2779 47.2416 48.9999 47.3169 49.7398 47.3169C49.7636 47.3169 49.8114 47.3053 49.883 47.2821C51.2434 47.2821 52.5322 47.0562 53.7494 46.6044C54.9667 46.1525 55.9333 45.6543 56.6493 45.1098C57.3653 44.5653 58.0157 43.9339 58.6005 43.2156C59.1852 42.4972 59.5671 41.9817 59.7461 41.6689C59.9251 41.3561 60.0623 41.0954 60.1578 40.8868C60.2294 40.7941 60.2712 40.6841 60.2831 40.5566C60.295 40.4292 60.2831 40.3133 60.2473 40.2091C60.2115 40.1048 60.1697 40.0005 60.122 39.8963C60.0743 39.792 60.0027 39.6993 59.9072 39.6182C59.8117 39.5371 59.7043 39.4734 59.585 39.427ZM44.2264 35.0129C44.847 35.0129 45.378 34.7927 45.8196 34.3525C46.2611 33.9122 46.4819 33.3909 46.4819 32.7884C46.4819 32.3945 46.3804 32.0238 46.1776 31.6762C45.9747 31.3286 45.7002 31.0564 45.3542 30.8594C45.0081 30.6624 44.6322 30.564 44.2264 30.564C43.582 30.564 43.039 30.7841 42.5975 31.2244C42.1559 31.6646 41.9352 32.186 41.9352 32.7884C41.9352 33.6921 42.3409 34.3525 43.1524 34.7696C43.5104 34.9318 43.8684 35.0129 44.2264 35.0129ZM55.6827 35.0129C55.8498 35.0129 56.0168 34.9897 56.1839 34.9434C56.351 34.897 56.5121 34.8391 56.6672 34.7696C56.8223 34.7001 56.9656 34.6132 57.0968 34.5089C57.2281 34.4046 57.3474 34.2888 57.4548 34.1613C57.5622 34.0339 57.6517 33.9006 57.7233 33.7616C57.7949 33.6226 57.8486 33.4662 57.8844 33.2924C57.9202 33.1186 57.9381 32.9506 57.9381 32.7884C57.9381 32.186 57.7174 31.6646 57.2758 31.2244C56.8343 30.7841 56.2973 30.564 55.6648 30.564C55.0323 30.564 54.4953 30.7841 54.0538 31.2244C53.6122 31.6646 53.3914 32.186 53.3914 32.7884C53.3914 33.3909 53.6122 33.9122 54.0538 34.3525C54.4953 34.7927 55.0383 35.0129 55.6827 35.0129Z" fill="white"/>
</svg>
