<svg width="99" height="99" viewBox="0 0 99 99" fill="none" xmlns="http://www.w3.org/2000/svg">
<path d="M93.5999 93.5976H91.3047V92.0674H92.0698V91.3024H93.5999V93.5976Z" fill="#BDBDBD"/>
<path d="M88.2134 93.5975H85.1226V92.0674H88.2134V93.5975ZM82.0164 93.5975H78.9255V92.0674H82.0164V93.5975ZM75.8193 93.5975H72.7284V92.0674H75.8193V93.5975ZM69.6376 93.5975H66.5467V92.0674H69.6376V93.5975ZM63.4405 93.5975H60.3496V92.0674H63.4405V93.5975ZM57.2434 93.5975H54.1525V92.0674H57.2434V93.5975ZM51.0617 93.5975H47.9708V92.0674H51.0617V93.5975ZM44.8646 93.5975H41.7737V92.0674H44.8646V93.5975ZM38.6675 93.5975H35.5767V92.0674H38.6675V93.5975ZM32.4705 93.5975H29.3796V92.0674H32.4705V93.5975ZM26.2887 93.5975H23.1978V92.0674H26.2887V93.5975ZM20.0917 93.5975H17.0008V92.0674H20.0917V93.5975ZM13.8946 93.5975H10.8037V92.0674H13.8946V93.5975Z" fill="#BDBDBD"/>
<path d="M7.7122 93.5976H5.41699V91.3024H6.94713V92.0674H7.7122V93.5976Z" fill="#BDBDBD"/>
<path d="M6.94713 88.2108H5.41699V85.1195H6.94713V88.2108ZM6.94713 82.0128H5.41699V78.9215H6.94713V82.0128ZM6.94713 75.8148H5.41699V72.7234H6.94713V75.8148ZM6.94713 69.6321H5.41699V66.5407H6.94713V69.6321ZM6.94713 63.4341H5.41699V60.3427H6.94713V63.4341ZM6.94713 57.236H5.41699V54.1447H6.94713V57.236ZM6.94713 51.0533H5.41699V47.962H6.94713V51.0533ZM6.94713 44.8553H5.41699V41.7639H6.94713V44.8553ZM6.94713 38.6573H5.41699V35.5659H6.94713V38.6573ZM6.94713 32.4746H5.41699V29.3832H6.94713V32.4746ZM6.94713 26.2765H5.41699V23.1852H6.94713V26.2765ZM6.94713 20.0785H5.41699V16.9872H6.94713V20.0785ZM6.94713 13.8958H5.41699V10.8044H6.94713V13.8958Z" fill="#BDBDBD"/>
<path d="M6.94713 7.69743H5.41699V5.40222H7.7122V6.93236H6.94713V7.69743Z" fill="#BDBDBD"/>
<path d="M88.2134 6.93236H85.1226V5.40222H88.2134V6.93236ZM82.0164 6.93236H78.9255V5.40222H82.0164V6.93236ZM75.8193 6.93236H72.7284V5.40222H75.8193V6.93236ZM69.6376 6.93236H66.5467V5.40222H69.6376V6.93236ZM63.4405 6.93236H60.3496V5.40222H63.4405V6.93236ZM57.2434 6.93236H54.1525V5.40222H57.2434V6.93236ZM51.0617 6.93236H47.9708V5.40222H51.0617V6.93236ZM44.8646 6.93236H41.7737V5.40222H44.8646V6.93236ZM38.6675 6.93236H35.5767V5.40222H38.6675V6.93236ZM32.4705 6.93236H29.3796V5.40222H32.4705V6.93236ZM26.2887 6.93236H23.1978V5.40222H26.2887V6.93236ZM20.0917 6.93236H17.0008V5.40222H20.0917V6.93236ZM13.8946 6.93236H10.8037V5.40222H13.8946V6.93236Z" fill="#BDBDBD"/>
<path d="M93.5999 7.69743H92.0698V6.93236H91.3047V5.40222H93.5999V7.69743Z" fill="#BDBDBD"/>
<path d="M93.5985 88.2108H92.0684V85.1195H93.5985V88.2108ZM93.5985 82.0128H92.0684V78.9215H93.5985V82.0128ZM93.5985 75.8148H92.0684V72.7234H93.5985V75.8148ZM93.5985 69.6321H92.0684V66.5407H93.5985V69.6321ZM93.5985 63.4341H92.0684V60.3427H93.5985V63.4341ZM93.5985 57.236H92.0684V54.1447H93.5985V57.236ZM93.5985 51.0533H92.0684V47.962H93.5985V51.0533ZM93.5985 44.8553H92.0684V41.7639H93.5985V44.8553ZM93.5985 38.6573H92.0684V35.5659H93.5985V38.6573ZM93.5985 32.4746H92.0684V29.3832H93.5985V32.4746ZM93.5985 26.2765H92.0684V23.1852H93.5985V26.2765ZM93.5985 20.0785H92.0684V16.9872H93.5985V20.0785ZM93.5985 13.8958H92.0684V10.8044H93.5985V13.8958Z" fill="#BDBDBD"/>
<path d="M11.5831 87.4304H0.780273V98.2349H11.5831V87.4304Z" fill="white"/>
<path d="M12.3329 99H0V86.6652H12.3329V99ZM1.54544 97.4696H10.8181V88.1955H1.54544V97.4696Z" fill="#BDBDBD"/>
<path d="M11.5831 44.1053H0.780273V54.9098H11.5831V44.1053Z" fill="white"/>
<path d="M12.3329 55.6598H0V43.325H12.3329V55.6598ZM1.54544 54.1294H10.8181V44.8553H1.54544V54.1294Z" fill="#BDBDBD"/>
<path d="M11.5831 0.765381H0.780273V11.5698H11.5831V0.765381Z" fill="white"/>
<path d="M12.3329 12.3349H0V0.00012207H12.3329V12.3349ZM1.54544 10.8046H10.8181V1.5305H1.54544V10.8046Z" fill="#BDBDBD"/>
<path d="M98.2344 87.4305H87.4316V98.235H98.2344V87.4305Z" fill="white"/>
<path d="M98.9989 99.0001H86.666V86.6653H98.9989V99.0001ZM88.1962 97.4697H97.4688V88.1957H88.1962V97.4697Z" fill="#BDBDBD"/>
<path d="M98.2344 44.1053H87.4316V54.9098H98.2344V44.1053Z" fill="white"/>
<path d="M98.9989 55.6598H86.666V43.325H98.9989V55.6598ZM88.1962 54.1294H97.4688V44.8553H88.1962V54.1294Z" fill="#BDBDBD"/>
<path d="M98.2344 0.765259H87.4316V11.5697H98.2344V0.765259Z" fill="white"/>
<path d="M98.9989 12.3348H86.666V0H98.9989V12.3348ZM88.1962 10.8045H97.4688V1.53038H88.1962V10.8045Z" fill="#BDBDBD"/>
<path d="M54.9024 0.765381H44.0996V11.5698H54.9024V0.765381Z" fill="white"/>
<path d="M55.6669 12.3349H43.334V0.00012207H55.6669V12.3349ZM44.8641 10.8046H54.1368V1.5305H44.8641V10.8046Z" fill="#BDBDBD"/>
<path d="M54.9024 87.4304H44.0996V98.2349H54.9024V87.4304Z" fill="white"/>
<path d="M55.6669 99H43.334V86.6652H55.6669V99ZM44.8641 97.4696H54.1368V88.1955H44.8641V97.4696Z" fill="#BDBDBD"/>
<path d="M50.5563 59.8073H33.2657L26.5484 78.6768H33.0974V80.3296H19.7393V78.6768H23.84L46.1036 18.6708H53.2646L75.268 78.6768H79.2923V80.3296H50.7399V78.6768H56.9369L50.5563 59.8073ZM34.0461 57.879H49.8524L42.2476 34.9999L34.0461 57.879Z" fill="#9E9E9E"/>
</svg>
