<svg width="88" height="33" viewBox="0 0 88 33" fill="none" xmlns="http://www.w3.org/2000/svg">
<path d="M11.3722 11.8564V14.6682H3.59287V11.8564H11.3722ZM4.81133 5.83704V21H1.15597V5.83704H4.81133ZM13.83 5.83704V21H10.185V5.83704H13.83ZM31.5419 13.1165V13.7309C31.5419 14.8904 31.3787 15.9318 31.0524 16.8552C30.7331 17.7716 30.2783 18.5562 29.6882 19.2088C29.098 19.8544 28.4003 20.3509 27.5949 20.698C26.7896 21.0382 25.9009 21.2083 24.9289 21.2083C23.95 21.2083 23.0544 21.0382 22.2421 20.698C21.4367 20.3509 20.7355 19.8544 20.1384 19.2088C19.5483 18.5562 19.0901 17.7716 18.7638 16.8552C18.4444 15.9318 18.2847 14.8904 18.2847 13.7309V13.1165C18.2847 11.9571 18.4444 10.9157 18.7638 9.99227C19.0901 9.06889 19.5448 8.28436 20.128 7.63868C20.7181 6.98606 21.4159 6.48965 22.2212 6.14946C23.0335 5.80232 23.9292 5.62875 24.9081 5.62875C25.8801 5.62875 26.7687 5.80232 27.5741 6.14946C28.3864 6.48965 29.0876 6.98606 29.6778 7.63868C30.2679 8.28436 30.7261 9.06889 31.0524 9.99227C31.3787 10.9157 31.5419 11.9571 31.5419 13.1165ZM27.8345 13.7309V13.0957C27.8345 12.3459 27.7685 11.6863 27.6366 11.117C27.5116 10.5407 27.3242 10.0582 27.0742 9.66943C26.8243 9.28064 26.5153 8.98904 26.1474 8.79465C25.7863 8.59331 25.3732 8.49264 24.9081 8.49264C24.4221 8.49264 23.9986 8.59331 23.6376 8.79465C23.2765 8.98904 22.9745 9.28064 22.7315 9.66943C22.4885 10.0582 22.3046 10.5407 22.1796 11.117C22.0616 11.6863 22.0025 12.3459 22.0025 13.0957V13.7309C22.0025 14.4738 22.0616 15.1334 22.1796 15.7096C22.3046 16.2789 22.4885 16.7615 22.7315 17.1572C22.9815 17.5529 23.287 17.8515 23.648 18.0528C24.0159 18.2541 24.4429 18.3548 24.9289 18.3548C25.3941 18.3548 25.8072 18.2541 26.1682 18.0528C26.5292 17.8515 26.8312 17.5529 27.0742 17.1572C27.3242 16.7615 27.5116 16.2789 27.6366 15.7096C27.7685 15.1334 27.8345 14.4738 27.8345 13.7309ZM46.015 18.1882V21H38.3502V18.1882H46.015ZM39.652 5.83704V21H35.9966V5.83704H39.652ZM56.7495 9.02376L53.0525 21H49.1263L54.6979 5.83704H57.1869L56.7495 9.02376ZM59.8112 21L56.1038 9.02376L55.6247 5.83704H58.145L63.7478 21H59.8112ZM59.6654 15.3451V18.1674H51.8861V15.3451H59.6654ZM75.8205 15.5187H78.0173L78.5718 8.22445L78.6785 5.04656H75.1593L75.266 8.22445L75.8205 15.5187ZM76.9296 21.2133C77.996 21.2133 78.8064 20.4241 78.8064 19.3151C78.8064 18.206 77.996 17.4382 76.9296 17.4382C75.8418 17.4382 75.0313 18.206 75.0313 19.3151C75.0313 20.4241 75.8205 21.2133 76.9296 21.2133Z" fill="#424242"/>
<path d="M3.80621 29.475V30.3105H1.189V29.475H3.80621ZM1.53534 25.1118V30.3105H0.464172V25.1118H1.53534ZM6.86547 30.382C6.56554 30.382 6.29656 30.3344 6.05852 30.2391C5.82048 30.1415 5.61815 30.007 5.45153 29.8357C5.28728 29.6643 5.16112 29.4655 5.07305 29.2394C4.98497 29.0109 4.94094 28.7681 4.94094 28.511V28.3682C4.94094 28.0754 4.98259 27.8076 5.06591 27.5648C5.14922 27.322 5.26824 27.1113 5.42296 26.9328C5.58007 26.7543 5.7705 26.6174 5.99425 26.5222C6.21801 26.4246 6.47032 26.3758 6.75121 26.3758C7.02495 26.3758 7.26775 26.421 7.4796 26.5115C7.69145 26.6019 7.86879 26.7305 8.01161 26.8971C8.15682 27.0637 8.26631 27.2637 8.34011 27.4969C8.4139 27.7278 8.45079 27.9849 8.45079 28.2682V28.6967H5.38011V28.0111H7.44033V27.9326C7.44033 27.7897 7.41414 27.6624 7.36177 27.5505C7.31179 27.4362 7.23561 27.3458 7.13326 27.2791C7.0309 27.2125 6.89998 27.1792 6.7405 27.1792C6.60482 27.1792 6.48818 27.2089 6.39058 27.2684C6.29299 27.3279 6.21324 27.4113 6.15135 27.5184C6.09185 27.6255 6.04662 27.7516 6.01567 27.8969C5.98711 28.0397 5.97283 28.1968 5.97283 28.3682V28.511C5.97283 28.6657 5.99425 28.8085 6.0371 28.9395C6.08232 29.0704 6.1454 29.1834 6.22634 29.2787C6.30965 29.3739 6.40963 29.4477 6.52626 29.5C6.64528 29.5524 6.77977 29.5786 6.92974 29.5786C7.11541 29.5786 7.28798 29.5429 7.44747 29.4715C7.60933 29.3977 7.74858 29.287 7.86522 29.1394L8.3651 29.6821C8.28417 29.7988 8.17348 29.9106 8.03304 30.0178C7.89498 30.1249 7.72835 30.213 7.53316 30.282C7.33797 30.3486 7.11541 30.382 6.86547 30.382ZM11.8528 29.4393V27.7183C11.8528 27.5945 11.8326 27.4886 11.7921 27.4005C11.7517 27.3101 11.6886 27.2399 11.6029 27.1899C11.5196 27.1399 11.4113 27.1149 11.278 27.1149C11.1637 27.1149 11.0649 27.1351 10.9816 27.1756C10.8983 27.2137 10.834 27.2696 10.7888 27.3434C10.7436 27.4148 10.721 27.4993 10.721 27.5969H9.69263C9.69263 27.4327 9.73072 27.2768 9.80689 27.1292C9.88306 26.9816 9.99375 26.8519 10.139 26.74C10.2842 26.6257 10.4567 26.5365 10.6567 26.4722C10.859 26.4079 11.0851 26.3758 11.3351 26.3758C11.635 26.3758 11.9016 26.4258 12.1349 26.5258C12.3682 26.6257 12.5515 26.7757 12.6848 26.9756C12.8204 27.1756 12.8883 27.4255 12.8883 27.7255V29.3786C12.8883 29.5905 12.9014 29.7643 12.9276 29.8999C12.9537 30.0332 12.9918 30.1499 13.0418 30.2498V30.3105H12.0028C11.9528 30.2058 11.9147 30.0749 11.8885 29.9178C11.8647 29.7583 11.8528 29.5988 11.8528 29.4393ZM11.9885 27.9576L11.9956 28.5396H11.4208C11.2851 28.5396 11.1673 28.555 11.0673 28.586C10.9673 28.6169 10.8852 28.6609 10.8209 28.7181C10.7567 28.7728 10.7091 28.8371 10.6781 28.9109C10.6495 28.9847 10.6353 29.0656 10.6353 29.1537C10.6353 29.2418 10.6555 29.3215 10.696 29.3929C10.7364 29.4619 10.7947 29.5167 10.8709 29.5572C10.9471 29.5952 11.0364 29.6143 11.1387 29.6143C11.2934 29.6143 11.4279 29.5833 11.5422 29.5215C11.6564 29.4596 11.7445 29.3834 11.8064 29.2929C11.8707 29.2025 11.904 29.1168 11.9064 29.0359L12.1777 29.4715C12.1397 29.5691 12.0873 29.6702 12.0206 29.775C11.9564 29.8797 11.8742 29.9785 11.7743 30.0713C11.6743 30.1618 11.5541 30.2368 11.4136 30.2963C11.2732 30.3534 11.1066 30.382 10.9138 30.382C10.6686 30.382 10.446 30.3332 10.2461 30.2356C10.0485 30.1356 9.89139 29.9987 9.77476 29.825C9.6605 29.6488 9.60337 29.4489 9.60337 29.2251C9.60337 29.0228 9.64145 28.843 9.71763 28.6859C9.7938 28.5288 9.90568 28.3967 10.0533 28.2896C10.2032 28.1801 10.3901 28.098 10.6138 28.0432C10.8376 27.9861 11.0971 27.9576 11.3922 27.9576H11.9885ZM15.4405 27.2899V30.3105H14.4122V26.4472H15.3798L15.4405 27.2899ZM16.6045 26.4222L16.5867 27.3755C16.5367 27.3684 16.476 27.3625 16.4046 27.3577C16.3355 27.3506 16.2725 27.347 16.2153 27.347C16.0701 27.347 15.944 27.366 15.8368 27.4041C15.7321 27.4398 15.644 27.4934 15.5726 27.5648C15.5036 27.6362 15.4512 27.7231 15.4155 27.8254C15.3822 27.9278 15.3632 28.0444 15.3584 28.1754L15.1513 28.1111C15.1513 27.8611 15.1763 27.6314 15.2263 27.422C15.2763 27.2101 15.3489 27.0256 15.4441 26.8685C15.5417 26.7114 15.6607 26.59 15.8011 26.5043C15.9416 26.4186 16.1023 26.3758 16.2832 26.3758C16.3403 26.3758 16.3986 26.3806 16.4581 26.3901C16.5176 26.3972 16.5664 26.4079 16.6045 26.4222ZM18.8283 27.272V30.3105H17.7999V26.4472H18.764L18.8283 27.272ZM18.6783 28.2432H18.3998C18.3998 27.9576 18.4367 27.7005 18.5105 27.472C18.5843 27.2411 18.6878 27.0447 18.8211 26.8828C18.9544 26.7186 19.1127 26.5936 19.296 26.5079C19.4817 26.4198 19.6888 26.3758 19.9173 26.3758C20.0982 26.3758 20.2636 26.402 20.4136 26.4543C20.5635 26.5067 20.6921 26.59 20.7992 26.7043C20.9087 26.8185 20.992 26.9697 21.0491 27.1577C21.1087 27.3458 21.1384 27.5755 21.1384 27.8469V30.3105H20.1029V27.8433C20.1029 27.6719 20.0791 27.5386 20.0315 27.4434C19.9839 27.3482 19.9137 27.2815 19.8209 27.2434C19.7304 27.203 19.6185 27.1827 19.4852 27.1827C19.3472 27.1827 19.227 27.2101 19.1246 27.2649C19.0246 27.3196 18.9413 27.3958 18.8747 27.4934C18.8104 27.5886 18.7616 27.7005 18.7283 27.829C18.695 27.9576 18.6783 28.0956 18.6783 28.2432ZM23.7371 26.4472V30.3105H22.7052V26.4472H23.7371ZM22.6409 25.4403C22.6409 25.2903 22.6933 25.1666 22.798 25.069C22.9027 24.9714 23.0432 24.9226 23.2193 24.9226C23.3931 24.9226 23.5323 24.9714 23.6371 25.069C23.7442 25.1666 23.7978 25.2903 23.7978 25.4403C23.7978 25.5903 23.7442 25.7141 23.6371 25.8116C23.5323 25.9092 23.3931 25.958 23.2193 25.958C23.0432 25.958 22.9027 25.9092 22.798 25.8116C22.6933 25.7141 22.6409 25.5903 22.6409 25.4403ZM26.325 27.272V30.3105H25.2967V26.4472H26.2607L26.325 27.272ZM26.175 28.2432H25.8965C25.8965 27.9576 25.9334 27.7005 26.0072 27.472C26.081 27.2411 26.1846 27.0447 26.3179 26.8828C26.4512 26.7186 26.6095 26.5936 26.7927 26.5079C26.9784 26.4198 27.1855 26.3758 27.414 26.3758C27.5949 26.3758 27.7604 26.402 27.9103 26.4543C28.0603 26.5067 28.1888 26.59 28.2959 26.7043C28.4054 26.8185 28.4888 26.9697 28.5459 27.1577C28.6054 27.3458 28.6352 27.5755 28.6352 27.8469V30.3105H27.5997V27.8433C27.5997 27.6719 27.5759 27.5386 27.5283 27.4434C27.4807 27.3482 27.4104 27.2815 27.3176 27.2434C27.2272 27.203 27.1153 27.1827 26.982 27.1827C26.8439 27.1827 26.7237 27.2101 26.6214 27.2649C26.5214 27.3196 26.4381 27.3958 26.3714 27.4934C26.3071 27.5886 26.2584 27.7005 26.225 27.829C26.1917 27.9576 26.175 28.0956 26.175 28.2432ZM32.5942 26.4472H33.5261V30.182C33.5261 30.5343 33.4475 30.833 33.2904 31.0782C33.1357 31.3258 32.9191 31.5126 32.6406 31.6388C32.3621 31.7673 32.0384 31.8316 31.6694 31.8316C31.5075 31.8316 31.3362 31.8102 31.1552 31.7673C30.9767 31.7245 30.8053 31.6578 30.6411 31.5674C30.4792 31.4769 30.3435 31.3627 30.234 31.2246L30.6875 30.6176C30.8065 30.7557 30.9446 30.8628 31.1017 30.939C31.2588 31.0175 31.4326 31.0568 31.623 31.0568C31.8087 31.0568 31.9658 31.0223 32.0943 30.9532C32.2228 30.8866 32.3216 30.7878 32.3907 30.6569C32.4597 30.5284 32.4942 30.3724 32.4942 30.1891V27.3398L32.5942 26.4472ZM29.9948 28.4253V28.3503C29.9948 28.0551 30.0305 27.7874 30.1019 27.5469C30.1757 27.3041 30.2793 27.0959 30.4126 26.9221C30.5483 26.7483 30.7125 26.6138 30.9053 26.5186C31.0981 26.4234 31.3159 26.3758 31.5587 26.3758C31.8158 26.3758 32.0312 26.4234 32.205 26.5186C32.3788 26.6138 32.5216 26.7495 32.6335 26.9257C32.7453 27.0994 32.8322 27.3053 32.8941 27.5434C32.9584 27.779 33.0084 28.0373 33.0441 28.3182V28.4824C33.0084 28.7514 32.9548 29.0013 32.8834 29.2322C32.812 29.4631 32.718 29.6655 32.6013 29.8392C32.4847 30.0106 32.3395 30.1439 32.1657 30.2391C31.9943 30.3344 31.7896 30.382 31.5516 30.382C31.3135 30.382 31.0981 30.3332 30.9053 30.2356C30.7149 30.138 30.5518 30.0011 30.4161 29.825C30.2805 29.6488 30.1757 29.4417 30.1019 29.2037C30.0305 28.9656 29.9948 28.7062 29.9948 28.4253ZM31.0231 28.3503V28.4253C31.0231 28.5848 31.0386 28.7336 31.0696 28.8716C31.1005 29.0097 31.1481 29.1323 31.2124 29.2394C31.279 29.3441 31.3612 29.4262 31.4587 29.4857C31.5587 29.5429 31.6765 29.5714 31.8122 29.5714C32.0003 29.5714 32.1538 29.5322 32.2728 29.4536C32.3919 29.3727 32.4811 29.262 32.5406 29.1216C32.6001 28.9811 32.6346 28.8192 32.6442 28.636V28.1682C32.6394 28.0182 32.6192 27.8838 32.5835 27.7647C32.5478 27.6433 32.4978 27.5398 32.4335 27.4541C32.3692 27.3684 32.2859 27.3018 32.1836 27.2542C32.0812 27.2065 31.9598 27.1827 31.8194 27.1827C31.6837 27.1827 31.5659 27.2137 31.4659 27.2756C31.3683 27.3351 31.2862 27.4172 31.2195 27.5219C31.1552 27.6267 31.1065 27.7505 31.0731 27.8933C31.0398 28.0337 31.0231 28.1861 31.0231 28.3503ZM38.9269 29.4857L39.9624 25.1118H40.5408L40.6729 25.8402L39.5696 30.3105H38.9483L38.9269 29.4857ZM38.3949 25.1118L39.2518 29.4857L39.1804 30.3105H38.4877L37.3345 25.1118H38.3949ZM41.5834 29.4679L42.4296 25.1118H43.4901L42.3404 30.3105H41.6477L41.5834 29.4679ZM40.8657 25.1118L41.9083 29.5036L41.8798 30.3105H41.2585L40.1481 25.8366L40.2909 25.1118H40.8657ZM45.8245 26.4472V30.3105H44.7926V26.4472H45.8245ZM44.7284 25.4403C44.7284 25.2903 44.7807 25.1666 44.8855 25.069C44.9902 24.9714 45.1306 24.9226 45.3068 24.9226C45.4806 24.9226 45.6198 24.9714 45.7245 25.069C45.8317 25.1666 45.8852 25.2903 45.8852 25.4403C45.8852 25.5903 45.8317 25.7141 45.7245 25.8116C45.6198 25.9092 45.4806 25.958 45.3068 25.958C45.1306 25.958 44.9902 25.9092 44.8855 25.8116C44.7807 25.7141 44.7284 25.5903 44.7284 25.4403ZM49.298 26.4472V27.1756H47.0485V26.4472H49.298ZM47.6055 25.4939H48.6338V29.1465C48.6338 29.2584 48.6481 29.3441 48.6767 29.4036C48.7076 29.4631 48.7529 29.5048 48.8124 29.5286C48.8719 29.55 48.9469 29.5607 49.0373 29.5607C49.1016 29.5607 49.1587 29.5583 49.2087 29.5536C49.2611 29.5464 49.3051 29.5393 49.3408 29.5322L49.3444 30.2891C49.2563 30.3177 49.1611 30.3403 49.0587 30.357C48.9564 30.3736 48.8433 30.382 48.7195 30.382C48.4934 30.382 48.2958 30.3451 48.1268 30.2713C47.9602 30.1951 47.8317 30.0737 47.7412 29.9071C47.6507 29.7404 47.6055 29.5215 47.6055 29.2501V25.4939ZM51.6181 24.8262V30.3105H50.5898V24.8262H51.6181ZM51.4717 28.2432H51.1896C51.192 27.9742 51.2277 27.7267 51.2968 27.5005C51.3658 27.272 51.4646 27.0744 51.5931 26.9078C51.7217 26.7388 51.8752 26.6079 52.0537 26.515C52.2346 26.4222 52.4346 26.3758 52.6536 26.3758C52.844 26.3758 53.0166 26.4032 53.1713 26.4579C53.3284 26.5103 53.4629 26.596 53.5748 26.715C53.689 26.8316 53.7771 26.9852 53.839 27.1756C53.9009 27.366 53.9318 27.5969 53.9318 27.8683V30.3105H52.8964V27.8611C52.8964 27.6898 52.8714 27.5553 52.8214 27.4577C52.7738 27.3577 52.7036 27.2875 52.6107 27.247C52.5203 27.2042 52.4084 27.1827 52.2751 27.1827C52.1275 27.1827 52.0014 27.2101 51.8966 27.2649C51.7943 27.3196 51.7121 27.3958 51.6502 27.4934C51.5884 27.5886 51.5431 27.7005 51.5146 27.829C51.486 27.9576 51.4717 28.0956 51.4717 28.2432ZM58.5507 25.1118H59.4576L60.793 28.9287L62.1284 25.1118H63.0353L61.1572 30.3105H60.4288L58.5507 25.1118ZM58.0615 25.1118H58.9649L59.1291 28.8323V30.3105H58.0615V25.1118ZM62.6211 25.1118H63.5281V30.3105H62.4569V28.8323L62.6211 25.1118ZM67.2193 29.4393V27.7183C67.2193 27.5945 67.1991 27.4886 67.1586 27.4005C67.1181 27.3101 67.0551 27.2399 66.9694 27.1899C66.886 27.1399 66.7777 27.1149 66.6444 27.1149C66.5302 27.1149 66.4314 27.1351 66.3481 27.1756C66.2648 27.2137 66.2005 27.2696 66.1553 27.3434C66.11 27.4148 66.0874 27.4993 66.0874 27.5969H65.0591C65.0591 27.4327 65.0972 27.2768 65.1734 27.1292C65.2495 26.9816 65.3602 26.8519 65.5054 26.74C65.6506 26.6257 65.8232 26.5365 66.0232 26.4722C66.2255 26.4079 66.4516 26.3758 66.7016 26.3758C67.0015 26.3758 67.2681 26.4258 67.5014 26.5258C67.7346 26.6257 67.9179 26.7757 68.0512 26.9756C68.1869 27.1756 68.2548 27.4255 68.2548 27.7255V29.3786C68.2548 29.5905 68.2679 29.7643 68.294 29.8999C68.3202 30.0332 68.3583 30.1499 68.4083 30.2498V30.3105H67.3693C67.3193 30.2058 67.2812 30.0749 67.255 29.9178C67.2312 29.7583 67.2193 29.5988 67.2193 29.4393ZM67.355 27.9576L67.3621 28.5396H66.7873C66.6516 28.5396 66.5338 28.555 66.4338 28.586C66.3338 28.6169 66.2517 28.6609 66.1874 28.7181C66.1231 28.7728 66.0755 28.8371 66.0446 28.9109C66.016 28.9847 66.0017 29.0656 66.0017 29.1537C66.0017 29.2418 66.022 29.3215 66.0624 29.3929C66.1029 29.4619 66.1612 29.5167 66.2374 29.5572C66.3136 29.5952 66.4028 29.6143 66.5052 29.6143C66.6599 29.6143 66.7944 29.5833 66.9087 29.5215C67.0229 29.4596 67.111 29.3834 67.1729 29.2929C67.2372 29.2025 67.2705 29.1168 67.2729 29.0359L67.5442 29.4715C67.5061 29.5691 67.4538 29.6702 67.3871 29.775C67.3228 29.8797 67.2407 29.9785 67.1407 30.0713C67.0408 30.1618 66.9206 30.2368 66.7801 30.2963C66.6397 30.3534 66.4731 30.382 66.2802 30.382C66.0351 30.382 65.8125 30.3332 65.6125 30.2356C65.415 30.1356 65.2579 29.9987 65.1412 29.825C65.027 29.6488 64.9698 29.4489 64.9698 29.2251C64.9698 29.0228 65.0079 28.843 65.0841 28.6859C65.1603 28.5288 65.2722 28.3967 65.4197 28.2896C65.5697 28.1801 65.7566 28.098 65.9803 28.0432C66.2041 27.9861 66.4635 27.9576 66.7587 27.9576H67.355ZM71.8674 29.243C71.8674 29.1692 71.846 29.1025 71.8032 29.043C71.7603 28.9835 71.6806 28.9287 71.5639 28.8788C71.4497 28.8264 71.2843 28.7788 71.0676 28.7359C70.8725 28.6931 70.6904 28.6395 70.5213 28.5753C70.3547 28.5086 70.2095 28.4289 70.0857 28.336C69.9643 28.2432 69.8691 28.1337 69.8001 28.0075C69.7311 27.879 69.6965 27.7326 69.6965 27.5684C69.6965 27.4065 69.7311 27.2542 69.8001 27.1113C69.8715 26.9685 69.9727 26.8423 70.1036 26.7328C70.2369 26.621 70.3988 26.5341 70.5892 26.4722C70.782 26.4079 70.9986 26.3758 71.239 26.3758C71.5747 26.3758 71.8627 26.4294 72.1031 26.5365C72.3459 26.6436 72.5316 26.7912 72.6601 26.9792C72.791 27.1649 72.8565 27.3767 72.8565 27.6148H71.8282C71.8282 27.5148 71.8067 27.4255 71.7639 27.347C71.7234 27.2661 71.6592 27.203 71.5711 27.1577C71.4854 27.1101 71.3735 27.0863 71.2355 27.0863C71.1212 27.0863 71.0224 27.1066 70.9391 27.147C70.8558 27.1851 70.7915 27.2375 70.7463 27.3041C70.7034 27.3684 70.682 27.4398 70.682 27.5184C70.682 27.5779 70.6939 27.6314 70.7177 27.679C70.7439 27.7243 70.7856 27.7659 70.8427 27.804C70.8998 27.8421 70.9736 27.8778 71.0641 27.9111C71.1569 27.9421 71.2712 27.9706 71.4068 27.9968C71.6853 28.054 71.9341 28.1289 72.1531 28.2218C72.3721 28.3122 72.5459 28.436 72.6744 28.5931C72.8029 28.7478 72.8672 28.9514 72.8672 29.2037C72.8672 29.3751 72.8291 29.5322 72.7529 29.675C72.6768 29.8178 72.5673 29.9428 72.4245 30.0499C72.2816 30.1546 72.1102 30.2368 71.9103 30.2963C71.7127 30.3534 71.4902 30.382 71.2426 30.382C70.8832 30.382 70.5785 30.3177 70.3285 30.1891C70.081 30.0606 69.8929 29.8976 69.7644 29.7C69.6382 29.5 69.5751 29.2953 69.5751 29.0858H70.5499C70.5547 29.2263 70.5904 29.3394 70.657 29.425C70.7261 29.5107 70.8129 29.5726 70.9177 29.6107C71.0248 29.6488 71.1402 29.6678 71.264 29.6678C71.3973 29.6678 71.508 29.65 71.5961 29.6143C71.6842 29.5762 71.7508 29.5262 71.796 29.4643C71.8436 29.4001 71.8674 29.3263 71.8674 29.243ZM76.1585 26.4472V27.1756H73.9091V26.4472H76.1585ZM74.4661 25.4939H75.4944V29.1465C75.4944 29.2584 75.5087 29.3441 75.5373 29.4036C75.5682 29.4631 75.6134 29.5048 75.673 29.5286C75.7325 29.55 75.8074 29.5607 75.8979 29.5607C75.9622 29.5607 76.0193 29.5583 76.0693 29.5536C76.1217 29.5464 76.1657 29.5393 76.2014 29.5322L76.205 30.2891C76.1169 30.3177 76.0217 30.3403 75.9193 30.357C75.817 30.3736 75.7039 30.382 75.5801 30.382C75.354 30.382 75.1564 30.3451 74.9874 30.2713C74.8208 30.1951 74.6922 30.0737 74.6018 29.9071C74.5113 29.7404 74.4661 29.5215 74.4661 29.2501V25.4939ZM79.2535 30.382C78.9536 30.382 78.6846 30.3344 78.4466 30.2391C78.2085 30.1415 78.0062 30.007 77.8396 29.8357C77.6753 29.6643 77.5492 29.4655 77.4611 29.2394C77.373 29.0109 77.329 28.7681 77.329 28.511V28.3682C77.329 28.0754 77.3706 27.8076 77.4539 27.5648C77.5373 27.322 77.6563 27.1113 77.811 26.9328C77.9681 26.7543 78.1585 26.6174 78.3823 26.5222C78.606 26.4246 78.8584 26.3758 79.1392 26.3758C79.413 26.3758 79.6558 26.421 79.8676 26.5115C80.0795 26.6019 80.2568 26.7305 80.3997 26.8971C80.5449 27.0637 80.6544 27.2637 80.7281 27.4969C80.8019 27.7278 80.8388 27.9849 80.8388 28.2682V28.6967H77.7682V28.0111H79.8284V27.9326C79.8284 27.7897 79.8022 27.6624 79.7498 27.5505C79.6998 27.4362 79.6236 27.3458 79.5213 27.2791C79.4189 27.2125 79.288 27.1792 79.1285 27.1792C78.9929 27.1792 78.8762 27.2089 78.7786 27.2684C78.681 27.3279 78.6013 27.4113 78.5394 27.5184C78.4799 27.6255 78.4347 27.7516 78.4037 27.8969C78.3751 28.0397 78.3609 28.1968 78.3609 28.3682V28.511C78.3609 28.6657 78.3823 28.8085 78.4251 28.9395C78.4704 29.0704 78.5334 29.1834 78.6144 29.2787C78.6977 29.3739 78.7977 29.4477 78.9143 29.5C79.0333 29.5524 79.1678 29.5786 79.3178 29.5786C79.5034 29.5786 79.676 29.5429 79.8355 29.4715C79.9974 29.3977 80.1366 29.287 80.2533 29.1394L80.7531 29.6821C80.6722 29.7988 80.5615 29.9106 80.4211 30.0178C80.283 30.1249 80.1164 30.213 79.9212 30.282C79.726 30.3486 79.5034 30.382 79.2535 30.382ZM83.184 27.2899V30.3105H82.1557V26.4472H83.1233L83.184 27.2899ZM84.348 26.4222L84.3301 27.3755C84.2801 27.3684 84.2194 27.3625 84.148 27.3577C84.079 27.3506 84.0159 27.347 83.9588 27.347C83.8136 27.347 83.6874 27.366 83.5803 27.4041C83.4756 27.4398 83.3875 27.4934 83.3161 27.5648C83.2471 27.6362 83.1947 27.7231 83.159 27.8254C83.1257 27.9278 83.1066 28.0444 83.1019 28.1754L82.8948 28.1111C82.8948 27.8611 82.9198 27.6314 82.9697 27.422C83.0197 27.2101 83.0923 27.0256 83.1875 26.8685C83.2851 26.7114 83.4042 26.59 83.5446 26.5043C83.685 26.4186 83.8457 26.3758 84.0266 26.3758C84.0838 26.3758 84.1421 26.3806 84.2016 26.3901C84.2611 26.3972 84.3099 26.4079 84.348 26.4222ZM85.0507 29.8142C85.0507 29.6619 85.103 29.5345 85.2078 29.4322C85.3149 29.3298 85.4565 29.2787 85.6327 29.2787C85.8088 29.2787 85.9492 29.3298 86.054 29.4322C86.1611 29.5345 86.2147 29.6619 86.2147 29.8142C86.2147 29.9666 86.1611 30.0939 86.054 30.1963C85.9492 30.2986 85.8088 30.3498 85.6327 30.3498C85.4565 30.3498 85.3149 30.2986 85.2078 30.1963C85.103 30.0939 85.0507 29.9666 85.0507 29.8142Z" fill="#424242"/>
</svg>
