<svg width="144" height="54" viewBox="0 0 144 54" fill="none" xmlns="http://www.w3.org/2000/svg">
<path d="M22.6782 34H16.7139V23.6094H7.87842V34H1.87988V9.11719H7.87842V18.9951H16.7139V9.11719H22.6782V34ZM51.761 22.0713C51.761 24.498 51.311 26.6457 50.4109 28.5142C49.5109 30.3826 48.2291 31.8239 46.5657 32.8379C44.9137 33.8405 43.0281 34.3418 40.909 34.3418C38.7898 34.3418 36.91 33.8576 35.2693 32.8892C33.6287 31.9093 32.347 30.5137 31.4241 28.7021C30.5127 26.8906 30.0341 24.8114 29.9886 22.4644V21.063C29.9886 18.6248 30.4329 16.4772 31.3216 14.6201C32.2216 12.7516 33.5034 11.3104 35.1668 10.2964C36.8416 9.28239 38.7443 8.77539 40.8748 8.77539C42.9826 8.77539 44.8624 9.27669 46.5145 10.2793C48.1665 11.2819 49.4482 12.7118 50.3597 14.5688C51.2825 16.4146 51.7496 18.5337 51.761 20.9263V22.0713ZM45.66 21.0288C45.66 18.5565 45.2441 16.6823 44.4124 15.4062C43.5921 14.1188 42.4129 13.4751 40.8748 13.4751C37.867 13.4751 36.2776 15.731 36.1067 20.2427L36.0896 22.0713C36.0896 24.5094 36.4941 26.3836 37.303 27.6938C38.1119 29.0041 39.3139 29.6592 40.909 29.6592C42.4243 29.6592 43.5921 29.0155 44.4124 27.728C45.2327 26.4406 45.6486 24.5892 45.66 22.1738V21.0288ZM65.0528 29.3857H75.4947V34H59.0543V9.11719H65.0528V29.3857ZM96.6991 29.3516H88.4789L87.0434 34H80.6347L89.7606 9.11719H95.4003L104.595 34H98.1518L96.6991 29.3516ZM89.9145 24.7202H95.2636L92.5805 16.0898L89.9145 24.7202ZM124.458 25.005H128.028L128.973 13.035L129.148 7.82H123.338L123.513 13.035L124.458 25.005ZM126.243 34.315C127.993 34.315 129.323 33.055 129.323 31.235C129.323 29.38 127.993 28.12 126.243 28.12C124.493 28.12 123.163 29.38 123.163 31.235C123.163 33.055 124.458 34.315 126.243 34.315Z" fill="#FF9262"/>
<path d="M2.51953 49.5879H6.25195V51H0.761719V42.4688H2.51953V49.5879ZM11.2723 51.1172C10.3426 51.1172 9.58477 50.832 8.99883 50.2617C8.4168 49.6914 8.12578 48.9316 8.12578 47.9824V47.8184C8.12578 47.1816 8.24883 46.6133 8.49492 46.1133C8.74102 45.6094 9.08867 45.2227 9.53789 44.9531C9.99102 44.6797 10.5066 44.543 11.0848 44.543C11.952 44.543 12.6336 44.8164 13.1297 45.3633C13.6297 45.9102 13.8797 46.6855 13.8797 47.6895V48.3809H9.84258C9.89727 48.7949 10.0613 49.127 10.3348 49.377C10.6121 49.627 10.9617 49.752 11.3836 49.752C12.0359 49.752 12.5457 49.5156 12.9129 49.043L13.7449 49.9746C13.491 50.334 13.1473 50.6152 12.7137 50.8184C12.2801 51.0176 11.7996 51.1172 11.2723 51.1172ZM11.0789 45.9141C10.743 45.9141 10.4695 46.0273 10.2586 46.2539C10.0516 46.4805 9.91875 46.8047 9.86016 47.2266H12.2156V47.0918C12.2078 46.7168 12.1062 46.4277 11.9109 46.2246C11.7156 46.0176 11.4383 45.9141 11.0789 45.9141ZM19.7203 51C19.6422 50.8477 19.5855 50.6582 19.5504 50.4316C19.1402 50.8887 18.607 51.1172 17.9508 51.1172C17.3297 51.1172 16.8141 50.9375 16.4039 50.5781C15.9977 50.2188 15.7945 49.7656 15.7945 49.2188C15.7945 48.5469 16.0426 48.0312 16.5387 47.6719C17.0387 47.3125 17.7594 47.1309 18.7008 47.127H19.4801V46.7637C19.4801 46.4707 19.4039 46.2363 19.2516 46.0605C19.1031 45.8848 18.8668 45.7969 18.5426 45.7969C18.2574 45.7969 18.0328 45.8652 17.8687 46.002C17.7086 46.1387 17.6285 46.3262 17.6285 46.5645H15.9352C15.9352 46.1973 16.0484 45.8574 16.275 45.5449C16.5016 45.2324 16.8219 44.9883 17.2359 44.8125C17.65 44.6328 18.1148 44.543 18.6305 44.543C19.4117 44.543 20.0309 44.7402 20.4879 45.1348C20.9488 45.5254 21.1793 46.0762 21.1793 46.7871V49.5352C21.1832 50.1367 21.2672 50.5918 21.4312 50.9004V51H19.7203ZM18.3199 49.8223C18.5699 49.8223 18.8004 49.7676 19.0113 49.6582C19.2223 49.5449 19.3785 49.3945 19.4801 49.207V48.1172H18.8473C17.9996 48.1172 17.5484 48.4102 17.4937 48.9961L17.4879 49.0957C17.4879 49.3066 17.5621 49.4805 17.7105 49.6172C17.859 49.7539 18.0621 49.8223 18.3199 49.8223ZM27.2426 46.248C27.0121 46.2168 26.809 46.2012 26.6332 46.2012C25.9926 46.2012 25.5727 46.418 25.3734 46.8516V51H23.6801V44.6602H25.2797L25.3266 45.416C25.6664 44.834 26.1371 44.543 26.7387 44.543C26.9262 44.543 27.102 44.5684 27.266 44.6191L27.2426 46.248ZM30.8215 44.6602L30.8742 45.3926C31.3273 44.8262 31.9348 44.543 32.6965 44.543C33.3684 44.543 33.8684 44.7402 34.1965 45.1348C34.5246 45.5293 34.6926 46.1191 34.7004 46.9043V51H33.007V46.9453C33.007 46.5859 32.9289 46.3262 32.7727 46.166C32.6164 46.002 32.3566 45.9199 31.9934 45.9199C31.5168 45.9199 31.1594 46.123 30.9211 46.5293V51H29.2277V44.6602H30.8215ZM38.9766 51H37.2773V44.6602H38.9766V51ZM37.1777 43.0195C37.1777 42.7656 37.2617 42.5566 37.4297 42.3926C37.6016 42.2285 37.834 42.1465 38.127 42.1465C38.416 42.1465 38.6465 42.2285 38.8184 42.3926C38.9902 42.5566 39.0762 42.7656 39.0762 43.0195C39.0762 43.2773 38.9883 43.4883 38.8125 43.6523C38.6406 43.8164 38.4121 43.8984 38.127 43.8984C37.8418 43.8984 37.6113 43.8164 37.4355 43.6523C37.2637 43.4883 37.1777 43.2773 37.1777 43.0195ZM43.1355 44.6602L43.1883 45.3926C43.6414 44.8262 44.2488 44.543 45.0105 44.543C45.6824 44.543 46.1824 44.7402 46.5105 45.1348C46.8387 45.5293 47.0066 46.1191 47.0145 46.9043V51H45.3211V46.9453C45.3211 46.5859 45.243 46.3262 45.0867 46.166C44.9305 46.002 44.6707 45.9199 44.3074 45.9199C43.8309 45.9199 43.4734 46.123 43.2352 46.5293V51H41.5418V44.6602H43.1355ZM49.2574 47.7832C49.2574 46.8105 49.4879 46.0273 49.9488 45.4336C50.4137 44.8398 51.0387 44.543 51.8238 44.543C52.5191 44.543 53.0602 44.7812 53.4469 45.2578L53.5172 44.6602H55.0523V50.7891C55.0523 51.3438 54.9254 51.8262 54.6715 52.2363C54.4215 52.6465 54.068 52.959 53.6109 53.1738C53.1539 53.3887 52.6188 53.4961 52.0055 53.4961C51.5406 53.4961 51.0875 53.4023 50.6461 53.2148C50.2047 53.0312 49.8707 52.793 49.6441 52.5L50.3941 51.4688C50.816 51.9414 51.3277 52.1777 51.9293 52.1777C52.3785 52.1777 52.7281 52.0566 52.9781 51.8145C53.2281 51.5762 53.3531 51.2363 53.3531 50.7949V50.4551C52.9625 50.8965 52.4488 51.1172 51.8121 51.1172C51.0504 51.1172 50.4332 50.8203 49.9605 50.2266C49.4918 49.6289 49.2574 48.8379 49.2574 47.8535V47.7832ZM50.9508 47.9062C50.9508 48.4805 51.066 48.9316 51.2965 49.2598C51.527 49.584 51.8434 49.7461 52.2457 49.7461C52.7613 49.7461 53.1305 49.5527 53.3531 49.166V46.5C53.1266 46.1133 52.7613 45.9199 52.2574 45.9199C51.8512 45.9199 51.5309 46.0859 51.2965 46.418C51.066 46.75 50.9508 47.2461 50.9508 47.9062ZM68.5031 48.5391L69.6516 42.4688H71.4035L69.5109 51H67.7414L66.3527 45.293L64.9641 51H63.1945L61.302 42.4688H63.0539L64.2082 48.5273L65.6145 42.4688H67.1027L68.5031 48.5391ZM75.2344 51H73.5352V44.6602H75.2344V51ZM73.4355 43.0195C73.4355 42.7656 73.5195 42.5566 73.6875 42.3926C73.8594 42.2285 74.0918 42.1465 74.3848 42.1465C74.6738 42.1465 74.9043 42.2285 75.0762 42.3926C75.248 42.5566 75.334 42.7656 75.334 43.0195C75.334 43.2773 75.2461 43.4883 75.0703 43.6523C74.8984 43.8164 74.6699 43.8984 74.3848 43.8984C74.0996 43.8984 73.8691 43.8164 73.6934 43.6523C73.5215 43.4883 73.4355 43.2773 73.4355 43.0195ZM79.8621 43.1016V44.6602H80.9461V45.9023H79.8621V49.0664C79.8621 49.3008 79.907 49.4688 79.9969 49.5703C80.0867 49.6719 80.2586 49.7227 80.5125 49.7227C80.7 49.7227 80.866 49.709 81.0105 49.6816V50.9648C80.6785 51.0664 80.3367 51.1172 79.9852 51.1172C78.7977 51.1172 78.1922 50.5176 78.1687 49.3184V45.9023H77.243V44.6602H78.1687V43.1016H79.8621ZM84.7418 45.3516C85.191 44.8125 85.7555 44.543 86.4352 44.543C87.8102 44.543 88.5074 45.3418 88.527 46.9395V51H86.8336V46.9863C86.8336 46.623 86.7555 46.3555 86.5992 46.1836C86.443 46.0078 86.1832 45.9199 85.8199 45.9199C85.3238 45.9199 84.9645 46.1113 84.7418 46.4941V51H83.0484V42H84.7418V45.3516ZM97.6008 42.4688L99.7922 48.6562L101.972 42.4688H104.28V51H102.517V48.668L102.693 44.6426L100.39 51H99.1828L96.8859 44.6484L97.0617 48.668V51H95.3039V42.4688H97.6008ZM110.578 51C110.5 50.8477 110.443 50.6582 110.408 50.4316C109.998 50.8887 109.465 51.1172 108.809 51.1172C108.188 51.1172 107.672 50.9375 107.262 50.5781C106.855 50.2188 106.652 49.7656 106.652 49.2188C106.652 48.5469 106.9 48.0312 107.396 47.6719C107.896 47.3125 108.617 47.1309 109.559 47.127H110.338V46.7637C110.338 46.4707 110.262 46.2363 110.109 46.0605C109.961 45.8848 109.725 45.7969 109.4 45.7969C109.115 45.7969 108.891 45.8652 108.727 46.002C108.566 46.1387 108.486 46.3262 108.486 46.5645H106.793C106.793 46.1973 106.906 45.8574 107.133 45.5449C107.359 45.2324 107.68 44.9883 108.094 44.8125C108.508 44.6328 108.973 44.543 109.488 44.543C110.27 44.543 110.889 44.7402 111.346 45.1348C111.807 45.5254 112.037 46.0762 112.037 46.7871V49.5352C112.041 50.1367 112.125 50.5918 112.289 50.9004V51H110.578ZM109.178 49.8223C109.428 49.8223 109.658 49.7676 109.869 49.6582C110.08 49.5449 110.236 49.3945 110.338 49.207V48.1172H109.705C108.857 48.1172 108.406 48.4102 108.352 48.9961L108.346 49.0957C108.346 49.3066 108.42 49.4805 108.568 49.6172C108.717 49.7539 108.92 49.8223 109.178 49.8223ZM117.971 49.248C117.971 49.041 117.868 48.8789 117.661 48.7617C117.458 48.6406 117.13 48.5332 116.677 48.4395C115.169 48.123 114.415 47.4824 114.415 46.5176C114.415 45.9551 114.647 45.4863 115.112 45.1113C115.581 44.7324 116.192 44.543 116.946 44.543C117.751 44.543 118.393 44.7324 118.874 45.1113C119.358 45.4902 119.6 45.9824 119.6 46.5879H117.907C117.907 46.3457 117.829 46.1465 117.673 45.9902C117.516 45.8301 117.272 45.75 116.94 45.75C116.655 45.75 116.434 45.8145 116.278 45.9434C116.122 46.0723 116.044 46.2363 116.044 46.4355C116.044 46.623 116.132 46.7754 116.307 46.8926C116.487 47.0059 116.788 47.1055 117.21 47.1914C117.632 47.2734 117.987 47.3672 118.276 47.4727C119.171 47.8008 119.618 48.3691 119.618 49.1777C119.618 49.7559 119.37 50.2246 118.874 50.584C118.378 50.9395 117.737 51.1172 116.952 51.1172C116.421 51.1172 115.948 51.0234 115.534 50.8359C115.124 50.6445 114.802 50.3848 114.567 50.0566C114.333 49.7246 114.216 49.3672 114.216 48.9844H115.821C115.837 49.2852 115.948 49.5156 116.155 49.6758C116.362 49.8359 116.639 49.916 116.987 49.916C117.311 49.916 117.555 49.8555 117.72 49.7344C117.887 49.6094 117.971 49.4473 117.971 49.248ZM123.941 43.1016V44.6602H125.025V45.9023H123.941V49.0664C123.941 49.3008 123.986 49.4688 124.076 49.5703C124.166 49.6719 124.338 49.7227 124.591 49.7227C124.779 49.7227 124.945 49.709 125.089 49.6816V50.9648C124.757 51.0664 124.416 51.1172 124.064 51.1172C122.877 51.1172 122.271 50.5176 122.248 49.3184V45.9023H121.322V44.6602H122.248V43.1016H123.941ZM130.086 51.1172C129.157 51.1172 128.399 50.832 127.813 50.2617C127.231 49.6914 126.94 48.9316 126.94 47.9824V47.8184C126.94 47.1816 127.063 46.6133 127.309 46.1133C127.555 45.6094 127.903 45.2227 128.352 44.9531C128.805 44.6797 129.321 44.543 129.899 44.543C130.766 44.543 131.448 44.8164 131.944 45.3633C132.444 45.9102 132.694 46.6855 132.694 47.6895V48.3809H128.657C128.711 48.7949 128.875 49.127 129.149 49.377C129.426 49.627 129.776 49.752 130.198 49.752C130.85 49.752 131.36 49.5156 131.727 49.043L132.559 49.9746C132.305 50.334 131.961 50.6152 131.528 50.8184C131.094 51.0176 130.614 51.1172 130.086 51.1172ZM129.893 45.9141C129.557 45.9141 129.284 46.0273 129.073 46.2539C128.866 46.4805 128.733 46.8047 128.674 47.2266H131.03V47.0918C131.022 46.7168 130.92 46.4277 130.725 46.2246C130.53 46.0176 130.252 45.9141 129.893 45.9141ZM138.423 46.248C138.193 46.2168 137.989 46.2012 137.814 46.2012C137.173 46.2012 136.753 46.418 136.554 46.8516V51H134.861V44.6602H136.46L136.507 45.416C136.847 44.834 137.318 44.543 137.919 44.543C138.107 44.543 138.282 44.5684 138.446 44.6191L138.423 46.248ZM139.512 50.168C139.512 49.8984 139.602 49.6797 139.781 49.5117C139.965 49.3438 140.193 49.2598 140.467 49.2598C140.744 49.2598 140.973 49.3438 141.152 49.5117C141.336 49.6797 141.428 49.8984 141.428 50.168C141.428 50.4336 141.338 50.6504 141.158 50.8184C140.979 50.9824 140.748 51.0645 140.467 51.0645C140.189 51.0645 139.961 50.9824 139.781 50.8184C139.602 50.6504 139.512 50.4336 139.512 50.168Z" fill="#FF9262"/>
</svg>
