<svg width="303" height="61" viewBox="0 0 303 61" fill="none" xmlns="http://www.w3.org/2000/svg">
<path d="M178 24.92C177.74 25.66 177.36 26.54 176.92 27.46C176.1 26.8 175.08 26.18 173.84 25.66L173.68 25.82C174.82 26.72 175.64 27.7 176.24 28.74C175.44 30.16 174.46 31.58 173.42 32.68L173.58 32.86C174.84 32.22 176 31.4 177.04 30.52C177.08 30.68 177.14 30.84 177.18 31.02C176.54 33.64 175.22 36.32 173.3 38.4L173.44 38.56C175.12 37.74 176.62 36.7 177.68 35.62C177.68 37.84 177.54 39.72 176.9 40.58C176.74 40.8 176.56 40.86 176.22 40.86C175.48 40.86 174.06 40.76 174.06 40.76V41C174.78 41.2 175.24 41.54 175.5 41.86C175.78 42.22 175.9 42.92 175.9 43.9C177.3 43.9 178.4 43.58 179 42.78C180.24 41.16 180.52 38.42 180.4 35.62C180.28 33.24 179.88 31.02 178.52 29.14C179.26 28.36 179.9 27.58 180.44 26.86C180.92 26.92 181.12 26.78 181.22 26.58L178 24.92ZM188.6 42.4H187.56V34.66H191.52C191.82 34.66 192.02 34.56 192.08 34.34C191.2 33.52 189.7 32.32 189.7 32.32L188.38 34.1H187.56V27.74H191.78C192.08 27.74 192.3 27.64 192.36 27.42C191.4 26.56 189.76 25.3 189.76 25.3L188.32 27.18H180.8L180.96 27.74H184.5V34.1H180.94L181.1 34.66H184.5V42.4H179.76L179.92 42.96H192.22C192.5 42.96 192.74 42.86 192.8 42.64C191.8 41.74 190.1 40.42 190.1 40.42L188.6 42.4ZM206.06 33.2V35.04H203.8V33.2H206.06ZM208.58 26.66V28.14H201.62V26.66H208.58ZM201.62 30.02V28.7H208.58V30.02H201.62ZM213.5 35.6C213.8 35.6 214.02 35.5 214.06 35.28C213.12 34.48 211.56 33.34 211.56 33.34L210.18 35.04H208.9V33.2H211.92C212.2 33.2 212.42 33.1 212.48 32.88C211.56 32.1 210.08 31.02 210.08 31.02L208.9 32.46V31.56C209.32 31.48 209.42 31.32 209.46 31.1L206.06 30.82V32.64H203.8V31.56C204.22 31.48 204.32 31.32 204.36 31.1L201.48 30.86C201.58 30.8 201.62 30.74 201.62 30.68V30.58H208.58V30.98H209.08C209.98 30.98 211.46 30.54 211.48 30.42V27.12C211.9 27.04 212.14 26.84 212.26 26.68L209.62 24.72L208.38 26.1H201.78L198.78 24.96V31.54H199.18C199.82 31.54 200.48 31.36 200.96 31.16V32.64H197.5L197.66 33.2H200.96V35.04H196.1L196.26 35.6H200.2C199.12 37.2 197.42 38.78 195.34 39.82L195.48 40.06C197.44 39.56 199.26 38.86 200.78 37.96C200.94 38.34 201.06 38.78 201.04 39.18C202.62 40.38 204.32 37.98 201.94 37.18C202.58 36.7 203.14 36.18 203.6 35.6H207.96C208.36 36.38 208.82 37.1 209.36 37.72L207.44 36.62C207.3 37.18 206.94 38.24 206.6 39.04L206.34 39.02V36.66C206.76 36.6 206.96 36.46 207 36.16L203.64 35.88V39.22C201.22 39.94 199 40.54 197.96 40.78L199.48 43.18C199.7 43.1 199.86 42.9 199.94 42.62C201.46 41.64 202.68 40.8 203.64 40.1V41.28C203.64 41.46 203.58 41.52 203.38 41.52C203.12 41.52 202.02 41.44 202.02 41.44V41.68C202.74 41.82 202.96 42.1 203.12 42.38C203.32 42.7 203.34 43.22 203.38 43.92C205.98 43.72 206.34 42.94 206.34 41.26V39.76C207.84 40.82 209.02 42.04 209.52 42.74C211.58 43.7 213.1 40.04 207.58 39.16C208.34 38.92 209.1 38.66 209.54 38.46C209.76 38.52 209.94 38.52 210.08 38.46C210.84 39.16 211.74 39.74 212.78 40.2C213.08 38.86 213.76 37.98 214.74 37.7L214.78 37.46C212.68 37.24 210.24 36.58 208.68 35.6H213.5ZM230.42 29.54C230.34 31.66 229.88 33.72 229.14 35.28C228.84 34.84 228.56 34.36 228.34 33.86V28.9H235.66C235.96 28.9 236.2 28.8 236.26 28.58C235.18 27.7 233.42 26.4 233.42 26.4L231.84 28.34H228.34V25.94C228.9 25.86 229.04 25.66 229.08 25.38L225.4 25.02V28.34H217.78L217.94 28.9H225.4V33.24C224.06 37.04 220.96 40.76 217.5 42.64L217.64 42.88C220.68 41.94 223.42 40.3 225.4 38.48V43.92H225.96C227.06 43.92 228.34 43.2 228.34 42.9V34.76C229.38 38.7 231.12 41.24 234.2 42.82C234.52 41.44 235.36 40.52 236.42 40.26L236.46 40.02C233.78 39.38 231.16 37.9 229.46 35.72C230.5 35.08 231.36 34.22 232.06 33.1C232.52 33.88 232.92 34.78 233.08 35.64C235.32 37.22 237.34 33.3 232.56 32.14C232.78 31.72 232.96 31.26 233.12 30.78C233.58 30.76 233.82 30.58 233.88 30.32L230.42 29.54ZM220.94 29.56C220.6 32.36 219.58 34.96 218.34 36.68L218.56 36.84C219.98 36.08 221.18 35.02 222.16 33.56C222.28 34.02 222.36 34.5 222.36 34.96C224.16 36.6 226.5 33.6 222.9 32.34C223.12 31.9 223.32 31.44 223.52 30.94C223.96 30.94 224.22 30.76 224.3 30.5L220.94 29.56ZM254.22 37.62C253.9 38.14 253.38 38.88 252.82 39.5C251.78 39.02 250.88 38.42 250.22 37.62H254.22ZM243.42 31.22H246.18V32.86C245.18 33.1 244.1 33.3 243.3 33.4C243.36 33.06 243.4 32.74 243.42 32.42C244.12 32.58 244.74 32.84 245.06 33.02C246.38 33.04 246.3 30.66 243.42 31.82V31.22ZM249.6 29.7H249.64V34.18C249.64 34.56 249.64 34.88 249.68 35.14C249.38 35.02 248.98 34.92 248.48 34.9C248.48 34.8 248.48 34.68 248.48 34.56V31.62C248.9 31.54 249.18 31.36 249.3 31.2L247.28 29.7H249.6ZM245.38 27.34C245.34 27.9 245.26 28.6 245.2 29.14H243.38C244.14 28.84 244.4 27.86 242.6 27.34H245.38ZM254.74 30V30.3L254.3 30.78H252.2V30H254.74ZM252.16 27.9V26.9H255.54L254.58 27.9H252.16ZM254.3 32.12H252.2V31.34H255.02L254.3 32.12ZM254.68 33.48H252.2V32.68H255.4L254.68 33.48ZM254.96 36.38L254.46 37.06H250.04C250.32 36.84 250.48 36.54 250.5 36.22C250.94 36.36 251.6 36.38 252.58 36.38H254.96ZM254.46 37.62H257.74C258.04 37.62 258.26 37.52 258.32 37.3C257.98 36.98 257.56 36.62 257.16 36.26C257.98 36.12 258.2 35.82 258.2 35.3C258.2 34.98 258.02 34.88 257.24 34.64L257.16 34.04H256.98C256.66 34.46 256.36 34.64 256.2 34.7C256.02 34.74 255.8 34.74 255.52 34.74H252.88C252.24 34.74 252.2 34.74 252.2 34.18V34.04H256.82C257.1 34.04 257.3 33.94 257.34 33.72C256.9 33.36 256.3 32.94 255.92 32.68H256.3C256.56 32.68 256.76 32.58 256.8 32.36C256.36 32 255.78 31.58 255.44 31.34H256.32C256.58 31.34 256.78 31.24 256.82 31.02C256.56 30.8 256.24 30.56 255.94 30.34C256.62 30.2 257.28 29.9 257.3 29.76V28.7C257.58 28.64 257.76 28.52 257.84 28.4L255.78 26.9H257.52C257.8 26.9 258.02 26.8 258.06 26.58C257.24 25.9 255.94 24.98 255.94 24.98L254.78 26.34H252.16V25.7C252.64 25.62 252.82 25.46 252.86 25.24L249.6 24.86V27.74C249.46 27.9 249.34 28.08 249.26 28.22L251.7 29.1L252.22 28.46H254.74V29.44H251.98L249.64 28.58V28.96C248.98 28.42 248.24 27.86 248.24 27.86L247.2 29.14H245.88C246.4 28.8 246.94 28.44 247.32 28.12C247.74 28.14 247.98 27.94 248.04 27.7L246.46 27.34H248.42C248.7 27.34 248.9 27.24 248.94 27.02C248.24 26.4 247.12 25.56 247.12 25.56L246.14 26.78H244.84C246.02 26.52 246.52 24.82 243.3 24.92L243.14 25.02C243.36 25.32 243.6 25.92 243.58 26.48C243.78 26.64 244 26.74 244.2 26.78H240.2L240.36 27.34H241.74C241.86 27.68 241.92 28.24 241.8 28.74C241.98 28.94 242.16 29.06 242.36 29.14H239.68L239.84 29.7H246.82L245.98 30.66H243.8L241.12 29.72V32.22C241.12 33.66 240.96 35.42 239.8 36.62L239.96 36.8C241.78 36.14 242.68 35.12 243.1 34.04L243.7 35.38C243.9 35.32 244.08 35.16 244.16 34.9C244.98 34.36 245.64 33.86 246.18 33.42V34.4C246.18 34.6 246.12 34.72 245.9 34.72C245.62 34.72 244.88 34.66 244.88 34.66V34.92C245.46 35.04 245.66 35.24 245.8 35.48C245.94 35.74 245.98 36.16 245.98 36.72C246.96 36.64 247.56 36.46 247.94 36.16C248.1 36.46 248.24 36.76 248.32 37.06H239.64L239.8 37.62H246.04C244.5 38.88 242.14 40.04 239.42 40.76L239.5 41C241.3 40.82 243.02 40.54 244.58 40.14V40.36C244.58 40.76 244.42 40.98 243.42 41.56L245.14 44.16C245.32 44.04 245.52 43.86 245.68 43.6C247.84 42.16 249.56 40.76 250.42 40L250.38 39.8C249.36 40.06 248.34 40.3 247.4 40.52V39.22C248.34 38.84 249.18 38.4 249.88 37.88C251.1 40.96 253.32 42.56 256.36 43.66C256.64 42.3 257.32 41.38 258.4 41.08L258.42 40.84C257.06 40.7 255.66 40.46 254.36 40.06C255.06 39.94 255.74 39.8 256.28 39.62C256.74 39.72 256.94 39.62 257.04 39.42L254.46 37.62ZM273.58 25.02C274.16 25.98 274.68 27.36 274.68 28.62C276.9 30.58 279.5 26.18 273.74 24.92L273.58 25.02ZM264.08 37.38V28.26H264.9V37.38H264.08ZM272.78 32.98C272.24 33.14 271.68 33.3 271.14 33.46V30.06H272.86C273.06 30.06 273.22 30 273.3 29.88H280.14C280.42 29.88 280.64 29.78 280.68 29.56C279.88 28.72 278.44 27.46 278.44 27.46L277.16 29.32H273.04C272.5 28.68 271.84 27.96 271.84 27.96L271.14 29.16V25.82C271.64 25.74 271.84 25.54 271.88 25.24L268.68 24.94V29.5H267.26L267.42 30.06H268.68V34.16C268.04 34.32 267.5 34.46 267.08 34.58V28.52C267.38 28.44 267.62 28.32 267.72 28.18L265.72 26.64L264.72 27.7H264.16L262 26.78V40.92H262.34C263.28 40.92 264.08 40.42 264.08 40.16V37.94H264.9V39.64H265.26C266.02 39.64 267.06 39.18 267.08 39.02V35.98L267.66 37.62C267.92 37.54 268.12 37.3 268.2 37.04L268.68 36.68V40.62C268.68 40.84 268.6 40.92 268.32 40.92C267.96 40.92 266.46 40.82 266.46 40.82V41.1C267.26 41.28 267.6 41.54 267.86 41.96C268.1 42.38 268.18 43.02 268.22 43.9C270.82 43.64 271.14 42.64 271.14 40.86V34.68C271.84 34.08 272.4 33.56 272.82 33.16L272.78 32.98ZM272.56 31.22C273.12 33.92 273.54 37.16 273.26 39.98C275.68 42.62 277.66 36.64 272.86 31.16L272.56 31.22ZM277.18 42.56H276.64C278.02 39.16 279.22 34.88 279.82 32.16C280.32 32.12 280.52 31.9 280.6 31.64L276.96 30.88C276.88 34.2 276.64 39.06 276.34 42.56H271.72L271.88 43.12H280.3C280.58 43.12 280.8 43.02 280.86 42.8C280 41.94 278.5 40.64 278.5 40.64L277.18 42.56ZM292.98 42.28C294 42.28 294.8 41.5 294.8 40.52C294.8 39.56 294 38.74 292.98 38.74C291.96 38.74 291.18 39.56 291.18 40.52C291.18 41.5 291.96 42.28 292.98 42.28ZM293 26.62C292 26.62 291.22 27.28 291.22 28.64C291.22 29.6 291.4 31.14 292.2 34.74L292.7 37.14H293.3L293.8 34.74C294.6 31.16 294.78 29.6 294.78 28.64C294.78 27.28 294 26.62 293 26.62Z" fill="#424242"/>
<g filter="url(#filter0_d_1334_5665)">
<path fill-rule="evenodd" clip-rule="evenodd" d="M49.4096 45.6194C45.0342 51.0145 38.3521 54.4629 30.8645 54.4629C17.6845 54.4629 7 43.7784 7 30.5984C7 17.4184 17.6845 6.73389 30.8645 6.73389C38.3521 6.73389 45.0343 10.1822 49.4097 15.5775C53.785 10.1823 60.4672 6.73398 67.9548 6.73398C75.4424 6.73398 82.1246 10.1823 86.4999 15.5775C90.8753 10.1823 97.5575 6.73389 105.045 6.73389C112.533 6.73389 119.215 10.1823 123.59 15.5776C127.966 10.1823 134.648 6.73398 142.136 6.73398C155.316 6.73398 166 17.4185 166 30.5985C166 43.7785 155.316 54.463 142.136 54.463C134.648 54.463 127.966 51.0146 123.59 45.6193C119.215 51.0145 112.533 54.4629 105.045 54.4629C97.5575 54.4629 90.8753 51.0145 86.5 45.6193C82.1247 51.0146 75.4424 54.463 67.9548 54.463C60.4671 54.463 53.7849 51.0146 49.4096 45.6194Z" fill="#ED6D34"/>
<path d="M49.4096 45.6194L49.8672 45.2482C49.7554 45.1102 49.5872 45.0301 49.4096 45.0301C49.232 45.0301 49.0638 45.1102 48.9519 45.2482L49.4096 45.6194ZM49.4097 15.5775L48.952 15.9486C49.0639 16.0866 49.232 16.1667 49.4097 16.1667C49.5873 16.1667 49.7554 16.0866 49.8673 15.9486L49.4097 15.5775ZM86.4999 15.5775L86.0423 15.9487C86.1541 16.0867 86.3223 16.1668 86.4999 16.1668C86.6776 16.1668 86.8457 16.0867 86.9576 15.9487L86.4999 15.5775ZM123.59 15.5776L123.133 15.9487C123.245 16.0867 123.413 16.1668 123.59 16.1668C123.768 16.1668 123.936 16.0867 124.048 15.9487L123.59 15.5776ZM123.59 45.6193L124.048 45.2481C123.936 45.1102 123.768 45.03 123.59 45.03C123.413 45.03 123.245 45.1102 123.133 45.2481L123.59 45.6193ZM86.5 45.6193L86.9577 45.2481C86.8458 45.1102 86.6776 45.0301 86.5 45.0301C86.3224 45.0301 86.1542 45.1102 86.0423 45.2481L86.5 45.6193ZM30.8645 55.0521C38.5372 55.0521 45.3848 51.5177 49.8672 45.9905L48.9519 45.2482C44.6837 50.5114 38.1669 53.8736 30.8645 53.8736V55.0521ZM6.41075 30.5984C6.41075 44.1038 17.3591 55.0521 30.8645 55.0521V53.8736C18.0099 53.8736 7.58925 43.4529 7.58925 30.5984H6.41075ZM30.8645 6.14464C17.3591 6.14464 6.41075 17.0929 6.41075 30.5984H7.58925C7.58925 17.7438 18.0099 7.32313 30.8645 7.32313V6.14464ZM49.8673 15.2063C45.3849 9.67905 38.5372 6.14464 30.8645 6.14464V7.32313C38.167 7.32313 44.6837 10.6854 48.952 15.9486L49.8673 15.2063ZM67.9548 6.14474C60.2821 6.14474 53.4344 9.67911 48.952 15.2063L49.8673 15.9486C54.1356 10.6855 60.6523 7.32323 67.9548 7.32323V6.14474ZM86.9576 15.2064C82.4752 9.67913 75.6275 6.14474 67.9548 6.14474V7.32323C75.2573 7.32323 81.774 10.6855 86.0423 15.9487L86.9576 15.2064ZM105.045 6.14464C97.3724 6.14464 90.5247 9.67908 86.0423 15.2064L86.9576 15.9487C91.2258 10.6855 97.7426 7.32313 105.045 7.32313V6.14464ZM124.048 15.2064C119.566 9.67909 112.718 6.14464 105.045 6.14464V7.32313C112.348 7.32313 118.864 10.6855 123.133 15.9487L124.048 15.2064ZM124.048 15.9487C128.316 10.6855 134.833 7.32323 142.136 7.32323V6.14474C134.463 6.14474 127.615 9.67915 123.133 15.2064L124.048 15.9487ZM142.136 7.32323C154.99 7.32323 165.411 17.7439 165.411 30.5985H166.589C166.589 17.093 155.641 6.14474 142.136 6.14474V7.32323ZM165.411 30.5985C165.411 43.453 154.99 53.8737 142.136 53.8737V55.0522C155.641 55.0522 166.589 44.1039 166.589 30.5985H165.411ZM142.136 53.8737C134.833 53.8737 128.316 50.5114 124.048 45.2481L123.133 45.9904C127.615 51.5177 134.463 55.0522 142.136 55.0522V53.8737ZM105.045 55.0521C112.718 55.0521 119.566 51.5177 124.048 45.9904L123.133 45.2481C118.864 50.5113 112.348 53.8736 105.045 53.8736V55.0521ZM86.0423 45.9905C90.5248 51.5177 97.3724 55.0521 105.045 55.0521V53.8736C97.7427 53.8736 91.2259 50.5113 86.9577 45.2481L86.0423 45.9905ZM67.9548 55.0522C75.6275 55.0522 82.4753 51.5178 86.9577 45.9905L86.0423 45.2481C81.7741 50.5114 75.2573 53.8737 67.9548 53.8737V55.0522ZM48.9519 45.9905C53.4343 51.5178 60.282 55.0522 67.9548 55.0522V53.8737C60.6523 53.8737 54.1355 50.5114 49.8672 45.2482L48.9519 45.9905Z" fill="white"/>
</g>
<path d="M16.7813 17.3627C17.5768 18.5706 18.4607 20.3089 18.6964 21.9882C22.2613 24.5809 25.8263 17.9224 16.9876 17.2153L16.7813 17.3627ZM14.6306 24.2568C15.3966 25.3175 16.2216 26.9379 16.3983 28.4699C19.757 30.8859 23.1452 24.6104 14.8368 24.1095L14.6306 24.2568ZM23.1747 21.3401C18.1071 33.9205 18.1071 33.9205 17.4884 35.0695C17.1644 35.6882 17.0465 35.6882 16.5751 35.6882H15.2493V36.2185C15.8975 36.2775 16.3983 36.4248 16.8108 36.7194C17.5179 37.1908 17.6357 40.2254 17.017 43.3484C17.3117 44.5564 18.1366 44.9099 18.8732 44.9099C20.4936 44.9099 21.6132 43.8198 21.6426 42.2583C21.731 39.4889 20.3757 38.5166 20.3168 36.8078C20.2874 36.0123 20.4936 34.8927 20.6998 33.8321C21.0239 32.0938 22.6443 25.1996 23.6166 21.4579L23.1747 21.3401ZM29.8037 26.6138C30.5108 27.6155 31.3063 29.177 31.5125 30.5323C34.223 32.5063 36.9336 27.4682 30.0689 26.4665L29.8037 26.6138ZM29.5385 33.0955C30.3045 34.1267 31.0116 35.7766 31.0411 37.2203C33.7811 39.4594 36.9041 34.1562 29.8037 32.9482L29.5385 33.0955ZM27.2994 38.2514C27.594 36.6605 27.8886 34.5687 28.2127 32.4768H35.6962C35.5488 35.0106 35.3721 36.8962 35.1364 38.2514H27.2994ZM35.9613 25.4059C35.9024 27.7923 35.8435 29.8841 35.7551 31.6519H28.3306C28.6547 29.3244 28.9493 27.0558 29.1261 25.4059H35.9613ZM42.4136 32.4768C42.826 32.4768 43.1207 32.3295 43.1796 32.0054C42.3252 30.8564 40.6164 29.0592 40.6164 29.0592L39.5852 30.8269C39.6441 29.4127 39.703 27.8218 39.7325 26.0835C40.4101 25.9657 40.8226 25.7594 41.0583 25.4943L37.6701 22.5186L35.6372 24.5809H30.0099L27.594 23.4024C28.0654 22.8132 28.5073 22.1945 28.9198 21.5758H41.7359C42.1484 21.5758 42.4725 21.4285 42.5609 21.1044C41.2351 19.8375 38.9665 17.9814 38.9665 17.9814L36.963 20.7508H29.4207C29.8332 20.1026 30.1867 19.4545 30.5108 18.8063C31.2768 18.8947 31.5125 18.7474 31.6304 18.4233L26.2093 16.9502C25.5906 20.7214 23.9996 25.3764 22.0846 27.9986L22.3203 28.2048C23.322 27.5861 24.2353 26.879 25.1192 26.0835C24.9424 27.8218 24.7067 29.7663 24.4415 31.6519H21.5542L21.7899 32.4768H24.3532C24.0585 34.6276 23.7345 36.631 23.4104 38.1041C23.0568 38.3104 22.7033 38.5755 22.4676 38.8112L26.062 40.7852L27.3878 39.0764H34.9596C34.7534 39.9603 34.5177 40.4906 34.223 40.7557C33.9579 41.0209 33.6633 41.1093 33.2213 41.1093C32.6321 41.1093 31.4241 41.0798 30.5992 40.9914V41.3744C31.6598 41.6396 32.2491 41.9932 32.6615 42.5824C33.0151 43.0833 33.1035 43.8198 33.074 44.8805C34.7828 44.851 36.1676 44.6153 37.2282 43.5841C38.0531 42.7886 38.6129 41.5512 38.9959 39.0764H41.9716C42.3546 39.0764 42.6493 38.9291 42.7376 38.605C41.8832 37.5443 40.2628 35.865 40.2628 35.865L39.1432 37.78C39.2906 36.3659 39.4379 34.6276 39.5263 32.4768H42.4136ZM76.1185 30.1198C75.9417 32.1822 75.6471 34.274 75.1167 36.248C73.732 34.657 72.6419 32.6536 71.9937 30.1198H76.1185ZM77.7389 27.3209L75.8533 29.2949H70.9036V19.7491H75.8828C75.8238 22.4007 75.7354 23.6676 75.4408 23.9328C75.323 24.0801 75.1462 24.1095 74.7632 24.1095C74.2918 24.1095 72.966 24.0506 72.1705 23.9917V24.3452C73.1428 24.5809 73.7909 24.8755 74.2034 25.3175C74.6159 25.8183 74.6748 26.3487 74.6748 27.2915C76.3247 27.262 77.297 27.1441 78.1219 26.5844C79.2415 25.8183 79.4772 24.3747 79.5361 20.3383C80.1253 20.2205 80.4494 20.0437 80.6557 19.808L77.4443 17.2448L75.6176 18.9242H71.3161L67.1325 17.3627V25.1702C66.0129 24.139 64.3041 22.8426 64.3041 22.8426L62.6247 25.0229H61.623V21.0454H65.4531C65.8656 21.0454 66.1602 20.8981 66.2486 20.574C65.1585 19.5723 63.3023 18.1287 63.3023 18.1287L61.7114 20.2205H61.623V17.9519C62.3301 17.8341 62.5363 17.5689 62.5953 17.1859L57.9991 16.8029V20.2205H54.1985L54.4342 21.0454H57.9991V25.0229H53.1968L53.4325 25.8478H66.5432C66.7789 25.8478 66.9851 25.7889 67.1325 25.7005V35.9828C65.8361 34.8927 64.1568 33.6259 64.1568 33.6259L62.2417 36.1007H61.9765V32.3295H65.8066C66.2191 32.3295 66.5137 32.1822 66.6021 31.8581C65.4826 30.8269 63.597 29.4127 63.597 29.4127L61.9471 31.5046H60.9454C62.389 30.2966 63.7443 28.853 64.5987 27.7039C65.2469 27.7334 65.5709 27.4977 65.6888 27.1441L60.9454 25.8773C60.8275 27.5272 60.5034 29.7663 60.0615 31.5046H57.7045C59.8847 31.4456 61.1221 27.5566 55.1118 25.9951L54.8467 26.113C55.4359 27.3798 56.0252 29.177 56.0252 30.7975C56.526 31.2689 57.0858 31.4751 57.5867 31.5046H53.9039L54.1396 32.3295H57.9991V36.1007H53.0789L53.3146 36.9256H57.9991V44.4975H58.7357C60.7686 44.4975 61.9471 43.8493 61.9765 43.6725V36.9256H66.8378C66.9557 36.9256 67.0441 36.9256 67.1325 36.8962V44.6448H67.8395C69.7546 44.6448 70.9036 43.7904 70.9036 43.5547V30.1198H71.4929C71.9643 34.0973 72.7892 37.0435 74.0266 39.4005C73.1722 41.3744 71.9937 43.1422 70.4028 44.5858L70.6385 44.9099C72.5241 43.9377 74.0561 42.7886 75.2935 41.4628C76.089 42.5529 77.0318 43.4957 78.0924 44.3796C78.7406 42.5235 79.9486 41.345 81.5101 41.0798L81.5985 40.7557C80.1548 40.137 78.7701 39.371 77.5032 38.4577C78.8585 36.0418 79.595 33.3607 80.0369 30.6502C80.6851 30.5618 80.9503 30.4734 81.1271 30.1493L77.7389 27.3209ZM94.2672 17.5984C95.1217 18.5411 96.0055 20.1321 96.2118 21.6347C99.924 24.0506 103.253 17.1564 94.444 17.451L94.2672 17.5984ZM100.071 22.7543H91.4683L91.704 23.5792H103.784C104.196 23.5792 104.52 23.4319 104.579 23.1078C103.489 22.1061 101.692 20.633 101.692 20.633L100.071 22.7543ZM92.6763 26.5254L92.912 27.3504H102.664C103.076 27.3504 103.371 27.2031 103.459 26.879C102.399 25.8773 100.631 24.4925 100.631 24.4925L99.0696 26.5254H92.6763ZM108.586 19.9259H111.179V25.3764C111.179 27.645 111.444 28.3816 113.948 28.3816H115.333C118.22 28.3816 119.458 27.5861 119.458 26.1719C119.458 25.4943 119.192 25.1112 118.367 24.6988L118.22 24.6398H117.955C117.719 24.6988 117.395 24.7577 117.189 24.7872C117.012 24.7872 116.659 24.8166 116.482 24.8166H115.893H115.303C114.979 24.8166 114.891 24.6988 114.891 24.4041V20.191C115.421 20.1026 115.775 19.9553 115.952 19.7491L112.681 17.127L110.855 19.1009H109.175L104.815 17.5984V21.3695C104.815 23.9033 104.579 27.1147 102.34 29.7368C101.486 29.0003 100.631 28.3521 100.631 28.3521L99.0696 30.385H92.6763L92.912 31.2099H102.664C103.076 31.2099 103.371 31.0626 103.459 30.7385C103.283 30.5618 103.076 30.385 102.841 30.1788C107.997 27.8512 108.586 23.7854 108.586 21.3695V19.9259ZM96.6832 40.8147V35.099H99.158V40.8147H96.6832ZM99.8062 43.319C101.044 43.319 102.811 42.5529 102.841 42.3172V35.5998C103.371 35.482 103.725 35.2757 103.872 35.0695L100.513 32.5358L98.8928 34.274H96.801L93.0593 32.8009V44.5564H93.5896C95.1217 44.5564 96.6832 43.7609 96.6832 43.4073V41.6396H99.158V43.319H99.8062ZM112.121 31.3573C111.532 33.3018 110.678 35.1284 109.529 36.7783C107.82 35.4231 106.465 33.6848 105.61 31.3573H112.121ZM114.184 28.411L111.974 30.5323H103.695L103.96 31.3573H105.139C105.758 34.4508 106.73 36.8372 107.997 38.7228C105.875 41.1093 103.047 43.0833 99.5705 44.468L99.7472 44.8215C103.843 43.9966 107.113 42.6119 109.735 40.7852C111.385 42.4351 113.447 43.6136 115.893 44.6153C116.423 42.6708 117.601 41.3744 119.281 40.9914L119.31 40.6379C116.835 40.1665 114.478 39.5183 112.387 38.5166C114.213 36.6899 115.569 34.5097 116.541 32.0938C117.248 32.0349 117.542 31.917 117.749 31.593L114.184 28.411ZM133.717 17.3332C134.631 18.3349 135.544 19.9848 135.78 21.5758C139.58 24.0801 142.998 16.9207 133.894 17.1859L133.717 17.3332ZM140.376 22.6659H129.71L129.946 23.4908H144.736C145.149 23.4908 145.473 23.3435 145.532 23.0194C144.294 21.8999 142.232 20.2794 142.232 20.2794L140.376 22.6659ZM131.242 26.496L131.478 27.3209H143.175C143.587 27.3209 143.882 27.1736 143.97 26.8495C142.762 25.73 140.7 24.139 140.7 24.139L138.873 26.496H131.242ZM138.873 30.3555H131.242L131.478 31.1805H143.175C143.587 31.1805 143.882 31.0332 143.97 30.7091C142.762 29.5895 140.7 27.9986 140.7 27.9986L138.873 30.3555ZM135.544 40.7852V35.2463H139.315V40.7852H135.544ZM139.021 34.4213H135.662L131.802 32.9188V44.468H132.333C133.894 44.468 135.544 43.643 135.544 43.2895V41.6101H139.315V43.3484H139.963C141.26 43.3484 143.116 42.5824 143.145 42.3467V35.8355C143.734 35.7177 144.088 35.4525 144.265 35.2463L140.729 32.5652L139.021 34.4213ZM152.75 27.9102H152.337V18.4233C153.162 18.3054 153.369 17.9814 153.428 17.5689L148.154 17.068V27.9102H143.587L143.823 28.7351H148.154V44.7626H148.949C150.54 44.7626 152.337 43.7314 152.337 43.319V28.7351H157.287C157.7 28.7351 158.024 28.5878 158.112 28.2637C156.845 27.0852 154.665 25.3175 154.665 25.3175L152.75 27.9102Z" fill="white"/>
<defs>
<filter id="filter0_d_1334_5665" x="0.518302" y="0.252067" width="171.964" height="60.6926" filterUnits="userSpaceOnUse" color-interpolation-filters="sRGB">
<feFlood flood-opacity="0" result="BackgroundImageFix"/>
<feColorMatrix in="SourceAlpha" type="matrix" values="0 0 0 0 0 0 0 0 0 0 0 0 0 0 0 0 0 0 127 0" result="hardAlpha"/>
<feOffset/>
<feGaussianBlur stdDeviation="2.94623"/>
<feComposite in2="hardAlpha" operator="out"/>
<feColorMatrix type="matrix" values="0 0 0 0 0 0 0 0 0 0 0 0 0 0 0 0 0 0 0.3 0"/>
<feBlend mode="normal" in2="BackgroundImageFix" result="effect1_dropShadow_1334_5665"/>
<feBlend mode="normal" in="SourceGraphic" in2="effect1_dropShadow_1334_5665" result="shape"/>
</filter>
</defs>
</svg>
