<svg width="24" height="24" viewBox="0 0 24 24" fill="none" xmlns="http://www.w3.org/2000/svg">
<path d="M12.3123 3.60957C12.1297 3.46348 11.8703 3.46348 11.6877 3.60957L5.43826 8.60908C4.84522 9.08351 4.5 9.80179 4.5 10.5613V18.4C4.5 18.9525 4.71324 19.4851 5.09711 19.8799C5.48145 20.2752 6.00577 20.5 6.55556 20.5H17.4444C17.9942 20.5 18.5185 20.2752 18.9029 19.8799C19.2868 19.4851 19.5 18.9525 19.5 18.4V10.5612C19.5 9.80179 19.1548 9.08351 18.5617 8.60908L12.3123 3.60957Z" fill="#00A496" stroke="#00A496" stroke-linecap="round" stroke-linejoin="round"/>
<path d="M9 13C9 11.8954 9.89543 11 11 11H13C14.1046 11 15 11.8954 15 13V21H9V13Z" fill="white"/>
</svg>
