<svg width="24" height="24" viewBox="0 0 24 24" fill="none" xmlns="http://www.w3.org/2000/svg">
<path d="M12.4685 3.41435C12.1946 3.19522 11.8054 3.19522 11.5315 3.41435L5.28209 8.41386C4.62975 8.93573 4.25 9.72585 4.25 10.5613V18.4C4.25 19.0165 4.48792 19.612 4.91787 20.0542C5.34851 20.4971 5.93716 20.75 6.55556 20.75H17.4444C18.0628 20.75 18.6515 20.4971 19.0821 20.0542C19.5121 19.612 19.75 19.0165 19.75 18.4V10.5612C19.75 9.72585 19.3703 8.93574 18.7179 8.41386L12.4685 3.41435Z" stroke="#00A496" stroke-width="1.5" stroke-linecap="round" stroke-linejoin="round"/>
<path d="M9.5 13C9.5 12.1716 10.1716 11.5 11 11.5H13C13.8284 11.5 14.5 12.1716 14.5 13V20.5H9.5V13Z" stroke="#00A496"/>
</svg>
