<svg width="40" height="40" viewBox="0 0 40 40" fill="none" xmlns="http://www.w3.org/2000/svg">
<path d="M28.5237 11.1436C26.2057 9.26024 23.1632 8.24609 20.2657 8.24609C17.2233 8.24609 14.3257 9.26024 12.0077 11.1436C9.68964 12.8822 8.38574 15.3451 8.38574 18.0978C8.38574 20.5607 9.54476 23.0236 11.4282 24.7621C13.4565 26.5007 15.9194 27.5148 18.5272 27.6597V31.7162C18.5272 32.006 18.8169 32.1509 18.9618 32.1509C19.1067 32.1509 19.1067 32.1509 19.2516 32.006L26.6403 26.3558C28.0891 25.3416 29.393 24.0377 30.4071 22.7338C31.4213 21.4299 32.0008 19.8363 32.0008 18.0978C32.0008 15.3451 30.6969 12.8822 28.5237 11.1436Z" fill="#9D9F5F"/>
<path d="M23.4523 15.2C23.4523 14.7653 23.1626 14.4756 22.8728 14.4756C22.583 14.4756 22.2933 14.7653 22.2933 15.2C22.2933 16.0692 22.2933 16.7936 22.2933 17.6629C22.2933 17.8078 22.2933 17.9526 22.2933 18.0975C22.1484 17.9526 22.1484 17.8078 22.0035 17.8078C21.2791 16.7936 20.5548 15.9244 19.8304 14.9102C19.6855 14.6205 19.3957 14.4756 19.106 14.6205C18.8162 14.6205 18.5265 14.9102 18.6713 15.2C18.6713 16.7936 18.6713 18.2424 18.6713 19.8361C18.6713 20.1258 18.8162 20.2707 18.9611 20.4156C19.3957 20.5604 19.8304 20.2707 19.8304 19.6912C19.8304 18.9668 19.8304 18.2424 19.8304 17.3731V17.0834C19.9752 17.0834 19.9752 17.2283 20.1201 17.3731C20.8445 18.3873 21.5689 19.2565 22.2933 20.2707C22.4382 20.5604 22.7279 20.7053 23.0177 20.5604C23.3074 20.4156 23.4523 20.1258 23.4523 19.8361C23.4523 18.2424 23.4523 16.7936 23.4523 15.2Z" fill="white"/>
<path d="M25.7713 15.7795C25.9162 15.7795 26.0611 15.7795 26.206 15.7795C26.6406 15.7795 27.0752 15.7795 27.5099 15.7795C27.6547 15.7795 27.7996 15.7795 27.9445 15.6346C28.2342 15.4897 28.3791 15.2 28.2342 14.9102C28.2342 14.6205 27.9445 14.4756 27.6547 14.4756C26.9303 14.4756 26.0611 14.4756 25.3367 14.4756C24.7572 14.4756 24.6123 14.7653 24.6123 15.2C24.6123 16.6487 24.6123 18.0975 24.6123 19.5463C24.6123 20.1258 24.9021 20.2707 25.3367 20.2707C26.0611 20.2707 26.7855 20.2707 27.5099 20.2707C27.6547 20.2707 27.7996 20.2707 27.7996 20.2707C28.0894 20.1258 28.2342 19.8361 28.2342 19.5463C28.2342 19.4014 28.0894 19.2565 27.9445 19.1117C27.7996 19.1117 27.6547 19.1117 27.5099 19.1117C26.9303 19.1117 26.3508 19.1117 25.9162 19.1117V18.2424C26.0611 18.2424 26.0611 18.2424 26.206 18.2424C26.7855 18.2424 27.2201 18.2424 27.7996 18.2424C28.2342 18.2424 28.524 17.9526 28.524 17.6629C28.524 17.3731 28.2342 17.0834 27.7996 17.0834C27.5099 17.0834 27.2201 17.0834 26.9303 17.0834C25.6264 16.9385 25.6264 16.9385 25.7713 15.7795C25.7713 15.7795 25.7713 15.9244 25.7713 15.7795Z" fill="white"/>
<path d="M15.1941 19.4016C15.0493 19.4016 14.9044 19.4016 14.9044 19.4016H13.3107V18.8221C13.3107 17.663 13.3107 16.504 13.3107 15.345C13.3107 14.9104 13.021 14.6206 12.7312 14.6206C12.4415 14.6206 12.0068 14.9104 12.0068 15.345C12.0068 16.7938 12.0068 18.3874 12.0068 19.8362C12.0068 20.126 12.1517 20.5606 12.5863 20.5606H12.7312C13.1659 20.5606 14.7595 20.5606 15.1941 20.5606C15.4839 20.5606 15.7737 20.2708 15.7737 19.9811C15.7737 19.6913 15.4839 19.4016 15.1941 19.4016Z" fill="white"/>
<path d="M17.658 15.2001C17.658 14.7655 17.5132 14.6206 17.0785 14.6206C16.6439 14.6206 16.499 14.7655 16.499 15.2001C16.499 16.7938 16.499 18.3874 16.499 19.9811C16.499 20.4157 16.6439 20.5606 17.0785 20.5606C17.5132 20.5606 17.658 20.4157 17.658 19.9811C17.658 19.2567 17.658 18.3874 17.658 17.663C17.658 16.9386 17.658 15.9245 17.658 15.2001Z" fill="white"/>
</svg>
