<svg width="40" height="40" viewBox="0 0 40 40" fill="none" xmlns="http://www.w3.org/2000/svg">
<path d="M24.3199 24.4904C24.843 24.0664 25.5107 23.8125 26.2344 23.8125C27.9152 23.8125 29.2812 25.1785 29.2812 26.8594C29.2812 28.5402 27.9152 29.9062 26.2344 29.9062C24.5535 29.9062 23.1875 28.5402 23.1875 26.8594C23.1875 26.5674 23.2281 26.283 23.3068 26.0139L18.31 22.3957C17.5686 23.3783 16.3904 24.0156 15.0625 24.0156C12.818 24.0156 11 22.1977 11 19.9531C11 17.7086 12.818 15.8906 15.0625 15.8906C16.3904 15.8906 17.5686 16.5279 18.31 17.5105L23.3068 13.8924C23.2281 13.6232 23.1875 13.3414 23.1875 13.0469C23.1875 11.366 24.5535 10 26.2344 10C27.9152 10 29.2812 11.366 29.2812 13.0469C29.2812 14.7277 27.9152 16.0938 26.2344 16.0938C25.5107 16.0938 24.843 15.8398 24.3199 15.4158L19.059 19.2219C19.1471 19.7054 19.1471 20.2009 19.059 20.6844L24.3199 24.4904Z" fill="#00A496"/>
</svg>
